<?xml version="1.0" encoding="UTF-8" standalone="no"?>
<svg width="30mm" height="40mm"
 viewBox="0 0 86 114"
 xmlns="http://www.w3.org/2000/svg" xmlns:xlink="http://www.w3.org/1999/xlink"  version="1.2" baseProfile="tiny">
<title>Qt SVG Document</title>
<desc>MATLAB, The MathWorks, Inc. Version 25.2.0.3150157 R2025b Update 4</desc>
<defs>
</defs>
<g fill="none" stroke="black" stroke-width="1" fill-rule="evenodd" stroke-linecap="square" stroke-linejoin="bevel" >

<g fill="#ffffff" fill-opacity="1" stroke="none" transform="matrix(0.75,0,0,0.75,0,0)"
font-family="SimSun" font-size="9" font-weight="400" font-style="normal" 
>
<path vector-effect="none" fill-rule="evenodd" d="M0,0 L115,0 L115,153 L0,153 L0,0"/>
</g>

<g fill="#ffffff" fill-opacity="1" stroke="none" transform="matrix(7.5e-05,0,0,7.5e-05,0,0)"
font-family="SimSun" font-size="9" font-weight="400" font-style="normal" 
>
<path vector-effect="none" fill-rule="evenodd" d="M240000,110000 L240000,1.34e+06 L1.02e+06,1.34e+06 L1.02e+06,110000 L240000,110000"/>
</g>

<g fill="#212121" fill-opacity="1" stroke="#212121" stroke-opacity="1" stroke-width="0.666667" stroke-linecap="square" stroke-linejoin="round" transform="matrix(0.75,0,0,0.75,0,0)"
font-family="SimSun" font-size="9" font-weight="400" font-style="normal" 
>
<polyline fill="none" vector-effect="none" points="24,134 102,134 " />
<polyline fill="none" vector-effect="none" points="43.5,134 43.5,132.77 " />
<polyline fill="none" vector-effect="none" points="82.5,134 82.5,132.77 " />
</g>

<g fill="#212121" fill-opacity="1" stroke="#212121" stroke-opacity="1" stroke-width="1" stroke-linecap="square" stroke-linejoin="bevel" transform="matrix(0.75,0,0,0.75,28.875,107.7)"
font-family="Helvetica" font-size="8" font-weight="400" font-style="normal" 
>
<text fill="#212121" fill-opacity="1" stroke="none" xml:space="preserve" x="0" y="0" font-family="Helvetica" font-size="8" font-weight="400" font-style="normal" 
 >Hit</text>
</g>

<g fill="#212121" fill-opacity="1" stroke="#212121" stroke-opacity="1" stroke-width="1" stroke-linecap="square" stroke-linejoin="bevel" transform="matrix(0.75,0,0,0.75,55.5,107.7)"
font-family="Helvetica" font-size="8" font-weight="400" font-style="normal" 
>
<text fill="#212121" fill-opacity="1" stroke="none" xml:space="preserve" x="0" y="0" font-family="Helvetica" font-size="8" font-weight="400" font-style="normal" 
 >Miss</text>
</g>

<g fill="#212121" fill-opacity="1" stroke="#212121" stroke-opacity="1" stroke-width="1" stroke-linecap="square" stroke-linejoin="bevel" transform="matrix(0,-0.75,0.75,0,5.3,70.125)"
font-family="Helvetica" font-size="8" font-weight="400" font-style="normal" 
>
<text fill="#212121" fill-opacity="1" stroke="none" xml:space="preserve" x="0" y="0" font-family="Helvetica" font-size="8" font-weight="400" font-style="normal" 
 >Reactivation</text>
</g>

<g fill="#212121" fill-opacity="1" stroke="#212121" stroke-opacity="1" stroke-width="0.666667" stroke-linecap="square" stroke-linejoin="round" transform="matrix(0.75,0,0,0.75,0,0)"
font-family="Helvetica" font-size="8" font-weight="400" font-style="normal" 
>
<polyline fill="none" vector-effect="none" points="24,134 24,11 " />
<polyline fill="none" vector-effect="none" points="24,134 25.23,134 " />
<polyline fill="none" vector-effect="none" points="24,109.4 25.23,109.4 " />
<polyline fill="none" vector-effect="none" points="24,84.8 25.23,84.8 " />
<polyline fill="none" vector-effect="none" points="24,60.2 25.23,60.2 " />
<polyline fill="none" vector-effect="none" points="24,35.6 25.23,35.6 " />
<polyline fill="none" vector-effect="none" points="24,11 25.23,11 " />
</g>

<g fill="#212121" fill-opacity="1" stroke="#212121" stroke-opacity="1" stroke-width="1" stroke-linecap="square" stroke-linejoin="bevel" transform="matrix(0.75,0,0,0.75,13.8,102.75)"
font-family="Helvetica" font-size="8" font-weight="400" font-style="normal" 
>
<text fill="#212121" fill-opacity="1" stroke="none" xml:space="preserve" x="0" y="0" font-family="Helvetica" font-size="8" font-weight="400" font-style="normal" 
 >0</text>
</g>

<g fill="#212121" fill-opacity="1" stroke="#212121" stroke-opacity="1" stroke-width="1" stroke-linecap="square" stroke-linejoin="bevel" transform="matrix(0.75,0,0,0.75,9.3,84.3)"
font-family="Helvetica" font-size="8" font-weight="400" font-style="normal" 
>
<text fill="#212121" fill-opacity="1" stroke="none" xml:space="preserve" x="0" y="0" font-family="Helvetica" font-size="8" font-weight="400" font-style="normal" 
 >0.2</text>
</g>

<g fill="#212121" fill-opacity="1" stroke="#212121" stroke-opacity="1" stroke-width="1" stroke-linecap="square" stroke-linejoin="bevel" transform="matrix(0.75,0,0,0.75,9.3,65.85)"
font-family="Helvetica" font-size="8" font-weight="400" font-style="normal" 
>
<text fill="#212121" fill-opacity="1" stroke="none" xml:space="preserve" x="0" y="0" font-family="Helvetica" font-size="8" font-weight="400" font-style="normal" 
 >0.4</text>
</g>

<g fill="#212121" fill-opacity="1" stroke="#212121" stroke-opacity="1" stroke-width="1" stroke-linecap="square" stroke-linejoin="bevel" transform="matrix(0.75,0,0,0.75,9.3,47.4)"
font-family="Helvetica" font-size="8" font-weight="400" font-style="normal" 
>
<text fill="#212121" fill-opacity="1" stroke="none" xml:space="preserve" x="0" y="0" font-family="Helvetica" font-size="8" font-weight="400" font-style="normal" 
 >0.6</text>
</g>

<g fill="#212121" fill-opacity="1" stroke="#212121" stroke-opacity="1" stroke-width="1" stroke-linecap="square" stroke-linejoin="bevel" transform="matrix(0.75,0,0,0.75,9.3,28.95)"
font-family="Helvetica" font-size="8" font-weight="400" font-style="normal" 
>
<text fill="#212121" fill-opacity="1" stroke="none" xml:space="preserve" x="0" y="0" font-family="Helvetica" font-size="8" font-weight="400" font-style="normal" 
 >0.8</text>
</g>

<g fill="#212121" fill-opacity="1" stroke="#212121" stroke-opacity="1" stroke-width="1" stroke-linecap="square" stroke-linejoin="bevel" transform="matrix(0.75,0,0,0.75,13.8,10.5)"
font-family="Helvetica" font-size="8" font-weight="400" font-style="normal" 
>
<text fill="#212121" fill-opacity="1" stroke="none" xml:space="preserve" x="0" y="0" font-family="Helvetica" font-size="8" font-weight="400" font-style="normal" 
 >1</text>
</g>

<g fill="#808080" fill-opacity="1" stroke="#808080" stroke-opacity="1" stroke-width="1" stroke-linecap="butt" stroke-linejoin="round" transform="matrix(0.75,0,0,0.75,0,0)"
font-family="Helvetica" font-size="8" font-weight="400" font-style="normal" 
>
<polyline fill="none" vector-effect="none" points="43.5,128.698 82.5,128.024 " />
<polyline fill="none" vector-effect="none" points="43.5,87.6941 82.5,122.665 " />
<polyline fill="none" vector-effect="none" points="43.5,113.5 82.5,134 " />
<polyline fill="none" vector-effect="none" points="43.5,124.144 82.5,134 " />
<polyline fill="none" vector-effect="none" points="43.5,94.4867 82.5,133.309 " />
<polyline fill="none" vector-effect="none" points="43.5,102.279 82.5,129.9 " />
<polyline fill="none" vector-effect="none" points="43.5,118.625 82.5,134 " />
<polyline fill="none" vector-effect="none" points="43.5,90.95 82.5,126.313 " />
<polyline fill="none" vector-effect="none" points="43.5,112.843 82.5,134 " />
<polyline fill="none" vector-effect="none" points="43.5,90.4708 82.5,125.214 " />
<polyline fill="none" vector-effect="none" points="43.5,125.517 82.5,134 " />
</g>

<g fill="#0072bd" fill-opacity="1" stroke="none" transform="matrix(0.75,0,0,0.75,0,0)"
font-family="Helvetica" font-size="8" font-weight="400" font-style="normal" 
>
<circle cx="43.5" cy="128.698" r="2.58199"/>
<circle cx="43.5" cy="87.6941" r="2.58199"/>
<circle cx="43.5" cy="113.5" r="2.58199"/>
<circle cx="43.5" cy="124.144" r="2.58199"/>
<circle cx="43.5" cy="94.4867" r="2.58199"/>
<circle cx="43.5" cy="102.279" r="2.58199"/>
<circle cx="43.5" cy="118.625" r="2.58199"/>
<circle cx="43.5" cy="90.95" r="2.58199"/>
<circle cx="43.5" cy="112.843" r="2.58199"/>
<circle cx="43.5" cy="90.4708" r="2.58199"/>
<circle cx="43.5" cy="125.517" r="2.58199"/>
<circle cx="82.5" cy="128.024" r="2.58199"/>
<circle cx="82.5" cy="122.665" r="2.58199"/>
<circle cx="82.5" cy="134" r="2.58199"/>
<circle cx="82.5" cy="134" r="2.58199"/>
<circle cx="82.5" cy="133.309" r="2.58199"/>
<circle cx="82.5" cy="129.9" r="2.58199"/>
<circle cx="82.5" cy="134" r="2.58199"/>
<circle cx="82.5" cy="126.313" r="2.58199"/>
<circle cx="82.5" cy="134" r="2.58199"/>
<circle cx="82.5" cy="125.214" r="2.58199"/>
<circle cx="82.5" cy="134" r="2.58199"/>
</g>

<g fill="#000000" fill-opacity="1" stroke="#000000" stroke-opacity="1" stroke-width="0.666667" stroke-linecap="butt" stroke-linejoin="round" transform="matrix(0.75,0,0,0.75,0,0)"
font-family="Helvetica" font-size="8" font-weight="400" font-style="normal" 
>
<polyline fill="none" vector-effect="none" points="43.5,75.3941 82.5,75.3941 " />
</g>

<g fill="#212121" fill-opacity="1" stroke="#212121" stroke-opacity="1" stroke-width="1" stroke-linecap="square" stroke-linejoin="bevel" transform="matrix(0.75,0,0,0.75,43.875,51.2956)"
font-family="Helvetica" font-size="8" font-weight="400" font-style="normal" 
>
<text fill="#212121" fill-opacity="1" stroke="none" xml:space="preserve" x="0" y="0" font-family="Helvetica" font-size="8" font-weight="400" font-style="normal" 
 >***</text>
</g>

<g fill="#212121" fill-opacity="1" stroke="#212121" stroke-opacity="1" stroke-width="1" stroke-linecap="square" stroke-linejoin="bevel" transform="matrix(0.75,0,0,0.75,19.92,15.345)"
font-family="Helvetica" font-size="8" font-weight="400" font-style="normal" 
>
<text fill="#212121" fill-opacity="1" stroke="none" xml:space="preserve" x="0" y="0" font-family="Helvetica" font-size="8" font-weight="400" font-style="normal" 
 >n=11</text>
</g>
</g>
</svg>
