<?xml version="1.0" encoding="UTF-8" standalone="no"?>
<svg width="236.361mm" height="155.222mm"
 viewBox="0 0 670 440"
 xmlns="http://www.w3.org/2000/svg" xmlns:xlink="http://www.w3.org/1999/xlink"  version="1.2" baseProfile="tiny">
<title>Qt SVG Document</title>
<desc>MATLAB, The MathWorks, Inc. Version 25.1.0.2973910 R2025a Update 1</desc>
<defs>
</defs>
<g fill="none" stroke="black" stroke-width="1" fill-rule="evenodd" stroke-linecap="square" stroke-linejoin="bevel" >

<g fill="#ffffff" fill-opacity="1" stroke="none" transform="matrix(0.749297,0,0,0.749463,-72.4306,-23.4197)"
font-family="SimSun" font-size="9" font-weight="400" font-style="normal" 
>
<path vector-effect="none" fill-rule="evenodd" d="M95,30 L989,30 L989,618 L95,618 L95,30"/>
</g>

<g fill="#ffffff" fill-opacity="1" stroke="none" transform="matrix(7.49297e-05,0,0,7.49463e-05,-72.4306,-23.4197)"
font-family="SimSun" font-size="9" font-weight="400" font-style="normal" 
>
<path vector-effect="none" fill-rule="evenodd" d="M1.4e+06,490000 L1.4e+06,5.78e+06 L9.75e+06,5.78e+06 L9.75e+06,490000 L1.4e+06,490000"/>
</g>

<g fill="#212121" fill-opacity="1" stroke="#212121" stroke-opacity="1" stroke-width="1" stroke-linecap="square" stroke-linejoin="bevel" transform="matrix(0.749297,0,0,0.749463,275.243,435.752)"
font-family="Helvetica" font-size="14" font-weight="400" font-style="normal" 
>
<text fill="#212121" fill-opacity="1" stroke="none" xml:space="preserve" x="0" y="0" font-family="Helvetica" font-size="14" font-weight="400" font-style="normal" 
 >Learned-transfer overlap rate</text>
</g>

<g fill="#212121" fill-opacity="1" stroke="#212121" stroke-opacity="1" stroke-width="0.666667" stroke-linecap="square" stroke-linejoin="round" transform="matrix(0.749297,0,0,0.749463,-72.4306,-23.4197)"
font-family="Helvetica" font-size="14" font-weight="400" font-style="normal" 
>
<polyline fill="none" vector-effect="none" points="140,578 975,578 " />
<polyline fill="none" vector-effect="none" points="140,578 140,569.65 " />
<polyline fill="none" vector-effect="none" points="418.333,578 418.333,569.65 " />
<polyline fill="none" vector-effect="none" points="696.667,578 696.667,569.65 " />
<polyline fill="none" vector-effect="none" points="975,578 975,569.65 " />
</g>

<g fill="#212121" fill-opacity="1" stroke="#212121" stroke-opacity="1" stroke-width="1" stroke-linecap="square" stroke-linejoin="bevel" transform="matrix(0.749297,0,0,0.749463,29.8484,422.761)"
font-family="Helvetica" font-size="13" font-weight="400" font-style="normal" 
>
<text fill="#212121" fill-opacity="1" stroke="none" xml:space="preserve" x="0" y="0" font-family="Helvetica" font-size="13" font-weight="400" font-style="normal" 
 >0</text>
</g>

<g fill="#212121" fill-opacity="1" stroke="#212121" stroke-opacity="1" stroke-width="1" stroke-linecap="square" stroke-linejoin="bevel" transform="matrix(0.749297,0,0,0.749463,231.659,422.761)"
font-family="Helvetica" font-size="13" font-weight="400" font-style="normal" 
>
<text fill="#212121" fill-opacity="1" stroke="none" xml:space="preserve" x="0" y="0" font-family="Helvetica" font-size="13" font-weight="400" font-style="normal" 
 >0.05</text>
</g>

<g fill="#212121" fill-opacity="1" stroke="#212121" stroke-opacity="1" stroke-width="1" stroke-linecap="square" stroke-linejoin="bevel" transform="matrix(0.749297,0,0,0.749463,442.836,422.761)"
font-family="Helvetica" font-size="13" font-weight="400" font-style="normal" 
>
<text fill="#212121" fill-opacity="1" stroke="none" xml:space="preserve" x="0" y="0" font-family="Helvetica" font-size="13" font-weight="400" font-style="normal" 
 >0.1</text>
</g>

<g fill="#212121" fill-opacity="1" stroke="#212121" stroke-opacity="1" stroke-width="1" stroke-linecap="square" stroke-linejoin="bevel" transform="matrix(0.749297,0,0,0.749463,648.768,422.761)"
font-family="Helvetica" font-size="13" font-weight="400" font-style="normal" 
>
<text fill="#212121" fill-opacity="1" stroke="none" xml:space="preserve" x="0" y="0" font-family="Helvetica" font-size="13" font-weight="400" font-style="normal" 
 >0.15</text>
</g>

<g fill="#212121" fill-opacity="1" stroke="#212121" stroke-opacity="1" stroke-width="1" stroke-linecap="square" stroke-linejoin="bevel" transform="matrix(0,-0.749463,0.749297,0,8.99297,242.265)"
font-family="Helvetica" font-size="14" font-weight="400" font-style="normal" 
>
<text fill="#212121" fill-opacity="1" stroke="none" xml:space="preserve" x="0" y="0" font-family="Helvetica" font-size="14" font-weight="400" font-style="normal" 
 >Performance</text>
</g>

<g fill="#212121" fill-opacity="1" stroke="#212121" stroke-opacity="1" stroke-width="0.666667" stroke-linecap="square" stroke-linejoin="round" transform="matrix(0.749297,0,0,0.749463,-72.4306,-23.4197)"
font-family="Helvetica" font-size="14" font-weight="400" font-style="normal" 
>
<polyline fill="none" vector-effect="none" points="140,578 140,49 " />
<polyline fill="none" vector-effect="none" points="140,578 148.35,578 " />
<polyline fill="none" vector-effect="none" points="140,511.875 148.35,511.875 " />
<polyline fill="none" vector-effect="none" points="140,445.75 148.35,445.75 " />
<polyline fill="none" vector-effect="none" points="140,379.625 148.35,379.625 " />
<polyline fill="none" vector-effect="none" points="140,313.5 148.35,313.5 " />
<polyline fill="none" vector-effect="none" points="140,247.375 148.35,247.375 " />
<polyline fill="none" vector-effect="none" points="140,181.25 148.35,181.25 " />
<polyline fill="none" vector-effect="none" points="140,115.125 148.35,115.125 " />
<polyline fill="none" vector-effect="none" points="140,49 148.35,49 " />
</g>

<g fill="#212121" fill-opacity="1" stroke="#212121" stroke-opacity="1" stroke-width="1" stroke-linecap="square" stroke-linejoin="bevel" transform="matrix(0.749297,0,0,0.749463,14.9873,413.143)"
font-family="Helvetica" font-size="13" font-weight="400" font-style="normal" 
>
<text fill="#212121" fill-opacity="1" stroke="none" xml:space="preserve" x="0" y="0" font-family="Helvetica" font-size="13" font-weight="400" font-style="normal" 
 >0.1</text>
</g>

<g fill="#212121" fill-opacity="1" stroke="#212121" stroke-opacity="1" stroke-width="1" stroke-linecap="square" stroke-linejoin="bevel" transform="matrix(0.749297,0,0,0.749463,14.9873,363.585)"
font-family="Helvetica" font-size="13" font-weight="400" font-style="normal" 
>
<text fill="#212121" fill-opacity="1" stroke="none" xml:space="preserve" x="0" y="0" font-family="Helvetica" font-size="13" font-weight="400" font-style="normal" 
 >0.2</text>
</g>

<g fill="#212121" fill-opacity="1" stroke="#212121" stroke-opacity="1" stroke-width="1" stroke-linecap="square" stroke-linejoin="bevel" transform="matrix(0.749297,0,0,0.749463,14.9873,314.026)"
font-family="Helvetica" font-size="13" font-weight="400" font-style="normal" 
>
<text fill="#212121" fill-opacity="1" stroke="none" xml:space="preserve" x="0" y="0" font-family="Helvetica" font-size="13" font-weight="400" font-style="normal" 
 >0.3</text>
</g>

<g fill="#212121" fill-opacity="1" stroke="#212121" stroke-opacity="1" stroke-width="1" stroke-linecap="square" stroke-linejoin="bevel" transform="matrix(0.749297,0,0,0.749463,14.9873,264.468)"
font-family="Helvetica" font-size="13" font-weight="400" font-style="normal" 
>
<text fill="#212121" fill-opacity="1" stroke="none" xml:space="preserve" x="0" y="0" font-family="Helvetica" font-size="13" font-weight="400" font-style="normal" 
 >0.4</text>
</g>

<g fill="#212121" fill-opacity="1" stroke="#212121" stroke-opacity="1" stroke-width="1" stroke-linecap="square" stroke-linejoin="bevel" transform="matrix(0.749297,0,0,0.749463,14.9873,214.91)"
font-family="Helvetica" font-size="13" font-weight="400" font-style="normal" 
>
<text fill="#212121" fill-opacity="1" stroke="none" xml:space="preserve" x="0" y="0" font-family="Helvetica" font-size="13" font-weight="400" font-style="normal" 
 >0.5</text>
</g>

<g fill="#212121" fill-opacity="1" stroke="#212121" stroke-opacity="1" stroke-width="1" stroke-linecap="square" stroke-linejoin="bevel" transform="matrix(0.749297,0,0,0.749463,14.9873,165.351)"
font-family="Helvetica" font-size="13" font-weight="400" font-style="normal" 
>
<text fill="#212121" fill-opacity="1" stroke="none" xml:space="preserve" x="0" y="0" font-family="Helvetica" font-size="13" font-weight="400" font-style="normal" 
 >0.6</text>
</g>

<g fill="#212121" fill-opacity="1" stroke="#212121" stroke-opacity="1" stroke-width="1" stroke-linecap="square" stroke-linejoin="bevel" transform="matrix(0.749297,0,0,0.749463,14.9873,115.793)"
font-family="Helvetica" font-size="13" font-weight="400" font-style="normal" 
>
<text fill="#212121" fill-opacity="1" stroke="none" xml:space="preserve" x="0" y="0" font-family="Helvetica" font-size="13" font-weight="400" font-style="normal" 
 >0.7</text>
</g>

<g fill="#212121" fill-opacity="1" stroke="#212121" stroke-opacity="1" stroke-width="1" stroke-linecap="square" stroke-linejoin="bevel" transform="matrix(0.749297,0,0,0.749463,14.9873,66.2349)"
font-family="Helvetica" font-size="13" font-weight="400" font-style="normal" 
>
<text fill="#212121" fill-opacity="1" stroke="none" xml:space="preserve" x="0" y="0" font-family="Helvetica" font-size="13" font-weight="400" font-style="normal" 
 >0.8</text>
</g>

<g fill="#212121" fill-opacity="1" stroke="#212121" stroke-opacity="1" stroke-width="1" stroke-linecap="square" stroke-linejoin="bevel" transform="matrix(0.749297,0,0,0.749463,14.9873,16.6766)"
font-family="Helvetica" font-size="13" font-weight="400" font-style="normal" 
>
<text fill="#212121" fill-opacity="1" stroke="none" xml:space="preserve" x="0" y="0" font-family="Helvetica" font-size="13" font-weight="400" font-style="normal" 
 >0.9</text>
</g>

<g fill="#212121" fill-opacity="1" stroke="#212121" stroke-opacity="1" stroke-width="1" stroke-linecap="square" stroke-linejoin="bevel" transform="matrix(0.749297,0,0,0.749463,309.336,8.99463)"
font-family="Helvetica" font-size="14" font-weight="400" font-style="normal" 
>
<text fill="#212121" fill-opacity="1" stroke="none" xml:space="preserve" x="0" y="0" font-family="Helvetica" font-size="14" font-weight="400" font-style="normal" 
 >Layer5: p=0.03</text>
</g>

<g fill="none" stroke="#1171be" stroke-opacity="1" stroke-width="0.666667" stroke-linecap="butt" stroke-linejoin="miter" stroke-miterlimit="2" transform="matrix(0.749297,0,0,0.749463,-72.4306,-23.4197)"
font-family="Helvetica" font-size="14" font-weight="400" font-style="normal" 
>
<path vector-effect="none" fill-rule="evenodd" d="M700.667,269.417 C700.667,267.208 698.876,265.417 696.667,265.417 C694.458,265.417 692.667,267.208 692.667,269.417 C692.667,271.626 694.458,273.417 696.667,273.417 C698.876,273.417 700.667,271.626 700.667,269.417 "/>
</g>

<g fill="none" stroke="#1171be" stroke-opacity="1" stroke-width="0.666667" stroke-linecap="butt" stroke-linejoin="miter" stroke-miterlimit="2" transform="matrix(0.749297,0,0,0.749463,-72.4306,-23.4197)"
font-family="Helvetica" font-size="14" font-weight="400" font-style="normal" 
>
<path vector-effect="none" fill-rule="evenodd" d="M899.967,93.0833 C899.967,90.8742 898.176,89.0833 895.967,89.0833 C893.758,89.0833 891.967,90.8742 891.967,93.0833 C891.967,95.2925 893.758,97.0833 895.967,97.0833 C898.176,97.0833 899.967,95.2925 899.967,93.0833 "/>
</g>

<g fill="none" stroke="#1171be" stroke-opacity="1" stroke-width="0.666667" stroke-linecap="butt" stroke-linejoin="miter" stroke-miterlimit="2" transform="matrix(0.749297,0,0,0.749463,-72.4306,-23.4197)"
font-family="Helvetica" font-size="14" font-weight="400" font-style="normal" 
>
<path vector-effect="none" fill-rule="evenodd" d="M896.252,93.0833 C896.252,90.8742 894.461,89.0833 892.252,89.0833 C890.043,89.0833 888.252,90.8742 888.252,93.0833 C888.252,95.2925 890.043,97.0833 892.252,97.0833 C894.461,97.0833 896.252,95.2925 896.252,93.0833 "/>
</g>

<g fill="none" stroke="#1171be" stroke-opacity="1" stroke-width="0.666667" stroke-linecap="butt" stroke-linejoin="miter" stroke-miterlimit="2" transform="matrix(0.749297,0,0,0.749463,-72.4306,-23.4197)"
font-family="Helvetica" font-size="14" font-weight="400" font-style="normal" 
>
<path vector-effect="none" fill-rule="evenodd" d="M780.19,489.833 C780.19,487.624 778.4,485.833 776.19,485.833 C773.981,485.833 772.19,487.624 772.19,489.833 C772.19,492.042 773.981,493.833 776.19,493.833 C778.4,493.833 780.19,492.042 780.19,489.833 "/>
</g>

<g fill="none" stroke="#1171be" stroke-opacity="1" stroke-width="0.666667" stroke-linecap="butt" stroke-linejoin="miter" stroke-miterlimit="2" transform="matrix(0.749297,0,0,0.749463,-72.4306,-23.4197)"
font-family="Helvetica" font-size="14" font-weight="400" font-style="normal" 
>
<path vector-effect="none" fill-rule="evenodd" d="M628.058,335.542 C628.058,333.333 626.267,331.542 624.058,331.542 C621.849,331.542 620.058,333.333 620.058,335.542 C620.058,337.751 621.849,339.542 624.058,339.542 C626.267,339.542 628.058,337.751 628.058,335.542 "/>
</g>

<g fill="none" stroke="#1171be" stroke-opacity="1" stroke-width="0.666667" stroke-linecap="butt" stroke-linejoin="miter" stroke-miterlimit="2" transform="matrix(0.749297,0,0,0.749463,-72.4306,-23.4197)"
font-family="Helvetica" font-size="14" font-weight="400" font-style="normal" 
>
<path vector-effect="none" fill-rule="evenodd" d="M144,578 C144,575.791 142.209,574 140,574 C137.791,574 136,575.791 136,578 C136,580.209 137.791,582 140,582 C142.209,582 144,580.209 144,578 "/>
</g>

<g fill="none" stroke="#1171be" stroke-opacity="1" stroke-width="0.666667" stroke-linecap="butt" stroke-linejoin="miter" stroke-miterlimit="2" transform="matrix(0.749297,0,0,0.749463,-72.4306,-23.4197)"
font-family="Helvetica" font-size="14" font-weight="400" font-style="normal" 
>
<path vector-effect="none" fill-rule="evenodd" d="M144,357.583 C144,355.374 142.209,353.583 140,353.583 C137.791,353.583 136,355.374 136,357.583 C136,359.792 137.791,361.583 140,361.583 C142.209,361.583 144,359.792 144,357.583 "/>
</g>

<g fill="none" stroke="#1171be" stroke-opacity="1" stroke-width="0.666667" stroke-linecap="butt" stroke-linejoin="miter" stroke-miterlimit="2" transform="matrix(0.749297,0,0,0.749463,-72.4306,-23.4197)"
font-family="Helvetica" font-size="14" font-weight="400" font-style="normal" 
>
<path vector-effect="none" fill-rule="evenodd" d="M953.697,93.0833 C953.697,90.8742 951.906,89.0833 949.697,89.0833 C947.488,89.0833 945.697,90.8742 945.697,93.0833 C945.697,95.2925 947.488,97.0833 949.697,97.0833 C951.906,97.0833 953.697,95.2925 953.697,93.0833 "/>
</g>

<g fill="none" stroke="#1171be" stroke-opacity="1" stroke-width="0.666667" stroke-linecap="butt" stroke-linejoin="miter" stroke-miterlimit="2" transform="matrix(0.749297,0,0,0.749463,-72.4306,-23.4197)"
font-family="Helvetica" font-size="14" font-weight="400" font-style="normal" 
>
<path vector-effect="none" fill-rule="evenodd" d="M144,313.5 C144,311.291 142.209,309.5 140,309.5 C137.791,309.5 136,311.291 136,313.5 C136,315.709 137.791,317.5 140,317.5 C142.209,317.5 144,315.709 144,313.5 "/>
</g>

<g fill="none" stroke="#1171be" stroke-opacity="1" stroke-width="0.666667" stroke-linecap="butt" stroke-linejoin="miter" stroke-miterlimit="2" transform="matrix(0.749297,0,0,0.749463,-72.4306,-23.4197)"
font-family="Helvetica" font-size="14" font-weight="400" font-style="normal" 
>
<path vector-effect="none" fill-rule="evenodd" d="M366.667,445.75 C366.667,443.541 364.876,441.75 362.667,441.75 C360.458,441.75 358.667,443.541 358.667,445.75 C358.667,447.959 360.458,449.75 362.667,449.75 C364.876,449.75 366.667,447.959 366.667,445.75 "/>
</g>
</g>
</svg>
