<?xml version="1.0" encoding="UTF-8" standalone="no"?>
<svg width="54.3278mm" height="27.1639mm"
 viewBox="0 0 154 77"
 xmlns="http://www.w3.org/2000/svg" xmlns:xlink="http://www.w3.org/1999/xlink"  version="1.2" baseProfile="tiny">
<title>Qt SVG Document</title>
<desc>MATLAB, The MathWorks, Inc. Version 25.1.0.2943329 R2025a</desc>
<defs>
</defs>
<g fill="none" stroke="black" stroke-width="1" fill-rule="evenodd" stroke-linecap="square" stroke-linejoin="bevel" >

<g fill="#ffffff" fill-opacity="1" stroke="none" transform="matrix(0.75,0,0,0.75,0,0)"
font-family="SimSun" font-size="9" font-weight="400" font-style="normal" 
>
<path vector-effect="none" fill-rule="evenodd" d="M0,0 L206,0 L206,104 L0,104 L0,0"/>
</g>

<g fill="#ffffff" fill-opacity="1" stroke="none" transform="matrix(7.5e-05,0,0,7.5e-05,0,0)"
font-family="SimSun" font-size="9" font-weight="400" font-style="normal" 
>
<path vector-effect="none" fill-rule="evenodd" d="M0,0 L0,1.02e+06 L1.02e+06,1.02e+06 L1.02e+06,0 L0,0"/>
</g>

<g fill="#1171be" fill-opacity="1" stroke="none" transform="matrix(7.5e-05,0,0,7.5e-05,0,0)"
font-family="SimSun" font-size="9" font-weight="400" font-style="normal" 
>
<path vector-effect="none" fill-rule="evenodd" d="M437911,555036 L437464,554312 L437025,553585 L436593,552853 L436168,552117 L435750,551376 L435340,550632 L434938,549883 L434543,549131 L434155,548374 L433775,547614 L433403,546850 L433038,546082 L432681,545310 L432332,544536 L431990,543757 L431657,542975 L431331,542190 L431013,541402 L430703,540611 L430401,539816 L430107,539019 L429820,538218 L429542,537415 L429272,536609 L429010,535801 L428756,534989 L428510,534176 L428272,533360 L428043,532541 L427822,531721 L427609,530898 L427404,530073 L427207,529246 L427019,528417 L426839,527586 L426667,526754 L426504,525920 L426349,525084 L426202,524247 L426064,523408 L425934,522568 L425812,521727 L425699,520884 L425595,520041 L425498,519196 L425411,518351 L425331,517504 L425261,516657 L425198,515810 L425144,514961 L425099,514113 L425062,513263 L425034,512414 L425014,511564 L425003,510714 L425000,509864 L425005,509014 L425019,508164 L425042,507315 L425073,506465 L425113,505616 L425161,504767 L425217,503919 L425282,503072 L425356,502225 L425438,501379 L425528,500534 L425627,499690 L425734,498846 L425850,498004 L425974,497163 L426107,496324 L426248,495486 L426397,494649 L426555,493814 L426721,492980 L426895,492148 L427078,491318 L427269,490490 L427468,489663 L427676,488839 L427891,488017 L428115,487197 L428347,486379 L428588,485564 L428836,484751 L429093,483941 L429357,483133 L429630,482328 L429911,481526 L430199,480726 L430496,479930 L430801,479136 L431113,478346 L431434,477558 L431762,476774 L432098,475994 L432442,475216 L432794,474442 L433153,473672 L433520,472906 L433895,472143 L434278,471384 L434668,470628 L435065,469877 L435470,469130 L435882,468386 L436302,467647 L436729,466912 L437164,466182 L437606,465456 L438055,464734 L438511,464017 L438974,463304 L439445,462596 L439923,461893 L440407,461195 L440899,460501 L441397,459813 L441902,459129 L442414,458451 L442933,457778 L443459,457110 L443991,456447 L444530,455790 L445075,455138 L445627,454491 L446185,453850 L446750,453215 L447321,452585 L447898,451961 L448482,451343 L449071,450731 L449667,450125 L450269,449524 L450877,448930 L451490,448342 L452110,447760 L452735,447184 L453366,446615 L454003,446051 L454645,445495 L455293,444944 L455946,444401 L456605,443863 L457269,443333 L457938,442809 L458613,442291 L459292,441781 L459977,441277 L460667,440781 L461361,440291 L462061,439808 L462765,439332 L463474,438863 L464188,438401 L464906,437947 L465629,437500 L466356,437059 L467088,436627 L467823,436201 L468564,435783 L469308,435373 L470056,434969 L470808,434574 L471565,434186 L472325,433805 L473088,433432 L473856,433067 L474627,432709 L475402,432359 L476180,432017 L476961,431683 L477746,431357 L478534,431038 L479325,430727 L480120,430424 L480917,430130 L481717,429843 L482520,429564 L483326,429293 L484134,429031 L484945,428776 L485758,428529 L486574,428291 L487393,428061 L488213,427839 L489036,427625 L489861,427420 L490687,427222 L491516,427033 L492347,426853 L493179,426680 L494013,426516 L494849,426361 L495686,426213 L496524,426074 L497364,425944 L498205,425822 L499048,425708 L499891,425603 L500736,425506 L501581,425417 L502427,425337 L503274,425266 L504122,425203 L504970,425148 L505819,425102 L506668,425065 L507518,425036 L508367,425015 L509217,425003 L510067,425000 L510917,425004 L511767,425018 L512617,425040 L513466,425070 L514315,425109 L515164,425157 L516012,425212 L516860,425277 L517707,425350 L518553,425431 L519398,425521 L520242,425619 L521086,425726 L521928,425841 L522769,425964 L523608,426096 L524447,426236 L525284,426385 L526119,426542 L526953,426707 L527785,426881 L528615,427063 L529444,427253 L530270,427452 L531094,427659 L531917,427874 L532737,428097 L533555,428329 L534370,428568 L535183,428816 L535994,429072 L536802,429336 L537607,429608 L538410,429888 L539209,430176 L540006,430472 L540800,430776 L541591,431088 L542378,431408 L543162,431736 L543943,432071 L544721,432415 L545495,432766 L546266,433124 L547033,433491 L547796,433865 L548555,434247 L549311,434636 L550062,435033 L550810,435437 L551554,435849 L552293,436269 L553028,436695 L553759,437129 L554486,437570 L555208,438019 L555925,438474 L556638,438937 L557346,439407 L558050,439884 L558749,440368 L559443,440859 L560132,441357 L560815,441862 L561494,442373 L562168,442892 L562836,443417 L563500,443948 L564157,444487 L564810,445032 L565457,445583 L566098,446141 L566734,446705 L567364,447275 L567988,447852 L568607,448435 L569220,449024 L569826,449619 L570427,450221 L571022,450828 L571611,451441 L572193,452060 L572769,452685 L573339,453316 L573903,453952 L574460,454594 L575011,455241 L575555,455894 L576093,456552 L576624,457216 L577149,457885 L577667,458559 L578178,459238 L578682,459922 L579179,460612 L579670,461306 L580153,462005 L580629,462709 L581099,463417 L581561,464131 L582016,464849 L582464,465571 L582905,466298 L583338,467029 L583764,467765 L584183,468504 L584594,469248 L584998,469996 L585394,470748 L585783,471504 L586164,472264 L586538,473027 L586903,473795 L587262,474566 L587612,475340 L587955,476118 L588290,476899 L588617,477683 L588936,478471 L589247,479262 L589551,480056 L589846,480853 L590134,481653 L590413,482456 L590685,483261 L590948,484070 L591203,484880 L591450,485694 L591689,486509 L591920,487327 L592143,488148 L592357,488970 L592563,489795 L592761,490621 L592951,491450 L593132,492280 L593305,493113 L593470,493947 L593626,494782 L593774,495619 L593914,496457 L594045,497297 L594168,498138 L594282,498981 L594388,499824 L594486,500668 L594575,501514 L594656,502360 L594728,503207 L594791,504054 L594847,504903 L594893,505751 L594932,506600 L594961,507450 L594983,508300 L594995,509150 L595000,510000 L935000,510000 L934996,508238 L934957,503988 L934876,499739 L934752,495491 L934585,491244 L934377,486999 L934126,482756 L933832,478517 L933496,474280 L933117,470047 L932697,465818 L932234,461593 L931729,457373 L931181,453159 L930592,448950 L929960,444747 L929287,440551 L928571,436361 L927814,432179 L927015,428005 L926174,423839 L925292,419682 L924368,415533 L923403,411395 L922396,407265 L921348,403147 L920259,399039 L919129,394942 L917958,390856 L916746,386783 L915493,382721 L914200,378673 L912867,374638 L911493,370616 L910079,366608 L908625,362614 L907132,358635 L905598,354672 L904025,350724 L902413,346791 L900761,342875 L899070,338976 L897341,335094 L895572,331230 L893765,327383 L891920,323554 L890036,319745 L888115,315954 L886156,312182 L884159,308431 L882124,304699 L880053,300988 L877944,297298 L875799,293630 L873617,289983 L871398,286357 L869144,282755 L866854,279175 L864528,275618 L862166,272084 L859769,268574 L857338,265089 L854871,261628 L852370,258192 L849835,254781 L847266,251395 L844663,248035 L842027,244702 L839357,241395 L836655,238115 L833920,234862 L831152,231636 L828352,228439 L825521,225270 L822658,222129 L819764,219016 L816838,215933 L813883,212880 L810896,209856 L807880,206862 L804834,203898 L801758,200965 L798653,198063 L795519,195192 L792357,192353 L789166,189545 L785948,186770 L782702,184026 L779429,181316 L776128,178638 L772801,175993 L769448,173382 L766069,170804 L762664,168261 L759235,165751 L755780,163276 L752300,160836 L748797,158430 L745269,156060 L741718,153725 L738144,151426 L734546,149162 L730927,146935 L727285,144744 L723622,142589 L719937,140471 L716232,138390 L712505,136347 L708759,134340 L704992,132372 L701206,130441 L697401,128547 L693577,126693 L689735,124876 L685875,123098 L681997,121359 L678102,119658 L674190,117997 L670262,116374 L666318,114791 L662358,113248 L658383,111744 L654393,110280 L650389,108856 L646371,107473 L642338,106129 L638293,104826 L634235,103563 L630165,102341 L626082,101160 L621988,100020 L617883,98920 L613767,97862 L609640,96845 L605504,95869 L601358,94935 L597202,94042 L593039,93191 L588866,92381 L584686,91613 L580499,90888 L576304,90204 L572103,89561 L567896,88961 L563682,88404 L559464,87888 L555240,87414 L551012,86983 L546780,86594 L542544,86247 L538305,85943 L534063,85681 L529819,85462 L525573,85285 L521325,85150 L517076,85058 L512826,85009 L508576,85002 L504326,85037 L500077,85115 L495829,85236 L491582,85399 L487337,85604 L483094,85852 L478854,86142 L474617,86475 L470384,86850 L466154,87267 L461929,87727 L457709,88229 L453494,88773 L449285,89359 L445081,89987 L440884,90657 L436695,91369 L432512,92123 L428337,92919 L424171,93756 L420012,94635 L415863,95556 L411724,96518 L407594,97522 L403474,98566 L399365,99652 L395268,100779 L391181,101947 L387107,103155 L383044,104404 L378995,105694 L374958,107024 L370935,108395 L366926,109806 L362932,111256 L358952,112747 L354987,114277 L351037,115847 L347104,117457 L343187,119105 L339286,120793 L335403,122519 L331537,124285 L327688,126088 L323859,127931 L320047,129811 L316255,131730 L312482,133686 L308729,135680 L304996,137711 L301283,139780 L297591,141886 L293921,144028 L290272,146207 L286645,148423 L283041,150674 L279459,152962 L275900,155285 L272365,157644 L268853,160038 L265366,162466 L261903,164930 L258464,167428 L255051,169961 L251664,172527 L248302,175127 L244966,177761 L241657,180428 L238375,183128 L235120,185860 L231892,188625 L228693,191422 L225521,194251 L222378,197112 L219263,200004 L216178,202926 L213122,205880 L210096,208864 L207099,211878 L204133,214922 L201198,217995 L198293,221098 L195420,224229 L192578,227389 L189768,230578 L186990,233794 L184244,237038 L181530,240309 L178850,243607 L176203,246932 L173589,250283 L171008,253660 L168462,257062 L165950,260490 L163472,263943 L161029,267421 L158620,270923 L156247,274448 L153909,277998 L151607,281570 L149341,285165 L147111,288783 L144917,292423 L142759,296085 L140639,299768 L138555,303472 L136508,307196 L134499,310941 L132527,314706 L130593,318491 L128697,322294 L126839,326117 L125019,329957 L123238,333816 L121496,337693 L119792,341586 L118127,345496 L116502,349423 L114916,353366 L113369,357325 L111862,361299 L110395,365288 L108968,369291 L107581,373308 L106234,377339 L104928,381383 L103662,385440 L102437,389510 L101252,393591 L100109,397685 L99006,401789 L97945,405904 L96924,410030 L95945,414166 L95008,418311 L94112,422465 L93257,426629 L92444,430800 L91673,434980 L90944,439167 L90256,443361 L89611,447561 L89008,451768 L88446,455981 L87927,460199 L87450,464422 L87016,468650 L86623,472882 L86273,477117 L85966,481356 L85701,485598 L85478,489842 L85297,494088 L85160,498336 L85064,502585 L85011,506834 L85001,511084 L85033,515334 L85108,519584 L85225,523832 L85384,528079 L85586,532324 L85831,536567 L86118,540807 L86447,545045 L86818,549278 L87232,553508 L87689,557733 L88187,561954 L88728,566170 L89310,570379 L89935,574583 L90602,578781 L91311,582971 L92062,587154 L92854,591330 L93688,595497 L94564,599656 L95481,603806 L96440,607946 L97440,612077 L98481,616197 L99564,620307 L100688,624406 L101852,628493 L103057,632568 L104303,636632 L105590,640682 L106917,644720 L108284,648744 L109692,652754 L111139,656750 L112627,660731 L114154,664697 L115721,668648 L117327,672583 L118972,676501 L120657,680403 L122380,684288 L124143,688155 L125943,692005 L127783,695836 L129660,699649 L131576,703443 L133529,707217 L135520,710972 L137548,714707 L139614,718421 L141717,722114 L143856,725787 L146032,729437 L148245,733066 L150494,736672 L152778,740256 L155099,743816 L157454,747354 L159846,750867 L162272,754357 L164733,757822 L167228,761262 L169758,764677 L172322,768067 L174919,771430 L177550,774768 L180214,778079 L182912,781364 L185642,784621 L188404,787851 L191198,791053 L194025,794227 L196883,797372 L199772,800489 L202693,803577 L205644,806635 L208625,809664 L211637,812662 L214678,815631 L217749,818569 L220850,821476 L223979,824351 L227137,827196 L230323,830009 L233537,832789 L236778,835538 L240047,838254 L243343,840937 L246666,843587 L250015,846203 L253390,848786 L256791,851336 L260217,853850 L263667,856331 L267143,858777 L270643,861188 L274167,863564 L277714,865905 L281285,868210 L284878,870479 L288494,872712 L292132,874909 L295792,877069 L299474,879193 L303176,881280 L306899,883329 L310642,885342 L314406,887317 L318189,889254 L321991,891153 L325812,893014 L329651,894836 L333508,896621 L337383,898366 L341275,900073 L345185,901741 L349110,903369 L353052,904958 L357009,906508 L360982,908018 L364969,909488 L368971,910919 L372988,912309 L377017,913659 L381061,914968 L385117,916237 L389185,917466 L393266,918654 L397358,919801 L401462,920907 L405576,921971 L409701,922995 L413836,923977 L417981,924918 L422134,925818 L426297,926675 L430468,927492 L434646,928266 L438833,928999 L443026,929689 L447226,930338 L451433,930945 L455645,931509 L459863,932032 L464086,932512 L468313,932950 L472545,933346 L476780,933699 L481018,934010 L485260,934279 L489504,934505 L493750,934689 L497998,934830 L502246,934929 L506496,934985 L510746,934999 L514996,934970 L519245,934899 L523494,934785 L527741,934629 L531986,934430 L536229,934189 L540470,933906 L544707,933580 L548941,933212 L553171,932801 L557397,932348 L561618,931853 L565834,931316 L570044,930737 L574249,930115 L578447,929452 L582638,928746 L586821,927999 L590997,927210 L595165,926379 L599325,925506 L603475,924592 L607617,923637 L611748,922640 L615869,921602 L619980,920523 L624080,919402 L628168,918241 L632244,917039 L636309,915796 L640360,914513 L644399,913189 L648424,911825 L652435,910421 L656432,908976 L660414,907492 L664382,905968 L668334,904405 L672270,902802 L676190,901159 L680093,899478 L683979,897757 L687848,895998 L691699,894200 L695532,892364 L699346,890490 L703141,888577 L706917,886627 L710674,884639 L714410,882614 L718126,880551 L721821,878451 L725495,876315 L729147,874141 L732778,871932 L736386,869686 L739971,867404 L743534,865087 L747073,862733 L750588,860345 L754080,857922 L757547,855464 L760989,852971 L764406,850444 L767798,847883 L771163,845288 L774503,842660 L777817,839998 L781103,837303 L784363,834576 L787595,831816 L790799,829024 L793975,826200 L797123,823345 L800242,820458 L803332,817540 L806392,814591 L809424,811612 L812425,808603 L815395,805564 L818336,802495 L821245,799397 L824124,796270 L826971,793115 L829786,789931 L832569,786719 L835320,783480 L838039,780213 L840724,776919 L843377,773599 L845996,770252 L848582,766879 L851134,763480 L853651,760056 L856135,756607 L858584,753134 L860997,749636 L863376,746114 L865720,742568 L868027,739000 L870300,735408 L872536,731794 L874735,728157 L876899,724499 L879025,720819 L881115,717119 L883168,713397 L885183,709655 L887161,705894 L889101,702112 L891003,698312 L892867,694492 L894693,690655 L896480,686799 L898229,682925 L899938,679034 L901609,675126 L903241,671202 L904833,667262 L906386,663306 L907899,659334 L909373,655348 L910806,651347 L912200,647332 L913553,643303 L914866,639261 L916138,635206 L917370,631138 L918561,627058 L919711,622967 L920820,618864 L921888,614751 L922915,610627 L923901,606493 L924845,602349 L925748,598196 L926609,594034 L927428,589864 L928206,585686 L928942,581500 L929636,577307 L930288,573107 L930898,568901 L931466,564689 L931992,560472 L932475,556250 L932917,552023 L933316,547792 L933673,543557 L933987,539318 L934259,535077 L934489,530833 L934676,526587 L934820,522340 L934922,518091 L594984,511618 L594977,511970 L594953,512820 L594920,513669 L594879,514518 L594830,515367 L594772,516215 L594706,517062 L594631,517909 L594547,518755 L594456,519600 L594355,520444 L594247,521287 L594130,522129 L594004,522969 L593870,523809 L593728,524647 L593577,525483 L593418,526318 L593251,527152 L593075,527983 L592891,528813 L592699,529641 L592498,530467 L592290,531291 L592073,532113 L591847,532933 L591614,533750 L591372,534565 L591123,535377 L590865,536187 L590599,536995 L590325,537799 L590043,538601 L589753,539400 L589455,540196 L589149,540989 L588835,541779 L588513,542566 L588184,543349 L587846,544129 L587501,544906 L587148,545679 L586788,546449 L586419,547215 L586043,547978 L585660,548736 L585269,549491 L584870,550241 L584464,550988 L584050,551731 L583629,552469 L583201,553203 L582765,553933 L582322,554659 L581872,555380 L581415,556096 L580950,556808 L580479,557515 L580000,558217 L579514,558915 L579022,559608 L578522,560295 L578016,560978 L577502,561656 L576983,562328 L576456,562995 L575923,563657 L575383,564314 L574836,564965 L574283,565610 L573724,566250 L573158,566885 L572586,567514 L572008,568137 L571424,568754 L570833,569365 L570236,569970 L569634,570570 L569025,571163 L568410,571750 L567790,572331 L567164,572906 L566532,573475 L565894,574037 L565251,574592 L564603,575142 L563948,575684 L563289,576221 L562624,576750 L561954,577273 L561279,577789 L560598,578299 L559913,578801 L559222,579297 L558527,579786 L557826,580268 L557121,580742 L556412,581210 L555697,581670 L554978,582124 L554255,582570 L553527,583009 L552795,583441 L552058,583865 L551317,584282 L550572,584691 L549823,585093 L549071,585488 L548314,585875 L547553,586254 L546789,586626 L546021,586990 L545249,587346 L544474,587695 L543695,588036 L542913,588369 L542128,588694 L541339,589011 L540547,589321 L539753,589622 L538955,589916 L538154,590201 L537351,590479 L536545,590748 L535736,591010 L534925,591263 L534111,591508 L533295,591745 L532476,591974 L531655,592195 L530832,592407 L530007,592611 L529180,592807 L528351,592995 L527520,593174 L526687,593345 L525853,593508 L525017,593662 L524180,593808 L523341,593946 L522501,594075 L521660,594196 L520817,594308 L519973,594412 L519129,594508 L518283,594595 L517437,594674 L516590,594744 L515742,594805 L514894,594859 L514045,594903 L513196,594939 L512346,594967 L511496,594986 L510646,594997 L509796,594999 L508946,594993 L508097,594978 L507247,594955 L506398,594923 L505548,594883 L504700,594834 L503852,594777 L503004,594711 L502158,594637 L501312,594554 L500467,594463 L499622,594364 L498779,594256 L497937,594139 L497097,594015 L496257,593881 L495419,593740 L494582,593590 L493747,593431 L492914,593265 L492082,593090 L491252,592906 L490424,592715 L489598,592515 L488773,592307 L487951,592090 L487132,591866 L486314,591633 L485499,591392 L484686,591143 L483876,590886 L483069,590620 L482264,590347 L481462,590066 L480663,589776 L479866,589479 L479073,589174 L478283,588860 L477496,588539 L476712,588210 L475932,587874 L475155,587529 L474381,587177 L473611,586817 L472845,586449 L472082,586074 L471323,585691 L470568,585300 L469817,584902 L469070,584496 L468327,584083 L467589,583663 L466854,583235 L466124,582800 L465398,582358 L464677,581908 L463960,581451 L463248,580987 L462540,580516 L461837,580038 L461139,579553 L460446,579061 L459758,578562 L459075,578056 L458397,577544 L457724,577024 L457057,576498 L456394,575965 L455737,575426 L455086,574880 L454440,574328 L453799,573769 L453164,573204 L452535,572632 L451912,572054 L451294,571471 L450682,570880 L450077,570284 L449477,569682 L448883,569074 L448295,568460 L447714,567840 L447138,567214 L446569,566583 L446007,565945 L445451,565303 L444901,564654 L444358,564001 L443821,563342 L443291,562677 L442767,562007 L442251,561333 L441741,560652 L441237,559967 L440741,559277 L440252,558582 L439770,557882 L439294,557178 L438826,556468 L438365,555754 L437911,555036"/>
</g>

<g fill="none" stroke="#000000" stroke-opacity="1" stroke-width="2.66667" stroke-linecap="square" stroke-linejoin="miter" stroke-miterlimit="2" transform="matrix(0.75,0,0,0.75,0,0)"
font-family="SimSun" font-size="9" font-weight="400" font-style="normal" 
>
<polyline fill="none" vector-effect="none" points="59.5,51 59.4996,50.915 59.4983,50.83 59.4962,50.745 59.4932,50.6601 59.4894,50.5752 59.4847,50.4903 59.4792,50.4055 59.4728,50.3207 59.4656,50.236 59.4575,50.1514 59.4486,50.0669 59.4389,49.9824 59.4283,49.8981 59.4168,49.8139 59.4046,49.7298 59.3914,49.6458 59.3775,49.562 59.3627,49.4782 59.347,49.3947 59.3306,49.3113 59.3133,49.2281 59.2951,49.1451 59.2762,49.0622 59.2564,48.9795 59.2358,48.8971 59.2143,48.8148 59.1921,48.7328 59.169,48.651 59.1451,48.5694 59.1204,48.4881 59.0948,48.407 59.0685,48.3262 59.0414,48.2456 59.0134,48.1654 58.9847,48.0854 58.9551,48.0057 58.9248,47.9263 58.8937,47.8472 58.8617,47.7684 58.829,47.6899 58.7955,47.6118 58.7613,47.534 58.7262,47.4566 58.6904,47.3795 58.6538,47.3028 58.6164,47.2264 58.5783,47.1505 58.5395,47.0749 58.4998,46.9997 58.4595,46.9249 58.4183,46.8505 58.3765,46.7765 58.3339,46.703 58.2905,46.6298 58.2465,46.5572 58.2017,46.4849 58.1562,46.4131 58.1099,46.3418 58.063,46.2709 58.0154,46.2005 57.967,46.1306 57.918,46.0612 57.8682,45.9923 57.8178,45.9238 57.7667,45.8559 57.7149,45.7885 57.6625,45.7216 57.6094,45.6553 57.5556,45.5894 57.5012,45.5242 57.4461,45.4594 57.3904,45.3952 57.334,45.3316 57.277,45.2686 57.2194,45.2061 57.1611,45.1442 57.1022,45.0829 57.0428,45.0221 56.9827,44.962 56.922,44.9025 56.8607,44.8436 56.7989,44.7853 56.7364,44.7276 56.6734,44.6705 56.6099,44.6141 56.5457,44.5583 56.481,44.5032 56.4158,44.4487 56.35,44.3949 56.2837,44.3417 56.2168,44.2892 56.1495,44.2374 56.0816,44.1862 56.0132,44.1358 55.9443,44.086 55.8749,44.0369 55.805,43.9885 55.7347,43.9408 55.6639,43.8938 55.5926,43.8475 55.5208,43.8019 55.4486,43.7571 55.376,43.713 55.3029,43.6696 55.2294,43.6269 55.1554,43.585 55.0811,43.5438 55.0063,43.5034 54.9311,43.4637 54.8556,43.4247 54.7796,43.3866 54.7033,43.3491 54.6266,43.3125 54.5496,43.2766 54.4721,43.2415 54.3944,43.2072 54.3163,43.1736 54.2379,43.1409 54.1591,43.1089 54.08,43.0777 54.0007,43.0473 53.921,43.0177 53.841,42.9888 53.7608,42.9608 53.6802,42.9336 53.5994,42.9072 53.5184,42.8816 53.4371,42.8569 53.3555,42.8329 53.2737,42.8098 53.1917,42.7874 53.1095,42.7659 53.027,42.7452 52.9444,42.7254 52.8616,42.7064 52.7785,42.6882 52.6953,42.6708 52.6119,42.6542 52.5284,42.6385 52.4447,42.6237 52.3609,42.6096 52.2769,42.5965 52.1928,42.5841 52.1086,42.5726 52.0243,42.5619 51.9398,42.5521 51.8553,42.5431 51.7707,42.535 51.686,42.5277 51.6013,42.5213 51.5164,42.5157 51.4316,42.511 51.3467,42.5071 51.2617,42.504 51.1768,42.5018 51.0918,42.5005 51.0068,42.5 50.9218,42.5004 50.8368,42.5016 50.7518,42.5036 50.6669,42.5065 50.5819,42.5103 50.4971,42.5149 50.4122,42.5203 50.3275,42.5266 50.2428,42.5338 50.1581,42.5418 50.0736,42.5506 49.9892,42.5603 49.9048,42.5709 49.8206,42.5822 49.7365,42.5944 49.6525,42.6075 49.5686,42.6214 49.4849,42.6361 49.4013,42.6517 49.3179,42.6681 49.2347,42.6853 49.1517,42.7034 49.0688,42.7223 48.9861,42.742 48.9036,42.7626 48.8214,42.7839 48.7393,42.8061 48.6575,42.8292 48.5759,42.853 48.4945,42.8776 48.4134,42.9031 48.3326,42.9294 48.252,42.9564 48.1717,42.9843 48.0917,43.013 48.012,43.0425 47.9326,43.0728 47.8535,43.1038 47.7747,43.1357 47.6962,43.1683 47.618,43.2018 47.5402,43.236 47.4628,43.271 47.3856,43.3067 47.3089,43.3433 47.2325,43.3806 47.1565,43.4186 47.0809,43.4574 47.0057,43.497 46.9308,43.5373 46.8564,43.5784 46.7824,43.6202 46.7088,43.6627 46.6357,43.706 46.5629,43.75 46.4907,43.7947 46.4188,43.8402 46.3475,43.8864 46.2766,43.9332 46.2061,43.9808 46.1362,44.0291 46.0667,44.0781 45.9977,44.1278 45.9293,44.1781 45.8613,44.2292 45.7939,44.2809 45.7269,44.3333 45.6605,44.3864 45.5947,44.4401 45.5293,44.4945 45.4645,44.5495 45.4003,44.6052 45.3367,44.6615 45.2736,44.7185 45.211,44.776 45.1491,44.8342 45.0877,44.8931 45.0269,44.9525 44.9668,45.0125 44.9072,45.0731 44.8482,45.1344 44.7899,45.1962 44.7322,45.2586 44.6751,45.3215 44.6186,45.3851 44.5628,45.4492 44.5076,45.5138 44.453,45.579 44.3992,45.6447 44.3459,45.711 44.2934,45.7778 44.2415,45.8451 44.1903,45.913 44.1398,45.9813 44.0899,46.0502 44.0408,46.1195 43.9923,46.1894 43.9445,46.2597 43.8975,46.3305 43.8512,46.4017 43.8055,46.4735 43.7606,46.5456 43.7164,46.6182 43.673,46.6913 43.6303,46.7648 43.5883,46.8387 43.547,46.913 43.5065,46.9877 43.4668,47.0629 43.4278,47.1384 43.3896,47.2143 43.3521,47.2906 43.3154,47.3673 43.2794,47.4443 43.2443,47.5217 43.2099,47.5994 43.1763,47.6775 43.1434,47.7559 43.1114,47.8346 43.0801,47.9137 43.0497,47.993 43.02,48.0727 42.9911,48.1526 42.963,48.2328 42.9358,48.3133 42.9093,48.3941 42.8837,48.4751 42.8588,48.5564 42.8348,48.638 42.8116,48.7197 42.7892,48.8017 42.7676,48.884 42.7469,48.9664 42.7269,49.049 42.7078,49.1318 42.6896,49.2149 42.6721,49.298 42.6555,49.3814 42.6398,49.4649 42.6248,49.5486 42.6107,49.6324 42.5975,49.7164 42.5851,49.8005 42.5735,49.8847 42.5628,49.969 42.5529,50.0534 42.5438,50.1379 42.5356,50.2225 42.5283,50.3072 42.5218,50.392 42.5161,50.4768 42.5113,50.5617 42.5074,50.6466 42.5042,50.7315 42.502,50.8165 42.5006,50.9015 42.5,50.9865 42.5003,51.0715 42.5014,51.1565 42.5034,51.2414 42.5063,51.3264 42.51,51.4113 42.5145,51.4962 42.5199,51.581 42.5261,51.6658 42.5332,51.7505 42.5411,51.8351 42.5499,51.9197 42.5595,52.0041 42.57,52.0885 42.5813,52.1727 42.5934,52.2568 42.6064,52.3408 42.6203,52.4247 42.6349,52.5084 42.6504,52.592 42.6668,52.6754 42.6839,52.7587 42.7019,52.8417 42.7208,52.9246 42.7404,53.0073 42.7609,53.0898 42.7822,53.1721 42.8043,53.2542 42.8273,53.336 42.8511,53.4176 42.8756,53.499 42.901,53.5801 42.9272,53.661 42.9543,53.7416 42.9821,53.8219 43.0107,53.9019 43.0401,53.9817 43.0703,54.0611 43.1013,54.1402 43.1331,54.2191 43.1657,54.2976 43.1991,54.3758 43.2332,54.4536 43.2682,54.5311 43.3039,54.6082 43.3403,54.685 43.3776,54.7614 43.4155,54.8375 43.4543,54.9131 43.4938,54.9884 43.5341,55.0632 43.5751,55.1377 43.6168,55.2117 43.6593,55.2853 43.7025,55.3585 43.7465,55.4313 43.7911,55.5036 43.8365,55.5755 43.8827,55.6469 43.9295,55.7178 43.977,55.7883 44.0252,55.8583 44.0742,55.9278 44.1238,55.9968 44.1741,56.0653 44.2251,56.1333 44.2768,56.2008 44.3291,56.2678 44.3821,56.3342 44.4358,56.4001 44.4901,56.4655 44.5451,56.5303 44.6007,56.5946 44.657,56.6583 44.7139,56.7214 44.7714,56.784 44.8296,56.846 44.8883,56.9074 44.9477,56.9682 45.0077,57.0285 45.0683,57.0881 45.1295,57.1471 45.1912,57.2055 45.2536,57.2633 45.3165,57.3204 45.38,57.3769 45.444,57.4328 45.5086,57.4881 45.5738,57.5426 45.6395,57.5966 45.7057,57.6499 45.7725,57.7025 45.8398,57.7544 45.9076,57.8057 45.9759,57.8563 46.0447,57.9061 46.114,57.9554 46.1838,58.0039 46.2541,58.0517 46.3248,58.0988 46.396,58.1452 46.4677,58.1909 46.5399,58.2358 46.6124,58.2801 46.6855,58.3236 46.7589,58.3664 46.8328,58.4084 46.9071,58.4497 46.9818,58.4902 47.0569,58.5301 47.1324,58.5691 47.2083,58.6074 47.2845,58.6449 47.3612,58.6817 47.4382,58.7177 47.5155,58.753 47.5932,58.7874 47.6712,58.8211 47.7496,58.854 47.8283,58.8861 47.9073,58.9174 47.9867,58.9479 48.0663,58.9777 48.1462,59.0066 48.2264,59.0348 48.3069,59.0621 48.3877,59.0886 48.4687,59.1143 48.55,59.1392 48.6315,59.1633 48.7132,59.1866 48.7952,59.2091 48.8774,59.2307 48.9598,59.2515 49.0424,59.2715 49.1252,59.2907 49.2082,59.309 49.2914,59.3265 49.3748,59.3432 49.4583,59.359 49.5419,59.374 49.6258,59.3882 49.7097,59.4015 49.7938,59.414 49.878,59.4256 49.9623,59.4364 50.0467,59.4464 50.1312,59.4555 50.2158,59.4637 50.3005,59.4712 50.3852,59.4777 50.47,59.4835 50.5549,59.4883 50.6398,59.4924 50.7247,59.4955 50.8097,59.4979 50.8947,59.4993 50.9797,59.5 51.0647,59.4998 51.1497,59.4987 51.2347,59.4968 51.3196,59.494 51.4045,59.4904 51.4894,59.4859 51.5743,59.4806 51.659,59.4744 51.7437,59.4674 51.8284,59.4595 51.9129,59.4508 51.9974,59.4413 52.0818,59.4309 52.166,59.4196 52.2501,59.4076 52.3342,59.3946 52.418,59.3809 52.5018,59.3663 52.5854,59.3508 52.6688,59.3346 52.752,59.3175 52.8351,59.2995 52.918,59.2808 53.0007,59.2612 53.0833,59.2408 53.1656,59.2195 53.2476,59.1974 53.3295,59.1746 53.4111,59.1509 53.4925,59.1263 53.5737,59.101 53.6545,59.0749 53.7351,59.0479 53.8155,59.0202 53.8955,58.9916 53.9753,58.9623 54.0548,58.9321 54.134,58.9012 54.2128,58.8694 54.2913,58.8369 54.3695,58.8036 54.4474,58.7695 54.5249,58.7347 54.6021,58.699 54.6789,58.6626 54.7554,58.6254 54.8314,58.5875 54.9071,58.5488 54.9824,58.5094 55.0573,58.4692 55.1318,58.4282 55.2058,58.3865 55.2795,58.3441 55.3527,58.3009 55.4255,58.257 55.4979,58.2124 55.5698,58.1671 55.6412,58.121 55.7122,58.0743 55.7827,58.0268 55.8527,57.9786 55.9223,57.9297 55.9913,57.8802 56.0599,57.8299 56.1279,57.779 56.1954,57.7274 56.2625,57.6751 56.3289,57.6221 56.3949,57.5685 56.4603,57.5142 56.5252,57.4593 56.5895,57.4037 56.6532,57.3475 56.7164,57.2907 56.7791,57.2332 56.8411,57.1751 56.9026,57.1164 56.9634,57.057 57.0237,56.9971 57.0834,56.9366 57.1424,56.8754 57.2009,56.8137 57.2587,56.7514 57.3159,56.6885 57.3725,56.6251 57.4284,56.5611 57.4837,56.4965 57.5383,56.4314 57.5923,56.3658 57.6456,56.2996 57.6983,56.2329 57.7503,56.1656 57.8016,56.0979 57.8522,56.0296 57.9022,55.9608 57.9515,55.8915 58,55.8218 58.0479,55.7515 58.0951,55.6808 58.1415,55.6096 58.1872,55.538 58.2323,55.4659 58.2766,55.3934 58.3201,55.3204 58.363,55.247 58.4051,55.1731 58.4464,55.0989 58.487,55.0242 58.5269,54.9491 58.566,54.8737 58.6044,54.7978 58.642,54.7216 58.6788,54.645 58.7149,54.568 58.7502,54.4907 58.7847,54.413 58.8184,54.335 58.8514,54.2566 58.8836,54.178 58.915,54.099 58.9455,54.0197 58.9753,53.94 59.0043,53.8601 59.0325,53.78 59.0599,53.6995 59.0865,53.6188 59.1123,53.5378 59.1373,53.4565 59.1614,53.375 59.1848,53.2933 59.2073,53.2113 59.229,53.1292 59.2499,53.0468 59.27,52.9642 59.2892,52.8814 59.3076,52.7984 59.3251,52.7152 59.3419,52.6319 59.3578,52.5484 59.3728,52.4647 59.3871,52.3809 59.4005,52.297 59.413,52.2129 59.4247,52.1287 59.4356,52.0444 59.4456,51.96 59.4548,51.8755 59.4631,51.7909 59.4706,51.7063 59.4772,51.6215 59.483,51.5367 59.488,51.4519 59.4921,51.367 59.4953,51.282 59.4977,51.1971 59.4985,51.1618 93.4923,51.8092 93.4821,52.234 93.4676,52.6588 93.4489,53.0834 93.4259,53.5077 93.3988,53.9319 93.3673,54.3557 93.3316,54.7792 93.2917,55.2023 93.2476,55.625 93.1992,56.0473 93.1467,56.469 93.0899,56.8902 93.0288,57.3108 92.9636,57.7307 92.8942,58.15 92.8206,58.5686 92.7429,58.9864 92.6609,59.4035 92.5748,59.8196 92.4845,60.2349 92.3901,60.6493 92.2915,61.0627 92.1889,61.4751 92.082,61.8865 91.9711,62.2968 91.8561,62.7059 91.737,63.1139 91.6138,63.5206 91.4866,63.9261 91.3553,64.3303 91.22,64.7332 91.0807,65.1347 90.9373,65.5348 90.79,65.9335 90.6386,66.3306 90.4834,66.7262 90.3241,67.1203 90.161,67.5127 89.9939,67.9035 89.8229,68.2926 89.648,68.6799 89.4693,69.0655 89.2867,69.4493 89.1003,69.8312 88.9101,70.2113 88.7161,70.5894 88.5183,70.9656 88.3168,71.3398 88.1115,71.7119 87.9026,72.082 87.6899,72.45 87.4736,72.8158 87.2536,73.1794 87.03,73.5408 86.8028,73.9 86.572,74.2569 86.3377,74.6114 86.0998,74.9636 85.8584,75.3134 85.6135,75.6608 85.3652,76.0057 85.1134,76.3481 84.8582,76.6879 84.5997,77.0252 84.3377,77.3599 84.0725,77.692 83.8039,78.0213 83.5321,78.348 83.257,78.672 82.9786,78.9932 82.6971,79.3115 82.4124,79.6271 82.1246,79.9398 81.8336,80.2496 81.5396,80.5564 81.2425,80.8604 80.9424,81.1613 80.6393,81.4592 80.3332,81.7541 80.0242,82.0458 79.7123,82.3345 79.3975,82.6201 79.0799,82.9025 78.7595,83.1817 78.4363,83.4577 78.1104,83.7304 77.7817,83.9999 77.4504,84.266 77.1164,84.5289 76.7798,84.7883 76.4406,85.0444 76.0989,85.2971 75.7547,85.5464 75.408,85.7922 75.0589,86.0346 74.7073,86.2734 74.3534,86.5087 73.9972,86.7405 73.6386,86.9686 73.2778,87.1932 72.9148,87.4142 72.5495,87.6315 72.1822,87.8452 71.8126,88.0551 71.4411,88.2614 71.0674,88.464 70.6918,88.6628 70.3142,88.8578 69.9347,89.049 69.5532,89.2365 69.1699,89.4201 68.7848,89.5999 68.3979,89.7758 68.0093,89.9478 67.619,90.116 67.227,90.2802 66.8334,90.4405 66.4382,90.5969 66.0415,90.7493 65.6433,90.8977 65.2436,91.0421 64.8424,91.1825 64.4399,91.319 64.0361,91.4513 63.6309,91.5797 63.2245,91.704 62.8168,91.8242 62.408,91.9403 61.998,92.0523 61.587,92.1602 61.1749,92.2641 60.7617,92.3637 60.3476,92.4593 59.9325,92.5507 59.5166,92.6379 59.0998,92.721 58.6822,92.7999 58.2638,92.8747 57.8447,92.9452 57.4249,93.0116 57.0045,93.0737 56.5835,93.1316 56.1619,93.1854 55.7398,93.2349 55.3172,93.2802 54.8942,93.3212 54.4708,93.358 54.047,93.3906 53.623,93.419 53.1987,93.4431 52.7741,93.463 52.3494,93.4786 51.9246,93.4899 51.4996,93.4971 51.0746,93.4999 50.6497,93.4986 50.2247,93.4929 49.7998,93.483 49.375,93.4689 48.9504,93.4506 48.526,93.4279 48.1019,93.4011 47.678,93.37 47.2545,93.3346 46.8314,93.2951 46.4086,93.2513 45.9863,93.2032 45.5646,93.151 45.1433,93.0945 44.7227,93.0339 44.3027,92.969 43.8833,92.8999 43.4647,92.8267 43.0468,92.7492 42.6297,92.6676 42.2135,92.5818 41.7981,92.4919 41.3837,92.3978 40.9702,92.2995 40.5577,92.1972 40.1462,92.0907 39.7359,91.9801 39.3266,91.8654 38.9186,91.7467 38.5117,91.6238 38.1061,91.4969 37.7018,91.3659 37.2988,91.2309 36.8972,91.0919 36.497,90.9489 36.0982,90.8018 35.701,90.6508 35.3052,90.4959 34.9111,90.337 34.5185,90.1741 34.1276,90.0073 33.7384,89.8367 33.3509,89.6621 32.9651,89.4837 32.5812,89.3014 32.1991,89.1153 31.8189,88.9254 31.4406,88.7317 31.0643,88.5342 30.69,88.333 30.3176,88.128 29.9474,87.9193 29.5793,87.707 29.2133,87.4909 28.8495,87.2713 28.4879,87.0479 28.1285,86.821 27.7715,86.5905 27.4167,86.3565 27.0643,86.1189 26.7144,85.8777 26.3668,85.6332 26.0217,85.3851 25.6791,85.1336 25.339,84.8787 25.0015,84.6204 24.6666,84.3587 24.3344,84.0937 24.0048,83.8254 23.6779,83.5538 23.3537,83.279 23.0323,83.0009 22.7137,82.7196 22.3979,82.4352 22.085,82.1476 21.775,81.8569 21.4679,81.5631 21.1637,81.2663 20.8626,80.9664 20.5644,80.6635 20.2693,80.3577 19.9773,80.0489 19.6883,79.7373 19.4025,79.4227 19.1199,79.1053 18.8404,78.7851 18.5642,78.4621 18.2912,78.1364 18.0215,77.808 17.7551,77.4769 17.492,77.1431 17.2322,76.8067 16.9758,76.4677 16.7229,76.1262 16.4733,75.7822 16.2272,75.4357 15.9846,75.0868 15.7455,74.7354 15.5099,74.3817 15.2779,74.0256 15.0494,73.6673 14.8245,73.3066 14.6033,72.9438 14.3857,72.5787 14.1717,72.2115 13.9614,71.8421 13.7549,71.4707 13.552,71.0973 13.3529,70.7218 13.1576,70.3443 12.9661,69.9649 12.7783,69.5837 12.5944,69.2005 12.4143,68.8156 12.2381,68.4288 12.0657,68.0403 11.8973,67.6502 11.7327,67.2583 11.5721,66.8648 11.4154,66.4698 11.2627,66.0731 11.114,65.675 10.9692,65.2754 10.8285,64.8744 10.6918,64.472 10.5591,64.0683 10.4304,63.6632 10.3058,63.2569 10.1853,62.8493 10.0688,62.4406 9.95645,62.0307 9.8482,61.6198 9.74406,61.2077 9.64404,60.7946 9.54817,60.3806 9.45644,59.9656 9.36886,59.5497 9.28545,59.133 9.2062,58.7155 9.13114,58.2972 9.06026,57.8781 8.99358,57.4584 8.9311,57.038 8.87282,56.617 8.81876,56.1955 8.76891,55.7734 8.72329,55.3509 8.6819,54.9279 8.64473,54.5045 8.61181,54.0808 8.58312,53.6568 8.55867,53.2325 8.53847,52.8079 8.52252,52.3832 8.51081,51.9584 8.50335,51.5335 8.50014,51.1085 8.50118,50.6835 8.50647,50.2585 8.51601,49.8336 8.5298,49.4089 8.54783,48.9842 8.57011,48.5598 8.59663,48.1357 8.62739,47.7118 8.6624,47.2882 8.70163,46.865 8.74509,46.4423 8.79278,46.02 8.84469,45.5981 8.90082,45.1769 8.96115,44.7562 9.02569,44.3361 9.09443,43.9167 9.16736,43.498 9.24447,43.0801 9.32575,42.6629 9.41121,42.2466 9.50082,41.8311 9.59458,41.4166 9.69248,41.0031 9.79451,40.5905 9.90067,40.179 10.0109,39.7685 10.1253,39.3592 10.2437,38.951 10.3663,38.5441 10.4929,38.1384 10.6235,37.7339 10.7582,37.3309 10.8969,36.9291 11.0396,36.5288 11.1863,36.1299 11.337,35.7325 11.4916,35.3367 11.6502,34.9424 11.8128,34.5497 11.9792,34.1587 12.1496,33.7693 12.3239,33.3817 12.502,32.9958 12.6839,32.6117 12.8697,32.2295 13.0593,31.8491 13.2527,31.4707 13.4499,31.0942 13.6508,30.7197 13.8555,30.3472 14.0639,29.9768 14.276,29.6085 14.4917,29.2423 14.7111,28.8784 14.9341,28.5166 15.1608,28.157 15.391,27.7998 15.6248,27.4449 15.8621,27.0923 16.1029,26.7421 16.3472,26.3944 16.595,26.0491 16.8463,25.7063 17.1009,25.366 17.3589,25.0283 17.6203,24.6932 17.885,24.3607 18.1531,24.0309 18.4244,23.7038 18.699,23.3794 18.9768,23.0578 19.2578,22.739 19.542,22.423 19.8294,22.1098 20.1198,21.7996 20.4134,21.4922 20.71,21.1878 21.0096,20.8864 21.3122,20.5881 21.6178,20.2927 21.9264,20.0004 22.2378,19.7112 22.5521,19.4252 22.8693,19.1423 23.1893,18.8626 23.512,18.5861 23.8375,18.3128 24.1658,18.0428 24.4967,17.7762 24.8302,17.5128 25.1664,17.2528 25.5052,16.9961 25.8465,16.7429 26.1903,16.4931 26.5366,16.2467 26.8854,16.0038 27.2365,15.7644 27.5901,15.5285 27.9459,15.2962 28.3041,15.0675 28.6646,14.8423 29.0273,14.6208 29.3921,14.4029 29.7592,14.1886 30.1284,13.978 30.4996,13.7712 30.8729,13.568 31.2482,13.3687 31.6255,13.173 32.0048,12.9812 32.3859,12.7931 32.7689,12.6089 33.1537,12.4285 33.5403,12.252 33.9287,12.0793 34.3187,11.9106 34.7104,11.7457 35.1038,11.5848 35.4987,11.4278 35.8952,11.2747 36.2932,11.1257 36.6927,10.9806 37.0936,10.8395 37.4959,10.7025 37.8995,10.5695 38.3045,10.4405 38.7107,10.3156 39.1182,10.1947 39.5268,10.0779 39.9366,9.96525 40.3475,9.85667 40.7594,9.7522 41.1724,9.65186 41.5864,9.55565 42.0013,9.46359 42.4171,9.37568 42.8338,9.29194 43.2513,9.21236 43.6695,9.13696 44.0885,9.06575 44.5082,8.99874 44.9285,8.93592 45.3494,8.87731 45.771,8.82291 46.193,8.77273 46.6155,8.72677 47.0384,8.68504 47.4618,8.64754 47.8855,8.61427 48.3095,8.58525 48.7337,8.56046 49.1582,8.53993 49.5829,8.52363 50.0078,8.51158 50.4327,8.50379 50.8577,8.50024 51.2827,8.50094 51.7076,8.50589 52.1325,8.51509 52.5573,8.52854 52.9819,8.54624 53.4064,8.56818 53.8306,8.59436 54.2545,8.62479 54.6781,8.65945 55.1013,8.69835 55.5241,8.74148 55.9464,8.78883 56.3683,8.8404 56.7896,8.89619 57.2104,8.9562 57.6305,9.0204 58.0499,9.0888 58.4687,9.1614 58.8867,9.23817 59.3039,9.31913 59.7203,9.40425 60.1358,9.49353 60.5504,9.58696 60.9641,9.68454 61.3767,9.78624 61.7883,9.89207 62.1988,10.002 62.6083,10.116 63.0165,10.2342 63.4236,10.3564 63.8294,10.4826 64.2339,10.6129 64.6371,10.7473 65.0389,10.8857 65.4394,11.0281 65.8384,11.1745 66.2359,11.3248 66.6319,11.4792 67.0263,11.6375 67.4191,11.7997 67.8103,11.9658 68.1998,12.1359 68.5875,12.3098 68.9735,12.4876 69.3578,12.6693 69.7402,12.8548 70.1207,13.0441 70.4993,13.2372 70.8759,13.4341 71.2506,13.6347 71.6232,13.8391 71.9938,14.0472 72.3622,14.259 72.7286,14.4744 73.0927,14.6935 73.4547,14.9163 73.8144,15.1426 74.1718,15.3725 74.5269,15.606 74.8797,15.8431 75.2301,16.0836 75.578,16.3277 75.9235,16.5752 76.2665,16.8261 76.607,17.0805 76.9449,17.3383 77.2802,17.5994 77.6129,17.8638 77.9429,18.1316 78.2702,18.4027 78.5948,18.677 78.9167,18.9546 79.2357,19.2353 79.552,19.5193 79.8653,19.8064 80.1758,20.0966 80.4834,20.3899 80.788,20.6862 81.0897,20.9856 81.3883,21.288 81.6839,21.5934 81.9764,21.9017 82.2658,22.2129 82.5522,22.527 82.8353,22.8439 83.1153,23.1637 83.392,23.4862 83.6655,23.8115 83.9358,24.1395 84.2027,24.4702 84.4664,24.8036 84.7267,25.1395 84.9836,25.4781 85.2371,25.8192 85.4872,26.1628 85.7338,26.5089 85.977,26.8575 86.2167,27.2085 86.4528,27.5618 86.6854,27.9175 86.9145,28.2755 87.1399,28.6358 87.3617,28.9983 87.5799,29.363 87.7945,29.7299 88.0053,30.0989 88.2125,30.47 88.4159,30.8431 88.6156,31.2183 88.8115,31.5954 89.0037,31.9745 89.192,32.3555 89.3766,32.7383 89.5573,33.123 89.7341,33.5095 89.9071,33.8977 90.0761,34.2876 90.2413,34.6792 90.4026,35.0724 90.5599,35.4672 90.7132,35.8636 90.8626,36.2615 91.008,36.6608 91.1494,37.0616 91.2867,37.4638 91.4201,37.8673 91.5494,38.2722 91.6746,38.6783 91.7958,39.0857 91.9129,39.4942 92.0259,39.9039 92.1348,40.3147 92.2396,40.7266 92.3403,41.1395 92.4368,41.5534 92.5292,41.9682 92.6175,42.384 92.7015,42.8006 92.7815,43.218 92.8572,43.6362 92.9287,44.0551 92.9961,44.4747 93.0592,44.895 93.1182,45.3159 93.1729,45.7374 93.2234,46.1594 93.2697,46.5818 93.3118,47.0047 93.3496,47.428 93.3832,47.8517 93.4126,48.2757 93.4377,48.6999 93.4586,49.1244 93.4752,49.5491 93.4876,49.9739 93.4958,50.3988 93.4996,50.8238 93.5,51 59.5,51 " />
</g>

<g fill="#dd5400" fill-opacity="1" stroke="none" transform="matrix(7.5e-05,0,0,7.5e-05,0,0)"
font-family="SimSun" font-size="9" font-weight="400" font-style="normal" 
>
<path vector-effect="none" fill-rule="evenodd" d="M595000,510000 L594996,510768 L594984,511618 L934922,518091 L934978,514249 L935000,510000 L595000,510000"/>
</g>

<g fill="none" stroke="#000000" stroke-opacity="1" stroke-width="2.66667" stroke-linecap="square" stroke-linejoin="miter" stroke-miterlimit="2" transform="matrix(0.75,0,0,0.75,0,0)"
font-family="SimSun" font-size="9" font-weight="400" font-style="normal" 
>
<polyline fill="none" vector-effect="none" points="59.4985,51.1618 59.4997,51.0768 59.5,51 93.5,51 93.4979,51.425 93.4923,51.8092 59.4985,51.1618 " />
</g>

<g fill="#ffffff" fill-opacity="1" stroke="#ffffff" stroke-opacity="1" stroke-width="1" stroke-linecap="square" stroke-linejoin="bevel" transform="matrix(0.75,0,0,0.75,5.25087,41.4429)"
font-family="Helvetica" font-size="13" font-weight="700" font-style="normal" 
>
<text fill="#ffffff" fill-opacity="1" stroke="none" xml:space="preserve" x="0" y="0" font-family="Helvetica" font-size="13" font-weight="700" font-style="normal" 
 >99.7%</text>
</g>

<g fill="#ffffff" fill-opacity="1" stroke="#ffffff" stroke-opacity="1" stroke-width="1" stroke-linecap="square" stroke-linejoin="bevel" transform="matrix(0.75,0,0,0.75,46.1241,41.8071)"
font-family="Helvetica" font-size="13" font-weight="700" font-style="normal" 
>
<text fill="#ffffff" fill-opacity="1" stroke="none" xml:space="preserve" x="0" y="0" font-family="Helvetica" font-size="13" font-weight="700" font-style="normal" 
 >0.3%</text>
</g>

<g fill="#000000" fill-opacity="1" stroke="#000000" stroke-opacity="1" stroke-width="1" stroke-linecap="square" stroke-linejoin="bevel" transform="matrix(0.75,0,0,0.75,82.873,47.6748)"
font-family="Helvetica" font-size="13" font-weight="700" font-style="normal" 
>
<text fill="#000000" fill-opacity="1" stroke="none" xml:space="preserve" x="0" y="0" font-family="Helvetica" font-size="13" font-weight="700" font-style="normal" 
 >Label 2</text>
</g>

<g fill="#ffffff" fill-opacity="1" stroke="none" transform="matrix(7.5e-05,0,0,7.5e-05,0,0)"
font-family="Helvetica" font-size="13" font-weight="700" font-style="normal" 
>
<path vector-effect="none" fill-rule="evenodd" d="M1.03e+06,0 L1.03e+06,1.02e+06 L2.05e+06,1.02e+06 L2.05e+06,0 L1.03e+06,0"/>
</g>

<g fill="#1171be" fill-opacity="1" stroke="none" transform="matrix(7.5e-05,0,0,7.5e-05,0,0)"
font-family="Helvetica" font-size="13" font-weight="700" font-style="normal" 
>
<path vector-effect="none" fill-rule="evenodd" d="M1.1193e+06,570281 L1.11992e+06,574485 L1.45598e+06,522897 L1.45593e+06,522568 L1.45581e+06,521727 L1.4557e+06,520884 L1.4556e+06,520041 L1.4555e+06,519196 L1.45541e+06,518351 L1.45533e+06,517504 L1.45526e+06,516657 L1.4552e+06,515810 L1.45515e+06,514961 L1.4551e+06,514113 L1.45506e+06,513263 L1.45503e+06,512414 L1.45501e+06,511564 L1.455e+06,510714 L1.455e+06,509864 L1.45501e+06,509014 L1.45502e+06,508164 L1.45504e+06,507315 L1.45507e+06,506465 L1.45511e+06,505616 L1.45516e+06,504767 L1.45522e+06,503919 L1.45528e+06,503072 L1.45536e+06,502225 L1.45544e+06,501379 L1.45553e+06,500534 L1.45563e+06,499690 L1.45573e+06,498846 L1.45585e+06,498004 L1.45597e+06,497163 L1.45611e+06,496324 L1.45625e+06,495486 L1.4564e+06,494649 L1.45656e+06,493814 L1.45672e+06,492980 L1.4569e+06,492148 L1.45708e+06,491318 L1.45727e+06,490490 L1.45747e+06,489663 L1.45768e+06,488839 L1.45789e+06,488017 L1.45812e+06,487197 L1.45835e+06,486379 L1.45859e+06,485564 L1.45884e+06,484751 L1.45909e+06,483941 L1.45936e+06,483133 L1.45963e+06,482328 L1.45991e+06,481526 L1.4602e+06,480726 L1.4605e+06,479930 L1.4608e+06,479136 L1.46111e+06,478346 L1.46143e+06,477558 L1.46176e+06,476774 L1.4621e+06,475994 L1.46244e+06,475216 L1.46279e+06,474442 L1.46315e+06,473672 L1.46352e+06,472906 L1.4639e+06,472143 L1.46428e+06,471384 L1.46467e+06,470628 L1.46507e+06,469877 L1.46547e+06,469130 L1.46588e+06,468386 L1.4663e+06,467647 L1.46673e+06,466912 L1.46716e+06,466182 L1.46761e+06,465456 L1.46806e+06,464734 L1.46851e+06,464017 L1.46897e+06,463304 L1.46945e+06,462596 L1.46992e+06,461893 L1.47041e+06,461195 L1.4709e+06,460501 L1.4714e+06,459813 L1.4719e+06,459129 L1.47241e+06,458451 L1.47293e+06,457778 L1.47346e+06,457110 L1.47399e+06,456447 L1.47453e+06,455790 L1.47508e+06,455138 L1.47563e+06,454491 L1.47619e+06,453850 L1.47675e+06,453215 L1.47732e+06,452585 L1.4779e+06,451961 L1.47848e+06,451343 L1.47907e+06,450731 L1.47967e+06,450125 L1.48027e+06,449524 L1.48088e+06,448930 L1.48149e+06,448342 L1.48211e+06,447760 L1.48274e+06,447184 L1.48337e+06,446615 L1.484e+06,446051 L1.48465e+06,445495 L1.48529e+06,444944 L1.48595e+06,444401 L1.48661e+06,443863 L1.48727e+06,443333 L1.48794e+06,442809 L1.48861e+06,442291 L1.48929e+06,441781 L1.48998e+06,441277 L1.49067e+06,440781 L1.49136e+06,440291 L1.49206e+06,439808 L1.49277e+06,439332 L1.49347e+06,438863 L1.49419e+06,438401 L1.49491e+06,437947 L1.49563e+06,437500 L1.49636e+06,437059 L1.49709e+06,436627 L1.49782e+06,436201 L1.49856e+06,435783 L1.49931e+06,435373 L1.50006e+06,434969 L1.50081e+06,434574 L1.50157e+06,434186 L1.50233e+06,433805 L1.50309e+06,433432 L1.50386e+06,433067 L1.50463e+06,432709 L1.5054e+06,432359 L1.50618e+06,432017 L1.50696e+06,431683 L1.50775e+06,431357 L1.50853e+06,431038 L1.50933e+06,430727 L1.51012e+06,430424 L1.51092e+06,430130 L1.51172e+06,429843 L1.51252e+06,429564 L1.51333e+06,429293 L1.51413e+06,429031 L1.51495e+06,428776 L1.51576e+06,428529 L1.51657e+06,428291 L1.51739e+06,428061 L1.51821e+06,427839 L1.51904e+06,427625 L1.51986e+06,427420 L1.52069e+06,427222 L1.52152e+06,427033 L1.52235e+06,426853 L1.52318e+06,426680 L1.52401e+06,426516 L1.52485e+06,426361 L1.52569e+06,426213 L1.52652e+06,426074 L1.52736e+06,425944 L1.52821e+06,425822 L1.52905e+06,425708 L1.52989e+06,425603 L1.53074e+06,425506 L1.53158e+06,425417 L1.53243e+06,425337 L1.53327e+06,425266 L1.53412e+06,425203 L1.53497e+06,425148 L1.53582e+06,425102 L1.53667e+06,425065 L1.53752e+06,425036 L1.53837e+06,425015 L1.53922e+06,425003 L1.54007e+06,425000 L1.54092e+06,425004 L1.54177e+06,425018 L1.54262e+06,425040 L1.54347e+06,425070 L1.54432e+06,425109 L1.54516e+06,425157 L1.54601e+06,425212 L1.54686e+06,425277 L1.54771e+06,425350 L1.54855e+06,425431 L1.5494e+06,425521 L1.55024e+06,425619 L1.55109e+06,425726 L1.55193e+06,425841 L1.55277e+06,425964 L1.55361e+06,426096 L1.55445e+06,426236 L1.55528e+06,426385 L1.55612e+06,426542 L1.55695e+06,426707 L1.55779e+06,426881 L1.55862e+06,427063 L1.55944e+06,427253 L1.56027e+06,427452 L1.5611e+06,427659 L1.56192e+06,427874 L1.56274e+06,428097 L1.56356e+06,428329 L1.56437e+06,428568 L1.56518e+06,428816 L1.56599e+06,429072 L1.5668e+06,429336 L1.56761e+06,429608 L1.56841e+06,429888 L1.56921e+06,430176 L1.57001e+06,430472 L1.5708e+06,430776 L1.57159e+06,431088 L1.57238e+06,431408 L1.57316e+06,431736 L1.57394e+06,432071 L1.57472e+06,432415 L1.5755e+06,432766 L1.57627e+06,433124 L1.57703e+06,433491 L1.5778e+06,433865 L1.57856e+06,434247 L1.57931e+06,434636 L1.58006e+06,435033 L1.58081e+06,435437 L1.58155e+06,435849 L1.58229e+06,436269 L1.58303e+06,436695 L1.58376e+06,437129 L1.58449e+06,437570 L1.58521e+06,438019 L1.58593e+06,438474 L1.58664e+06,438937 L1.58735e+06,439407 L1.58805e+06,439884 L1.58875e+06,440368 L1.58944e+06,440859 L1.59013e+06,441357 L1.59082e+06,441862 L1.59149e+06,442373 L1.59217e+06,442892 L1.59284e+06,443417 L1.5935e+06,443948 L1.59416e+06,444487 L1.59481e+06,445032 L1.59546e+06,445583 L1.5961e+06,446141 L1.59673e+06,446705 L1.59736e+06,447275 L1.59799e+06,447852 L1.59861e+06,448435 L1.59922e+06,449024 L1.59983e+06,449619 L1.60043e+06,450221 L1.60102e+06,450828 L1.60161e+06,451441 L1.60219e+06,452060 L1.60277e+06,452685 L1.60334e+06,453316 L1.6039e+06,453952 L1.60446e+06,454594 L1.60501e+06,455241 L1.60556e+06,455894 L1.60609e+06,456552 L1.60662e+06,457216 L1.60715e+06,457885 L1.60767e+06,458559 L1.60818e+06,459238 L1.60868e+06,459922 L1.60918e+06,460612 L1.60967e+06,461306 L1.61015e+06,462005 L1.61063e+06,462709 L1.6111e+06,463417 L1.61156e+06,464131 L1.61202e+06,464849 L1.61246e+06,465571 L1.61291e+06,466298 L1.61334e+06,467029 L1.61376e+06,467765 L1.61418e+06,468504 L1.61459e+06,469248 L1.615e+06,469996 L1.61539e+06,470748 L1.61578e+06,471504 L1.61616e+06,472264 L1.61654e+06,473027 L1.6169e+06,473795 L1.61726e+06,474566 L1.61761e+06,475340 L1.61796e+06,476118 L1.61829e+06,476899 L1.61862e+06,477683 L1.61894e+06,478471 L1.61925e+06,479262 L1.61955e+06,480056 L1.61985e+06,480853 L1.62013e+06,481653 L1.62041e+06,482456 L1.62069e+06,483261 L1.62095e+06,484070 L1.6212e+06,484880 L1.62145e+06,485694 L1.62169e+06,486509 L1.62192e+06,487327 L1.62214e+06,488148 L1.62236e+06,488970 L1.62256e+06,489795 L1.62276e+06,490621 L1.62295e+06,491450 L1.62313e+06,492280 L1.62331e+06,493113 L1.62347e+06,493947 L1.62363e+06,494782 L1.62377e+06,495619 L1.62391e+06,496457 L1.62405e+06,497297 L1.62417e+06,498138 L1.62428e+06,498981 L1.62439e+06,499824 L1.62449e+06,500668 L1.62458e+06,501514 L1.62466e+06,502360 L1.62473e+06,503207 L1.62479e+06,504054 L1.62485e+06,504903 L1.62489e+06,505751 L1.62493e+06,506600 L1.62496e+06,507450 L1.62498e+06,508300 L1.625e+06,509150 L1.625e+06,510000 L1.965e+06,510000 L1.965e+06,508337 L1.96496e+06,504087 L1.96488e+06,499838 L1.96476e+06,495590 L1.96459e+06,491343 L1.96438e+06,487098 L1.96413e+06,482855 L1.96384e+06,478615 L1.9635e+06,474379 L1.96313e+06,470145 L1.96271e+06,465916 L1.96225e+06,461691 L1.96174e+06,457471 L1.9612e+06,453257 L1.96061e+06,449048 L1.95998e+06,444845 L1.9593e+06,440648 L1.95859e+06,436459 L1.95783e+06,432277 L1.95703e+06,428102 L1.95619e+06,423936 L1.95531e+06,419779 L1.95439e+06,415630 L1.95343e+06,411491 L1.95242e+06,407362 L1.95137e+06,403243 L1.95029e+06,399134 L1.94916e+06,395037 L1.94799e+06,390951 L1.94678e+06,386877 L1.94552e+06,382816 L1.94423e+06,378767 L1.9429e+06,374731 L1.94153e+06,370709 L1.94011e+06,366701 L1.93866e+06,362707 L1.93717e+06,358728 L1.93563e+06,354764 L1.93406e+06,350815 L1.93245e+06,346883 L1.9308e+06,342967 L1.92911e+06,339067 L1.92738e+06,335184 L1.92561e+06,331319 L1.92381e+06,327472 L1.92196e+06,323643 L1.92008e+06,319833 L1.91816e+06,316042 L1.9162e+06,312270 L1.91421e+06,308518 L1.91217e+06,304786 L1.9101e+06,301075 L1.90799e+06,297384 L1.90585e+06,293715 L1.90367e+06,290067 L1.90145e+06,286442 L1.8992e+06,282838 L1.89691e+06,279258 L1.89458e+06,275700 L1.89222e+06,272166 L1.88983e+06,268656 L1.8874e+06,265170 L1.88493e+06,261708 L1.88243e+06,258271 L1.8799e+06,254860 L1.87733e+06,251474 L1.87472e+06,248113 L1.87209e+06,244779 L1.86942e+06,241472 L1.86672e+06,238191 L1.86398e+06,234937 L1.86122e+06,231711 L1.85842e+06,228513 L1.85559e+06,225343 L1.85273e+06,222201 L1.84983e+06,219089 L1.84691e+06,216005 L1.84395e+06,212951 L1.84097e+06,209926 L1.83795e+06,206931 L1.83491e+06,203967 L1.83183e+06,201033 L1.82873e+06,198131 L1.82559e+06,195259 L1.82243e+06,192419 L1.81924e+06,189610 L1.81602e+06,186834 L1.81278e+06,184090 L1.80951e+06,181379 L1.80621e+06,178700 L1.80288e+06,176055 L1.79953e+06,173443 L1.79615e+06,170864 L1.79274e+06,168320 L1.78932e+06,165809 L1.78586e+06,163333 L1.78238e+06,160892 L1.77888e+06,158486 L1.77535e+06,156115 L1.7718e+06,153779 L1.76823e+06,151479 L1.76463e+06,149214 L1.76101e+06,146986 L1.75737e+06,144794 L1.75371e+06,142639 L1.75002e+06,140520 L1.74632e+06,138438 L1.74259e+06,136394 L1.73885e+06,134387 L1.73508e+06,132417 L1.7313e+06,130485 L1.72749e+06,128591 L1.72367e+06,126735 L1.71983e+06,124918 L1.71597e+06,123139 L1.71209e+06,121399 L1.70819e+06,119697 L1.70428e+06,118035 L1.70035e+06,116412 L1.69641e+06,114828 L1.69245e+06,113283 L1.68848e+06,111779 L1.68449e+06,110314 L1.68048e+06,108889 L1.67646e+06,107504 L1.67243e+06,106160 L1.66839e+06,104856 L1.66433e+06,103592 L1.66026e+06,102369 L1.65618e+06,101187 L1.65208e+06,100046 L1.64798e+06,98945 L1.64386e+06,97886 L1.63974e+06,96868 L1.6356e+06,95891 L1.63145e+06,94956 L1.6273e+06,94062 L1.62314e+06,93210 L1.61896e+06,92400 L1.61478e+06,91631 L1.6106e+06,90904 L1.6064e+06,90219 L1.6022e+06,89576 L1.59799e+06,88975 L1.59378e+06,88416 L1.58956e+06,87899 L1.58534e+06,87425 L1.58111e+06,86993 L1.57688e+06,86603 L1.57264e+06,86255 L1.5684e+06,85950 L1.56416e+06,85687 L1.55992e+06,85467 L1.55567e+06,85289 L1.55142e+06,85153 L1.54718e+06,85060 L1.54293e+06,85010 L1.53868e+06,85002 L1.53443e+06,85036 L1.53018e+06,85113 L1.52593e+06,85233 L1.52168e+06,85394 L1.51744e+06,85599 L1.51319e+06,85846 L1.50895e+06,86135 L1.50472e+06,86467 L1.50048e+06,86841 L1.49625e+06,87257 L1.49203e+06,87716 L1.48781e+06,88216 L1.48359e+06,88759 L1.47938e+06,89345 L1.47518e+06,89972 L1.47098e+06,90641 L1.46679e+06,91352 L1.46261e+06,92105 L1.45843e+06,92900 L1.45427e+06,93736 L1.45011e+06,94614 L1.44596e+06,95534 L1.44182e+06,96495 L1.43769e+06,97498 L1.43357e+06,98541 L1.42946e+06,99626 L1.42536e+06,100752 L1.42128e+06,101919 L1.4172e+06,103127 L1.41314e+06,104375 L1.40909e+06,105664 L1.40505e+06,106993 L1.40103e+06,108363 L1.39702e+06,109772 L1.39303e+06,111222 L1.38904e+06,112712 L1.38508e+06,114241 L1.38113e+06,115810 L1.3772e+06,117419 L1.37328e+06,119066 L1.36938e+06,120753 L1.36549e+06,122479 L1.36163e+06,124243 L1.35778e+06,126046 L1.35395e+06,127887 L1.35014e+06,129767 L1.34634e+06,131685 L1.34257e+06,133640 L1.33882e+06,135633 L1.33508e+06,137664 L1.33137e+06,139731 L1.32768e+06,141836 L1.32401e+06,143978 L1.32036e+06,146156 L1.31673e+06,148371 L1.31313e+06,150621 L1.30954e+06,152908 L1.30598e+06,155230 L1.30245e+06,157588 L1.29894e+06,159981 L1.29545e+06,162409 L1.29198e+06,164872 L1.28854e+06,167370 L1.28513e+06,169901 L1.28174e+06,172467 L1.27838e+06,175066 L1.27504e+06,177699 L1.27173e+06,180365 L1.26845e+06,183065 L1.2652e+06,185796 L1.26197e+06,188560 L1.25877e+06,191357 L1.2556e+06,194185 L1.25245e+06,197045 L1.24934e+06,199936 L1.24625e+06,202858 L1.24319e+06,205811 L1.24017e+06,208794 L1.23717e+06,211807 L1.2342e+06,214851 L1.23127e+06,217923 L1.22836e+06,221025 L1.22549e+06,224156 L1.22264e+06,227315 L1.21983e+06,230503 L1.21705e+06,233719 L1.21431e+06,236962 L1.21159e+06,240232 L1.20891e+06,243530 L1.20626e+06,246854 L1.20365e+06,250204 L1.20107e+06,253581 L1.19852e+06,256983 L1.19601e+06,260410 L1.19353e+06,263863 L1.19109e+06,267340 L1.18868e+06,270841 L1.1863e+06,274366 L1.18396e+06,277915 L1.18166e+06,281486 L1.17939e+06,285081 L1.17716e+06,288699 L1.17497e+06,292338 L1.17281e+06,295999 L1.17069e+06,299682 L1.1686e+06,303385 L1.16656e+06,307109 L1.16455e+06,310854 L1.16257e+06,314618 L1.16064e+06,318402 L1.15874e+06,322205 L1.15688e+06,326027 L1.15506e+06,329868 L1.15328e+06,333726 L1.15154e+06,337602 L1.14983e+06,341495 L1.14817e+06,345405 L1.14654e+06,349332 L1.14495e+06,353274 L1.14341e+06,357232 L1.1419e+06,361206 L1.14043e+06,365194 L1.139e+06,369197 L1.13761e+06,373214 L1.13627e+06,377245 L1.13496e+06,381289 L1.13369e+06,385346 L1.13247e+06,389415 L1.13128e+06,393496 L1.13014e+06,397589 L1.12903e+06,401693 L1.12797e+06,405808 L1.12695e+06,409934 L1.12597e+06,414069 L1.12503e+06,418214 L1.12413e+06,422368 L1.12328e+06,426531 L1.12246e+06,430703 L1.12169e+06,434882 L1.12096e+06,439069 L1.12027e+06,443263 L1.11963e+06,447463 L1.11902e+06,451670 L1.11846e+06,455883 L1.11794e+06,460101 L1.11746e+06,464324 L1.11703e+06,468551 L1.11663e+06,472783 L1.11628e+06,477019 L1.11597e+06,481257 L1.11571e+06,485499 L1.11548e+06,489743 L1.1153e+06,493989 L1.11516e+06,498237 L1.11507e+06,502486 L1.11501e+06,506735 L1.115e+06,510985 L1.11503e+06,515235 L1.11511e+06,519485 L1.11522e+06,523733 L1.11538e+06,527980 L1.11558e+06,532225 L1.11583e+06,536468 L1.11611e+06,540709 L1.11644e+06,544946 L1.11681e+06,549180 L1.11722e+06,553410 L1.11768e+06,557635 L1.11818e+06,561856 L1.11872e+06,566071 L1.1193e+06,570281"/>
</g>

<g fill="none" stroke="#000000" stroke-opacity="1" stroke-width="2.66667" stroke-linecap="square" stroke-linejoin="miter" stroke-miterlimit="2" transform="matrix(0.75,0,0,0.75,0,0)"
font-family="Helvetica" font-size="13" font-weight="700" font-style="normal" 
>
<polyline fill="none" vector-effect="none" points="162.5,51 162.5,50.915 162.498,50.83 162.496,50.745 162.493,50.6601 162.489,50.5752 162.485,50.4903 162.479,50.4055 162.473,50.3207 162.466,50.236 162.458,50.1514 162.449,50.0669 162.439,49.9824 162.428,49.8981 162.417,49.8139 162.405,49.7298 162.391,49.6458 162.377,49.562 162.363,49.4782 162.347,49.3947 162.331,49.3113 162.313,49.2281 162.295,49.1451 162.276,49.0622 162.256,48.9795 162.236,48.8971 162.214,48.8148 162.192,48.7328 162.169,48.651 162.145,48.5694 162.12,48.4881 162.095,48.407 162.068,48.3262 162.041,48.2456 162.013,48.1654 161.985,48.0854 161.955,48.0057 161.925,47.9263 161.894,47.8472 161.862,47.7684 161.829,47.6899 161.796,47.6118 161.761,47.534 161.726,47.4566 161.69,47.3795 161.654,47.3028 161.616,47.2264 161.578,47.1505 161.539,47.0749 161.5,46.9997 161.459,46.9249 161.418,46.8505 161.376,46.7765 161.334,46.703 161.291,46.6298 161.246,46.5572 161.202,46.4849 161.156,46.4131 161.11,46.3418 161.063,46.2709 161.015,46.2005 160.967,46.1306 160.918,46.0612 160.868,45.9923 160.818,45.9238 160.767,45.8559 160.715,45.7885 160.662,45.7216 160.609,45.6553 160.556,45.5894 160.501,45.5242 160.446,45.4594 160.39,45.3952 160.334,45.3316 160.277,45.2686 160.219,45.2061 160.161,45.1442 160.102,45.0829 160.043,45.0221 159.983,44.962 159.922,44.9025 159.861,44.8436 159.799,44.7853 159.736,44.7276 159.673,44.6705 159.61,44.6141 159.546,44.5583 159.481,44.5032 159.416,44.4487 159.35,44.3949 159.284,44.3417 159.217,44.2892 159.149,44.2374 159.082,44.1862 159.013,44.1358 158.944,44.086 158.875,44.0369 158.805,43.9885 158.735,43.9408 158.664,43.8938 158.593,43.8475 158.521,43.8019 158.449,43.7571 158.376,43.713 158.303,43.6696 158.229,43.6269 158.155,43.585 158.081,43.5438 158.006,43.5034 157.931,43.4637 157.856,43.4247 157.78,43.3866 157.703,43.3491 157.627,43.3125 157.55,43.2766 157.472,43.2415 157.394,43.2072 157.316,43.1736 157.238,43.1409 157.159,43.1089 157.08,43.0777 157.001,43.0473 156.921,43.0177 156.841,42.9888 156.761,42.9608 156.68,42.9336 156.599,42.9072 156.518,42.8816 156.437,42.8569 156.356,42.8329 156.274,42.8098 156.192,42.7874 156.109,42.7659 156.027,42.7452 155.944,42.7254 155.862,42.7064 155.779,42.6882 155.695,42.6708 155.612,42.6542 155.528,42.6385 155.445,42.6237 155.361,42.6096 155.277,42.5965 155.193,42.5841 155.109,42.5726 155.024,42.5619 154.94,42.5521 154.855,42.5431 154.771,42.535 154.686,42.5277 154.601,42.5213 154.516,42.5157 154.432,42.511 154.347,42.5071 154.262,42.504 154.177,42.5018 154.092,42.5005 154.007,42.5 153.922,42.5004 153.837,42.5016 153.752,42.5036 153.667,42.5065 153.582,42.5103 153.497,42.5149 153.412,42.5203 153.327,42.5266 153.243,42.5338 153.158,42.5418 153.074,42.5506 152.989,42.5603 152.905,42.5709 152.821,42.5822 152.736,42.5944 152.652,42.6075 152.569,42.6214 152.485,42.6361 152.401,42.6517 152.318,42.6681 152.235,42.6853 152.152,42.7034 152.069,42.7223 151.986,42.742 151.904,42.7626 151.821,42.7839 151.739,42.8061 151.657,42.8292 151.576,42.853 151.495,42.8776 151.413,42.9031 151.333,42.9294 151.252,42.9564 151.172,42.9843 151.092,43.013 151.012,43.0425 150.933,43.0728 150.853,43.1038 150.775,43.1357 150.696,43.1683 150.618,43.2018 150.54,43.236 150.463,43.271 150.386,43.3067 150.309,43.3433 150.233,43.3806 150.157,43.4186 150.081,43.4574 150.006,43.497 149.931,43.5373 149.856,43.5784 149.782,43.6202 149.709,43.6627 149.636,43.706 149.563,43.75 149.491,43.7947 149.419,43.8402 149.347,43.8864 149.277,43.9332 149.206,43.9808 149.136,44.0291 149.067,44.0781 148.998,44.1278 148.929,44.1781 148.861,44.2292 148.794,44.2809 148.727,44.3333 148.661,44.3864 148.595,44.4401 148.529,44.4945 148.465,44.5495 148.4,44.6052 148.337,44.6615 148.274,44.7185 148.211,44.776 148.149,44.8342 148.088,44.8931 148.027,44.9525 147.967,45.0125 147.907,45.0731 147.848,45.1344 147.79,45.1962 147.732,45.2586 147.675,45.3215 147.619,45.3851 147.563,45.4492 147.508,45.5138 147.453,45.579 147.399,45.6447 147.346,45.711 147.293,45.7778 147.241,45.8451 147.19,45.913 147.14,45.9813 147.09,46.0502 147.041,46.1195 146.992,46.1894 146.945,46.2597 146.897,46.3305 146.851,46.4017 146.806,46.4735 146.761,46.5456 146.716,46.6182 146.673,46.6913 146.63,46.7648 146.588,46.8387 146.547,46.913 146.507,46.9877 146.467,47.0629 146.428,47.1384 146.39,47.2143 146.352,47.2906 146.315,47.3673 146.279,47.4443 146.244,47.5217 146.21,47.5994 146.176,47.6775 146.143,47.7559 146.111,47.8346 146.08,47.9137 146.05,47.993 146.02,48.0727 145.991,48.1526 145.963,48.2328 145.936,48.3133 145.909,48.3941 145.884,48.4751 145.859,48.5564 145.835,48.638 145.812,48.7197 145.789,48.8017 145.768,48.884 145.747,48.9664 145.727,49.049 145.708,49.1318 145.69,49.2149 145.672,49.298 145.656,49.3814 145.64,49.4649 145.625,49.5486 145.611,49.6324 145.597,49.7164 145.585,49.8005 145.573,49.8847 145.563,49.969 145.553,50.0534 145.544,50.1379 145.536,50.2225 145.528,50.3072 145.522,50.392 145.516,50.4768 145.511,50.5617 145.507,50.6466 145.504,50.7315 145.502,50.8165 145.501,50.9015 145.5,50.9865 145.5,51.0715 145.501,51.1565 145.503,51.2414 145.506,51.3264 145.51,51.4113 145.514,51.4962 145.52,51.581 145.526,51.6658 145.533,51.7505 145.541,51.8351 145.55,51.9197 145.56,52.0041 145.57,52.0885 145.581,52.1727 145.593,52.2568 145.598,52.2897 111.992,57.4486 111.93,57.0282 111.872,56.6072 111.818,56.1856 111.768,55.7636 111.722,55.341 111.681,54.918 111.644,54.4946 111.611,54.0709 111.583,53.6469 111.558,53.2226 111.538,52.798 111.522,52.3733 111.511,51.9485 111.503,51.5236 111.5,51.0986 111.501,50.6736 111.507,50.2486 111.516,49.8237 111.53,49.399 111.548,48.9744 111.571,48.5499 111.597,48.1258 111.628,47.7019 111.663,47.2784 111.703,46.8552 111.746,46.4324 111.794,46.0101 111.846,45.5883 111.902,45.1671 111.963,44.7464 112.027,44.3263 112.096,43.9069 112.169,43.4883 112.246,43.0703 112.328,42.6532 112.413,42.2369 112.503,41.8215 112.597,41.407 112.695,40.9934 112.797,40.5809 112.903,40.1694 113.014,39.759 113.128,39.3497 113.247,38.9415 113.369,38.5346 113.496,38.1289 113.627,37.7245 113.761,37.3215 113.9,36.9198 114.043,36.5195 114.19,36.1207 114.341,35.7233 114.495,35.3275 114.654,34.9332 114.817,34.5406 114.983,34.1496 115.154,33.7602 115.328,33.3727 115.506,32.9868 115.688,32.6028 115.874,32.2206 116.064,31.8403 116.257,31.4619 116.455,31.0854 116.656,30.711 116.86,30.3386 117.069,29.9682 117.281,29.6 117.497,29.2338 117.716,28.8699 117.939,28.5082 118.166,28.1487 118.396,27.7915 118.63,27.4366 118.868,27.0841 119.109,26.734 119.353,26.3863 119.601,26.0411 119.852,25.6983 120.107,25.3581 120.365,25.0205 120.626,24.6854 120.891,24.353 121.159,24.0233 121.431,23.6962 121.705,23.3719 121.983,23.0503 122.264,22.7316 122.549,22.4156 122.836,22.1026 123.127,21.7924 123.42,21.4851 123.717,21.1808 124.017,20.8795 124.319,20.5811 124.625,20.2859 124.934,19.9936 125.245,19.7045 125.559,19.4186 125.877,19.1357 126.197,18.8561 126.52,18.5797 126.845,18.3065 127.173,18.0366 127.504,17.77 127.838,17.5067 128.174,17.2467 128.513,16.9902 128.854,16.737 129.198,16.4873 129.545,16.241 129.894,15.9982 130.245,15.7589 130.598,15.5231 130.954,15.2908 131.313,15.0622 131.673,14.8371 132.036,14.6156 132.401,14.3978 132.768,14.1837 133.137,13.9732 133.508,13.7664 133.882,13.5634 134.257,13.3641 134.634,13.1685 135.014,12.9767 135.395,12.7888 135.778,12.6046 136.163,12.4243 136.549,12.2479 136.938,12.0753 137.328,11.9067 137.72,11.7419 138.113,11.5811 138.508,11.4242 138.904,11.2712 139.303,11.1223 139.702,10.9773 140.103,10.8363 140.505,10.6993 140.909,10.5664 141.314,10.4375 141.72,10.3127 142.128,10.1919 142.536,10.0753 142.946,9.96267 143.357,9.85419 143.769,9.74982 144.182,9.64957 144.596,9.55346 145.011,9.46149 145.427,9.37368 145.843,9.29003 146.261,9.21055 146.679,9.13525 147.098,9.06414 147.518,8.99722 147.938,8.9345 148.359,8.87599 148.781,8.82169 149.203,8.77161 149.625,8.72575 150.048,8.68412 150.472,8.64672 150.895,8.61355 151.319,8.58462 151.744,8.55994 152.168,8.5395 152.593,8.5233 153.018,8.51135 153.443,8.50366 153.868,8.50021 154.293,8.50101 154.718,8.50606 155.142,8.51536 155.567,8.52891 155.992,8.5467 156.416,8.56874 156.84,8.59503 157.264,8.62555 157.688,8.66031 158.111,8.69931 158.534,8.74253 158.956,8.78999 159.378,8.84166 159.799,8.89754 160.22,8.95764 160.64,9.02194 161.06,9.09045 161.478,9.16314 161.896,9.24001 162.314,9.32106 162.73,9.40628 163.145,9.49566 163.56,9.58919 163.974,9.68686 164.386,9.78866 164.798,9.89458 165.208,10.0046 165.618,10.1187 166.026,10.237 166.433,10.3593 166.839,10.4856 167.243,10.616 167.646,10.7505 168.048,10.889 168.449,11.0314 168.848,11.1779 169.245,11.3284 169.641,11.4828 170.035,11.6412 170.428,11.8035 170.819,11.9698 171.209,12.1399 171.597,12.3139 171.983,12.4918 172.367,12.6736 172.749,12.8592 173.13,13.0486 173.508,13.2417 173.885,13.4387 174.259,13.6394 174.632,13.8439 175.002,14.0521 175.371,14.2639 175.737,14.4795 176.101,14.6987 176.463,14.9215 176.823,15.1479 177.18,15.3779 177.535,15.6115 177.888,15.8486 178.238,16.0893 178.586,16.3334 178.932,16.581 179.274,16.832 179.615,17.0865 179.953,17.3443 180.288,17.6055 180.621,17.87 180.951,18.1379 181.278,18.4091 181.602,18.6835 181.924,18.9611 182.243,19.2419 182.559,19.5259 182.873,19.8131 183.183,20.1034 183.491,20.3968 183.795,20.6932 184.097,20.9926 184.395,21.2951 184.691,21.6005 184.983,21.9089 185.273,22.2202 185.559,22.5344 185.842,22.8514 186.122,23.1712 186.398,23.4938 186.672,23.8191 186.942,24.1472 187.209,24.478 187.472,24.8114 187.733,25.1474 187.99,25.486 188.243,25.8272 188.493,26.1709 188.74,26.517 188.983,26.8656 189.222,27.2167 189.458,27.5701 189.691,27.9258 189.92,28.2839 190.145,28.6442 190.367,29.0068 190.585,29.3715 190.799,29.7385 191.01,30.1075 191.217,30.4787 191.421,30.8518 191.62,31.2271 191.816,31.6042 192.008,31.9834 192.196,32.3644 192.381,32.7473 192.561,33.132 192.738,33.5185 192.911,33.9067 193.08,34.2967 193.245,34.6883 193.406,35.0816 193.563,35.4764 193.717,35.8728 193.866,36.2708 194.011,36.6702 194.153,37.071 194.29,37.4732 194.423,37.8768 194.552,38.2816 194.678,38.6878 194.799,39.0952 194.916,39.5038 195.029,39.9135 195.137,40.3243 195.242,40.7362 195.343,41.1491 195.439,41.563 195.531,41.9779 195.619,42.3937 195.703,42.8103 195.783,43.2277 195.859,43.6459 195.93,44.0649 195.998,44.4845 196.061,44.9048 196.12,45.3257 196.174,45.7472 196.225,46.1692 196.271,46.5917 196.313,47.0146 196.35,47.4379 196.384,47.8616 196.413,48.2856 196.438,48.7098 196.459,49.1343 196.476,49.559 196.488,49.9838 196.496,50.4087 196.5,50.8337 196.5,51 162.5,51 " />
</g>

<g fill="#dd5400" fill-opacity="1" stroke="none" transform="matrix(7.5e-05,0,0,7.5e-05,0,0)"
font-family="Helvetica" font-size="13" font-weight="700" font-style="normal" 
>
<path vector-effect="none" fill-rule="evenodd" d="M1.30031e+06,860958 L1.30383e+06,863337 L1.30737e+06,865682 L1.31094e+06,867990 L1.31453e+06,870263 L1.31815e+06,872499 L1.32178e+06,874700 L1.32544e+06,876864 L1.32912e+06,878991 L1.33282e+06,881081 L1.33654e+06,883134 L1.34028e+06,885150 L1.34404e+06,887129 L1.34783e+06,889069 L1.35163e+06,890972 L1.35544e+06,892837 L1.35928e+06,894663 L1.36314e+06,896451 L1.36701e+06,898200 L1.3709e+06,899911 L1.37481e+06,901582 L1.37873e+06,903214 L1.38267e+06,904807 L1.38663e+06,906361 L1.3906e+06,907875 L1.39459e+06,909349 L1.39859e+06,910783 L1.4026e+06,912177 L1.40663e+06,913531 L1.41067e+06,914844 L1.41473e+06,916117 L1.41879e+06,917350 L1.42287e+06,918541 L1.42697e+06,919692 L1.43107e+06,920802 L1.43518e+06,921871 L1.43931e+06,922898 L1.44344e+06,923885 L1.44758e+06,924830 L1.45174e+06,925733 L1.4559e+06,926595 L1.46007e+06,927415 L1.46425e+06,928194 L1.46843e+06,928930 L1.47262e+06,929625 L1.47682e+06,930278 L1.48103e+06,930888 L1.48524e+06,931457 L1.48946e+06,931984 L1.49368e+06,932468 L1.49791e+06,932910 L1.50214e+06,933310 L1.50637e+06,933667 L1.51061e+06,933982 L1.51485e+06,934255 L1.5191e+06,934485 L1.52334e+06,934673 L1.52759e+06,934818 L1.53184e+06,934921 L1.53609e+06,934982 L1.54034e+06,934999 L1.54459e+06,934975 L1.54884e+06,934908 L1.55309e+06,934798 L1.55733e+06,934646 L1.56158e+06,934451 L1.56582e+06,934214 L1.57006e+06,933935 L1.5743e+06,933613 L1.57854e+06,933249 L1.58277e+06,932842 L1.58699e+06,932394 L1.59121e+06,931903 L1.59543e+06,931369 L1.59964e+06,930794 L1.60385e+06,930177 L1.60804e+06,929517 L1.61224e+06,928816 L1.61642e+06,928072 L1.6206e+06,927287 L1.62477e+06,926460 L1.62893e+06,925592 L1.63308e+06,924682 L1.63722e+06,923730 L1.64135e+06,922738 L1.64547e+06,921703 L1.64959e+06,920628 L1.65369e+06,919512 L1.65778e+06,918354 L1.66185e+06,917156 L1.66592e+06,915917 L1.66997e+06,914638 L1.67401e+06,913318 L1.67804e+06,911958 L1.68205e+06,910557 L1.68605e+06,909117 L1.69003e+06,907636 L1.694e+06,906116 L1.69796e+06,904556 L1.70189e+06,902957 L1.70581e+06,901319 L1.70972e+06,899641 L1.71361e+06,897924 L1.71748e+06,896169 L1.72133e+06,894375 L1.72517e+06,892542 L1.72898e+06,890671 L1.73278e+06,888763 L1.73656e+06,886816 L1.74031e+06,884832 L1.74405e+06,882810 L1.74777e+06,880751 L1.75147e+06,878654 L1.75514e+06,876521 L1.7588e+06,874352 L1.76243e+06,872145 L1.76604e+06,869903 L1.76963e+06,867625 L1.77319e+06,865311 L1.77673e+06,862961 L1.78025e+06,860576 L1.78375e+06,858156 L1.78722e+06,855701 L1.79066e+06,853212 L1.79408e+06,850688 L1.79747e+06,848130 L1.80084e+06,845539 L1.80418e+06,842914 L1.8075e+06,840255 L1.81079e+06,837564 L1.81405e+06,834839 L1.81729e+06,832083 L1.82049e+06,829294 L1.82367e+06,826473 L1.82682e+06,823620 L1.82994e+06,820737 L1.83304e+06,817822 L1.8361e+06,814876 L1.83913e+06,811900 L1.84214e+06,808893 L1.84511e+06,805857 L1.84806e+06,802791 L1.85097e+06,799696 L1.85385e+06,796572 L1.8567e+06,793419 L1.85952e+06,790238 L1.8623e+06,787029 L1.86506e+06,783792 L1.86778e+06,780528 L1.87047e+06,777237 L1.87312e+06,773919 L1.87575e+06,770574 L1.87834e+06,767204 L1.88089e+06,763808 L1.88341e+06,760386 L1.8859e+06,756939 L1.88835e+06,753468 L1.89077e+06,749973 L1.89315e+06,746453 L1.8955e+06,742910 L1.89781e+06,739343 L1.90008e+06,735754 L1.90232e+06,732142 L1.90453e+06,728507 L1.90669e+06,724851 L1.90882e+06,721174 L1.91092e+06,717475 L1.91297e+06,713755 L1.91499e+06,710016 L1.91697e+06,706256 L1.91892e+06,702476 L1.92082e+06,698678 L1.92269e+06,694860 L1.92452e+06,691024 L1.92631e+06,687170 L1.92806e+06,683298 L1.92978e+06,679408 L1.93145e+06,675502 L1.93309e+06,671580 L1.93468e+06,667641 L1.93624e+06,663686 L1.93776e+06,659716 L1.93923e+06,655731 L1.94067e+06,651732 L1.94207e+06,647718 L1.94343e+06,643690 L1.94474e+06,639649 L1.94602e+06,635596 L1.94725e+06,631529 L1.94845e+06,627451 L1.9496e+06,623360 L1.95072e+06,619259 L1.95179e+06,615146 L1.95282e+06,611023 L1.95381e+06,606890 L1.95476e+06,602747 L1.95566e+06,598595 L1.95653e+06,594434 L1.95735e+06,590265 L1.95813e+06,586087 L1.95887e+06,581902 L1.95957e+06,577710 L1.96023e+06,573511 L1.96084e+06,569305 L1.96141e+06,565094 L1.96194e+06,560877 L1.96243e+06,556655 L1.96288e+06,552429 L1.96328e+06,548198 L1.96364e+06,543963 L1.96396e+06,539725 L1.96424e+06,535484 L1.96447e+06,531241 L1.96466e+06,526995 L1.96481e+06,522748 L1.96492e+06,518499 L1.96498e+06,514249 L1.965e+06,510000 L1.625e+06,510000 L1.625e+06,510788 L1.62498e+06,511638 L1.62496e+06,512487 L1.62493e+06,513337 L1.6249e+06,514186 L1.62485e+06,515035 L1.6248e+06,515883 L1.62473e+06,516731 L1.62466e+06,517578 L1.62458e+06,518424 L1.62449e+06,519269 L1.6244e+06,520114 L1.62429e+06,520957 L1.62418e+06,521799 L1.62405e+06,522641 L1.62392e+06,523481 L1.62379e+06,524319 L1.62364e+06,525156 L1.62348e+06,525992 L1.62332e+06,526826 L1.62315e+06,527658 L1.62296e+06,528489 L1.62278e+06,529317 L1.62258e+06,530144 L1.62237e+06,530969 L1.62216e+06,531792 L1.62194e+06,532612 L1.62171e+06,533430 L1.62147e+06,534246 L1.62122e+06,535060 L1.62097e+06,535871 L1.6207e+06,536679 L1.62043e+06,537485 L1.62015e+06,538288 L1.61987e+06,539088 L1.61957e+06,539885 L1.61927e+06,540679 L1.61896e+06,541470 L1.61864e+06,542258 L1.61831e+06,543043 L1.61798e+06,543825 L1.61764e+06,544603 L1.61729e+06,545377 L1.61693e+06,546148 L1.61656e+06,546916 L1.61619e+06,547680 L1.61581e+06,548440 L1.61542e+06,549196 L1.61503e+06,549948 L1.61462e+06,550696 L1.61421e+06,551441 L1.6138e+06,552181 L1.61337e+06,552917 L1.61294e+06,553648 L1.6125e+06,554375 L1.61205e+06,555098 L1.61159e+06,555816 L1.61113e+06,556530 L1.61066e+06,557239 L1.61019e+06,557943 L1.60971e+06,558643 L1.60922e+06,559337 L1.60872e+06,560027 L1.60822e+06,560712 L1.6077e+06,561391 L1.60719e+06,562066 L1.60666e+06,562735 L1.60613e+06,563399 L1.6056e+06,564058 L1.60505e+06,564711 L1.6045e+06,565359 L1.60394e+06,566001 L1.60338e+06,566637 L1.60281e+06,567268 L1.60224e+06,567894 L1.60165e+06,568513 L1.60107e+06,569127 L1.60047e+06,569734 L1.59987e+06,570336 L1.59926e+06,570932 L1.59865e+06,571521 L1.59803e+06,572105 L1.59741e+06,572682 L1.59678e+06,573253 L1.59615e+06,573818 L1.5955e+06,574376 L1.59486e+06,574928 L1.59421e+06,575473 L1.59355e+06,576012 L1.59289e+06,576544 L1.59222e+06,577069 L1.59154e+06,577588 L1.59087e+06,578100 L1.59018e+06,578606 L1.58949e+06,579104 L1.5888e+06,579595 L1.5881e+06,580080 L1.5874e+06,580557 L1.58669e+06,581028 L1.58598e+06,581491 L1.58526e+06,581947 L1.58454e+06,582396 L1.58381e+06,582838 L1.58308e+06,583273 L1.58235e+06,583700 L1.58161e+06,584120 L1.58086e+06,584532 L1.58012e+06,584937 L1.57937e+06,585334 L1.57861e+06,585724 L1.57785e+06,586106 L1.57709e+06,586481 L1.57632e+06,586848 L1.57555e+06,587208 L1.57478e+06,587559 L1.574e+06,587903 L1.57322e+06,588239 L1.57244e+06,588567 L1.57165e+06,588888 L1.57086e+06,589200 L1.57006e+06,589505 L1.56927e+06,589802 L1.56847e+06,590090 L1.56767e+06,590371 L1.56686e+06,590644 L1.56605e+06,590908 L1.56524e+06,591165 L1.56443e+06,591413 L1.56361e+06,591653 L1.5628e+06,591885 L1.56198e+06,592109 L1.56115e+06,592325 L1.56033e+06,592532 L1.5595e+06,592732 L1.55868e+06,592922 L1.55785e+06,593105 L1.55701e+06,593279 L1.55618e+06,593445 L1.55534e+06,593603 L1.55451e+06,593752 L1.55367e+06,593893 L1.55283e+06,594026 L1.55199e+06,594150 L1.55115e+06,594265 L1.5503e+06,594373 L1.54946e+06,594472 L1.54861e+06,594562 L1.54777e+06,594644 L1.54692e+06,594717 L1.54607e+06,594782 L1.54523e+06,594839 L1.54438e+06,594887 L1.54353e+06,594926 L1.54268e+06,594957 L1.54183e+06,594980 L1.54098e+06,594994 L1.54013e+06,594999 L1.53928e+06,594996 L1.53843e+06,594985 L1.53758e+06,594965 L1.53673e+06,594937 L1.53588e+06,594900 L1.53503e+06,594854 L1.53418e+06,594800 L1.53334e+06,594738 L1.53249e+06,594667 L1.53164e+06,594588 L1.5308e+06,594500 L1.52995e+06,594404 L1.52911e+06,594299 L1.52827e+06,594186 L1.52743e+06,594064 L1.52659e+06,593934 L1.52575e+06,593796 L1.52491e+06,593649 L1.52407e+06,593494 L1.52324e+06,593331 L1.52241e+06,593159 L1.52158e+06,592979 L1.52075e+06,592791 L1.51992e+06,592594 L1.5191e+06,592389 L1.51827e+06,592176 L1.51745e+06,591954 L1.51663e+06,591725 L1.51582e+06,591487 L1.515e+06,591241 L1.51419e+06,590987 L1.51338e+06,590725 L1.51258e+06,590455 L1.51178e+06,590177 L1.51098e+06,589891 L1.51018e+06,589596 L1.50938e+06,589294 L1.50859e+06,588984 L1.5078e+06,588666 L1.50702e+06,588340 L1.50624e+06,588006 L1.50546e+06,587665 L1.50468e+06,587316 L1.50391e+06,586958 L1.50314e+06,586594 L1.50238e+06,586221 L1.50162e+06,585841 L1.50086e+06,585454 L1.50011e+06,585059 L1.49936e+06,584656 L1.49862e+06,584246 L1.49788e+06,583828 L1.49714e+06,583404 L1.49641e+06,582971 L1.49568e+06,582532 L1.49496e+06,582085 L1.49424e+06,581631 L1.49353e+06,581170 L1.49282e+06,580701 L1.49211e+06,580226 L1.49141e+06,579744 L1.49072e+06,579254 L1.49003e+06,578758 L1.48934e+06,578255 L1.48866e+06,577745 L1.48799e+06,577228 L1.48732e+06,576705 L1.48665e+06,576175 L1.48599e+06,575638 L1.48534e+06,575094 L1.48469e+06,574545 L1.48405e+06,573988 L1.48341e+06,573426 L1.48278e+06,572857 L1.48216e+06,572281 L1.48154e+06,571700 L1.48092e+06,571112 L1.48031e+06,570518 L1.47971e+06,569918 L1.47912e+06,569312 L1.47852e+06,568701 L1.47794e+06,568083 L1.47736e+06,567459 L1.47679e+06,566830 L1.47623e+06,566195 L1.47567e+06,565555 L1.47512e+06,564909 L1.47457e+06,564257 L1.47403e+06,563600 L1.4735e+06,562938 L1.47297e+06,562270 L1.47245e+06,561597 L1.47194e+06,560919 L1.47143e+06,560236 L1.47094e+06,559548 L1.47044e+06,558855 L1.46996e+06,558157 L1.46948e+06,557454 L1.46901e+06,556746 L1.46855e+06,556034 L1.46809e+06,555317 L1.46764e+06,554596 L1.4672e+06,553870 L1.46676e+06,553140 L1.46633e+06,552405 L1.46591e+06,551667 L1.4655e+06,550924 L1.46509e+06,550177 L1.4647e+06,549426 L1.46431e+06,548671 L1.46392e+06,547912 L1.46355e+06,547149 L1.46318e+06,546383 L1.46282e+06,545613 L1.46247e+06,544839 L1.46212e+06,544062 L1.46179e+06,543282 L1.46146e+06,542498 L1.46114e+06,541711 L1.46082e+06,540921 L1.46052e+06,540127 L1.46022e+06,539331 L1.45993e+06,538532 L1.45965e+06,537730 L1.45938e+06,536925 L1.45911e+06,536117 L1.45885e+06,535307 L1.45861e+06,534494 L1.45837e+06,533679 L1.45813e+06,532862 L1.45791e+06,532042 L1.45769e+06,531220 L1.45748e+06,530396 L1.45728e+06,529570 L1.45709e+06,528741 L1.45691e+06,527911 L1.45673e+06,527080 L1.45657e+06,526246 L1.45641e+06,525411 L1.45626e+06,524574 L1.45612e+06,523736 L1.45598e+06,522897 L1.11992e+06,574485 L1.12054e+06,578378 L1.12124e+06,582569 L1.12199e+06,586753 L1.12278e+06,590929 L1.12361e+06,595097 L1.12448e+06,599257 L1.12539e+06,603408 L1.12635e+06,607549 L1.12734e+06,611681 L1.12838e+06,615802 L1.12946e+06,619913 L1.13058e+06,624013 L1.13174e+06,628101 L1.13294e+06,632178 L1.13418e+06,636242 L1.13547e+06,640294 L1.13679e+06,644333 L1.13815e+06,648358 L1.13956e+06,652370 L1.141e+06,656367 L1.14248e+06,660349 L1.14401e+06,664317 L1.14557e+06,668269 L1.14717e+06,672205 L1.14881e+06,676126 L1.15049e+06,680029 L1.15221e+06,683916 L1.15397e+06,687785 L1.15577e+06,691636 L1.1576e+06,695469 L1.15948e+06,699284 L1.16139e+06,703079 L1.16334e+06,706856 L1.16533e+06,710613 L1.16735e+06,714349 L1.16941e+06,718065 L1.17151e+06,721761 L1.17365e+06,725435 L1.17582e+06,729088 L1.17803e+06,732718 L1.18028e+06,736327 L1.18256e+06,739913 L1.18487e+06,743476 L1.18723e+06,747015 L1.18962e+06,750531 L1.19204e+06,754023 L1.1945e+06,757490 L1.19699e+06,760933 L1.19951e+06,764350 L1.20207e+06,767742 L1.20467e+06,771109 L1.2073e+06,774449 L1.20996e+06,777763 L1.21265e+06,781049 L1.21538e+06,784309 L1.21814e+06,787542 L1.22093e+06,790747 L1.22375e+06,793923 L1.22661e+06,797071 L1.22949e+06,800191 L1.23241e+06,803281 L1.23536e+06,806343 L1.23834e+06,809374 L1.24135e+06,812376 L1.24439e+06,815347 L1.24745e+06,818288 L1.25055e+06,821198 L1.25368e+06,824077 L1.25683e+06,826924 L1.26002e+06,829740 L1.26323e+06,832524 L1.26647e+06,835275 L1.26973e+06,837994 L1.27303e+06,840681 L1.27635e+06,843334 L1.27969e+06,845954 L1.28307e+06,848540 L1.28646e+06,851092 L1.28989e+06,853611 L1.29334e+06,856094 L1.29681e+06,858544 L1.30031e+06,860958"/>
</g>

<g fill="none" stroke="#000000" stroke-opacity="1" stroke-width="2.66667" stroke-linecap="square" stroke-linejoin="miter" stroke-miterlimit="2" transform="matrix(0.75,0,0,0.75,0,0)"
font-family="Helvetica" font-size="13" font-weight="700" font-style="normal" 
>
<polyline fill="none" vector-effect="none" points="145.598,52.2897 145.612,52.3737 145.626,52.4575 145.641,52.5411 145.657,52.6247 145.673,52.708 145.691,52.7912 145.709,52.8742 145.728,52.957 145.748,53.0396 145.769,53.122 145.791,53.2042 145.813,53.2862 145.837,53.368 145.861,53.4495 145.885,53.5308 145.911,53.6118 145.938,53.6925 145.965,53.773 145.993,53.8532 146.022,53.9331 146.052,54.0128 146.082,54.0921 146.114,54.1711 146.146,54.2498 146.179,54.3282 146.212,54.4063 146.247,54.484 146.282,54.5613 146.318,54.6383 146.355,54.715 146.392,54.7912 146.431,54.8671 146.47,54.9426 146.509,55.0177 146.55,55.0924 146.591,55.1667 146.633,55.2406 146.676,55.314 146.72,55.3871 146.764,55.4596 146.809,55.5318 146.855,55.6035 146.901,55.6747 146.948,55.7454 146.996,55.8157 147.044,55.8855 147.094,55.9548 147.143,56.0236 147.194,56.092 147.245,56.1598 147.297,56.2271 147.35,56.2938 147.403,56.3601 147.457,56.4258 147.512,56.4909 147.567,56.5555 147.623,56.6196 147.679,56.6831 147.736,56.746 147.794,56.8083 147.852,56.8701 147.911,56.9313 147.971,56.9919 148.031,57.0519 148.092,57.1112 148.154,57.17 148.216,57.2282 148.278,57.2857 148.341,57.3426 148.405,57.3989 148.469,57.4545 148.534,57.5095 148.599,57.5638 148.665,57.6175 148.732,57.6705 148.799,57.7229 148.866,57.7745 148.934,57.8255 149.003,57.8759 149.072,57.9255 149.141,57.9744 149.211,58.0227 149.282,58.0702 149.353,58.117 149.424,58.1631 149.496,58.2085 149.568,58.2532 149.641,58.2972 149.714,58.3404 149.788,58.3829 149.862,58.4246 149.936,58.4657 150.011,58.5059 150.086,58.5454 150.162,58.5842 150.238,58.6222 150.314,58.6594 150.391,58.6959 150.468,58.7316 150.546,58.7665 150.624,58.8007 150.702,58.8341 150.78,58.8666 150.859,58.8984 150.938,58.9295 151.018,58.9597 151.098,58.9891 151.178,59.0177 151.258,59.0455 151.338,59.0726 151.419,59.0988 151.5,59.1242 151.582,59.1488 151.663,59.1725 151.745,59.1955 151.827,59.2176 151.91,59.2389 151.992,59.2594 152.075,59.2791 152.158,59.2979 152.241,59.316 152.324,59.3331 152.407,59.3495 152.491,59.365 152.575,59.3797 152.659,59.3935 152.743,59.4065 152.827,59.4186 152.911,59.4299 152.995,59.4404 153.08,59.45 153.164,59.4588 153.249,59.4668 153.334,59.4738 153.418,59.4801 153.503,59.4855 153.588,59.49 153.673,59.4937 153.758,59.4966 153.843,59.4986 153.928,59.4997 154.013,59.5 154.098,59.4994 154.183,59.498 154.268,59.4958 154.353,59.4927 154.438,59.4887 154.523,59.4839 154.607,59.4783 154.692,59.4718 154.777,59.4644 154.861,59.4562 154.946,59.4472 155.03,59.4373 155.115,59.4266 155.199,59.415 155.283,59.4026 155.367,59.3894 155.451,59.3753 155.534,59.3603 155.618,59.3446 155.701,59.328 155.785,59.3106 155.868,59.2923 155.95,59.2732 156.033,59.2533 156.115,59.2325 156.198,59.211 156.28,59.1886 156.361,59.1654 156.443,59.1414 156.524,59.1165 156.605,59.0909 156.686,59.0644 156.767,59.0372 156.847,59.0091 156.927,58.9802 157.006,58.9506 157.086,58.9201 157.165,58.8888 157.244,58.8568 157.322,58.824 157.4,58.7904 157.478,58.756 157.555,58.7208 157.632,58.6849 157.709,58.6482 157.785,58.6107 157.861,58.5725 157.937,58.5335 158.012,58.4937 158.086,58.4532 158.161,58.412 158.235,58.37 158.308,58.3273 158.381,58.2839 158.454,58.2397 158.526,58.1948 158.598,58.1492 158.669,58.1028 158.74,58.0558 158.81,58.008 158.88,57.9596 158.949,57.9104 159.018,57.8606 159.087,57.8101 159.154,57.7589 159.222,57.707 159.289,57.6544 159.355,57.6012 159.421,57.5473 159.486,57.4928 159.55,57.4376 159.615,57.3818 159.678,57.3253 159.741,57.2682 159.803,57.2105 159.865,57.1522 159.926,57.0932 159.987,57.0337 160.047,56.9735 160.107,56.9127 160.165,56.8514 160.224,56.7894 160.281,56.7269 160.338,56.6638 160.394,56.6001 160.45,56.5359 160.505,56.4711 160.56,56.4058 160.613,56.3399 160.666,56.2735 160.719,56.2066 160.77,56.1392 160.822,56.0712 160.872,56.0027 160.922,55.9338 160.971,55.8643 161.019,55.7944 161.066,55.7239 161.113,55.653 161.159,55.5817 161.205,55.5098 161.25,55.4376 161.294,55.3649 161.337,55.2917 161.38,55.2181 161.421,55.1441 161.462,55.0697 161.503,54.9949 161.542,54.9196 161.581,54.844 161.619,54.768 161.656,54.6916 161.693,54.6149 161.729,54.5378 161.764,54.4603 161.798,54.3825 161.831,54.3044 161.864,54.2259 161.896,54.1471 161.927,54.068 161.957,53.9885 161.987,53.9088 162.015,53.8288 162.043,53.7485 162.07,53.6679 162.097,53.5871 162.122,53.506 162.147,53.4247 162.171,53.3431 162.194,53.2613 162.216,53.1792 162.237,53.0969 162.258,53.0145 162.278,52.9318 162.296,52.8489 162.315,52.7659 162.332,52.6826 162.348,52.5992 162.364,52.5157 162.379,52.432 162.392,52.3481 162.405,52.2641 162.418,52.18 162.429,52.0958 162.44,52.0114 162.449,51.927 162.458,51.8424 162.466,51.7578 162.473,51.6731 162.48,51.5883 162.485,51.5035 162.49,51.4187 162.493,51.3337 162.496,51.2488 162.498,51.1638 162.5,51.0788 162.5,51 196.5,51 196.498,51.425 196.492,51.8499 196.481,52.2748 196.466,52.6995 196.447,53.1241 196.424,53.5485 196.396,53.9726 196.364,54.3964 196.328,54.8198 196.288,55.2429 196.243,55.6656 196.194,56.0878 196.141,56.5095 196.084,56.9306 196.023,57.3511 195.957,57.771 195.887,58.1903 195.813,58.6088 195.735,59.0265 195.653,59.4434 195.566,59.8595 195.476,60.2748 195.381,60.689 195.282,61.1024 195.179,61.5147 195.072,61.9259 194.96,62.3361 194.845,62.7451 194.725,63.153 194.602,63.5596 194.474,63.965 194.342,64.3691 194.207,64.7718 194.067,65.1732 193.923,65.5732 193.776,65.9717 193.624,66.3687 193.468,66.7641 193.309,67.158 193.145,67.5503 192.978,67.9409 192.806,68.3298 192.631,68.717 192.452,69.1024 192.269,69.486 192.082,69.8678 191.892,70.2477 191.697,70.6256 191.499,71.0016 191.297,71.3756 191.092,71.7475 190.882,72.1174 190.669,72.4852 190.453,72.8508 190.232,73.2142 190.008,73.5754 189.781,73.9344 189.55,74.291 189.315,74.6453 189.077,74.9973 188.835,75.3469 188.59,75.694 188.341,76.0387 188.089,76.3808 187.834,76.7204 187.575,77.0575 187.312,77.3919 187.047,77.7237 186.778,78.0528 186.506,78.3792 186.23,78.7029 185.952,79.0238 185.67,79.342 185.385,79.6572 185.097,79.9697 184.806,80.2792 184.511,80.5857 184.214,80.8894 183.913,81.19 183.61,81.4876 183.304,81.7822 182.994,82.0737 182.682,82.3621 182.367,82.6473 182.049,82.9294 181.729,83.2083 181.405,83.484 181.079,83.7564 180.75,84.0256 180.418,84.2914 180.084,84.5539 179.747,84.8131 179.408,85.0688 179.066,85.3212 178.722,85.5702 178.375,85.8156 178.025,86.0576 177.673,86.2961 177.319,86.5311 176.963,86.7625 176.604,86.9904 176.243,87.2146 175.88,87.4352 175.514,87.6522 175.147,87.8655 174.777,88.0751 174.405,88.281 174.031,88.4832 173.656,88.6816 173.278,88.8763 172.898,89.0672 172.517,89.2543 172.133,89.4375 171.748,89.6169 171.361,89.7925 170.972,89.9641 170.581,90.1319 170.189,90.2958 169.796,90.4557 169.4,90.6117 169.003,90.7637 168.605,90.9117 168.205,91.0558 167.804,91.1958 167.401,91.3318 166.997,91.4638 166.592,91.5918 166.185,91.7157 165.778,91.8355 165.369,91.9512 164.959,92.0629 164.547,92.1704 164.135,92.2738 163.722,92.3731 163.308,92.4682 162.893,92.5592 162.477,92.6461 162.06,92.7288 161.642,92.8073 161.224,92.8816 160.804,92.9518 160.385,93.0177 159.964,93.0794 159.543,93.137 159.121,93.1903 158.699,93.2394 158.277,93.2843 157.854,93.3249 157.43,93.3614 157.006,93.3935 156.582,93.4215 156.158,93.4452 155.733,93.4646 155.309,93.4799 154.884,93.4908 154.459,93.4975 154.034,93.5 153.609,93.4982 153.184,93.4922 152.759,93.4819 152.334,93.4673 151.91,93.4486 151.485,93.4255 151.061,93.3983 150.637,93.3668 150.214,93.331 149.791,93.291 149.368,93.2468 148.946,93.1984 148.524,93.1458 148.103,93.0889 147.682,93.0278 147.262,92.9625 146.843,92.8931 146.425,92.8194 146.007,92.7416 145.59,92.6595 145.174,92.5734 144.758,92.483 144.344,92.3885 143.931,92.2899 143.518,92.1871 143.107,92.0803 142.697,91.9693 142.287,91.8542 141.879,91.735 141.473,91.6118 141.067,91.4845 140.663,91.3531 140.26,91.2178 139.859,91.0783 139.459,90.9349 139.06,90.7875 138.663,90.6361 138.267,90.4808 137.873,90.3215 137.481,90.1583 137.09,89.9911 136.701,89.8201 136.314,89.6451 135.928,89.4663 135.544,89.2837 135.163,89.0972 134.783,88.907 134.404,88.7129 134.028,88.5151 133.654,88.3135 133.282,88.1082 132.912,87.8991 132.544,87.6864 132.178,87.47 131.815,87.25 131.453,87.0263 131.094,86.799 130.737,86.5682 130.383,86.3338 130.031,86.0959 129.681,85.8544 129.334,85.6095 128.989,85.3611 128.646,85.1093 128.307,84.854 127.969,84.5954 127.635,84.3334 127.303,84.0681 126.973,83.7995 126.647,83.5276 126.323,83.2524 126.002,82.9741 125.683,82.6925 125.368,82.4077 125.055,82.1198 124.745,81.8288 124.439,81.5348 124.135,81.2376 123.834,80.9375 123.536,80.6343 123.241,80.3282 122.949,80.0191 122.661,79.7072 122.375,79.3924 122.093,79.0747 121.814,78.7542 121.538,78.431 121.265,78.105 120.996,77.7763 120.73,77.4449 120.467,77.1109 120.207,76.7743 119.951,76.4351 119.699,76.0933 119.45,75.7491 119.204,75.4023 118.962,75.0531 118.723,74.7016 118.487,74.3476 118.256,73.9913 118.028,73.6327 117.803,73.2719 117.582,72.9088 117.365,72.5435 117.151,72.1761 116.941,71.8066 116.735,71.435 116.533,71.0613 116.334,70.6856 116.139,70.308 115.948,69.9284 115.76,69.547 115.577,69.1636 115.397,68.7785 115.221,68.3916 115.049,68.003 114.881,67.6126 114.717,67.2206 114.557,66.827 114.401,66.4317 114.248,66.035 114.1,65.6367 113.956,65.237 113.815,64.8358 113.679,64.4333 113.547,64.0294 113.418,63.6243 113.294,63.2178 113.174,62.8102 113.058,62.4013 112.946,61.9913 112.838,61.5802 112.734,61.1681 112.635,60.7549 112.539,60.3408 112.448,59.9257 112.361,59.5098 112.278,59.093 112.199,58.6753 112.124,58.257 112.054,57.8378 111.992,57.4486 145.598,52.2897 " />
</g>

<g fill="#ffffff" fill-opacity="1" stroke="#ffffff" stroke-opacity="1" stroke-width="1" stroke-linecap="square" stroke-linejoin="bevel" transform="matrix(0.75,0,0,0.75,100.17,22.5554)"
font-family="Helvetica" font-size="13" font-weight="700" font-style="normal" 
>
<text fill="#ffffff" fill-opacity="1" stroke="none" xml:space="preserve" x="0" y="0" font-family="Helvetica" font-size="13" font-weight="700" font-style="normal" 
 >52.4%</text>
</g>

<g fill="#ffffff" fill-opacity="1" stroke="#ffffff" stroke-opacity="1" stroke-width="1" stroke-linecap="square" stroke-linejoin="bevel" transform="matrix(0.75,0,0,0.75,103.08,60.6946)"
font-family="Helvetica" font-size="13" font-weight="700" font-style="normal" 
>
<text fill="#ffffff" fill-opacity="1" stroke="none" xml:space="preserve" x="0" y="0" font-family="Helvetica" font-size="13" font-weight="700" font-style="normal" 
 >47.6%</text>
</g>

<g fill="#000000" fill-opacity="1" stroke="#000000" stroke-opacity="1" stroke-width="1" stroke-linecap="square" stroke-linejoin="bevel" transform="matrix(0.75,0,0,0.75,118.895,91.7456)"
font-family="Helvetica" font-size="13" font-weight="700" font-style="normal" 
>
<text fill="#000000" fill-opacity="1" stroke="none" xml:space="preserve" x="0" y="0" font-family="Helvetica" font-size="13" font-weight="700" font-style="normal" 
 >Label 2</text>
</g>
</g>
</svg>
