<?xml version="1.0" encoding="UTF-8"?>
<svg id="_图层_1" data-name="图层_1" xmlns="http://www.w3.org/2000/svg" viewBox="0 0 212.67 97.67">
  <path d="M9.92,76.07l.27.39.28.39.28.38.29.38.29.38.29.37.3.37.3.37.3.36.31.36.31.36.32.36.32.35.32.35.33.35.33.34.33.34.34.34.34.33.34.33.35.33.35.32.35.32.36.32.36.31.36.31.36.3.37.3.37.3.37.29.38.29.38.29.38.28.39.28.39.27.39.27.39.27.4.26.4.26.4.25.4.25.41.25.41.24.41.24.41.23.42.23.42.23.42.22.42.22.42.21.43.21.43.2.43.2.43.2.43.19.44.19.44.18.44.18.44.17.44.17.45.17.45.16.45.16.45.15.45.15.45.14.45.14.46.13.46.13.46.12.46.12.46.12.46.11.46.11.46.1.47.1.47.09.47.09.47.08.47.08.47.07.47.07.47.06.47.06.47.05.47.05.47.05.47.04.47.04.47.03.47.03.47.02.47.02h.47s.47.02.47.02h.47s.47,0,.47,0h.47s.47-.02.47-.02l.47-.02.47-.02.47-.03.47-.03.47-.04.47-.04.47-.05.47-.05.47-.05.47-.06.47-.06.47-.07.47-.07.47-.08.47-.08.47-.09.47-.09.47-.1.46-.1.46-.11.46-.11.46-.12.46-.12.46-.12.46-.13.46-.13.45-.14.45-.14.45-.15.45-.15.45-.16.45-.16.45-.16.44-.17.44-.17.44-.18.44-.18.44-.19.43-.19.43-.2.43-.2.43-.2.43-.21.42-.21.42-.22.42-.22.42-.23.42-.23.41-.23.41-.24.41-.24.41-.25.4-.25.4-.25.4-.26.4-.26.39-.27.39-.27.39-.27.39-.28.38-.28.38-.29.38-.29.37-.29.37-.3.37-.3.36-.3.36-.31.36-.31.36-.31.35-.32.35-.32.35-.33.34-.33.34-.33.34-.34.33-.34.33-.34.33-.35.32-.35.32-.35.32-.36.31-.36.31-.36.3-.36.3-.37.3-.37.29-.37.29-.38.29-.38.28-.38.28-.38.27-.39.27-.39.27-.39.26-.4.26-.4.25-.4.25-.4.25-.41.24-.41.24-.41.23-.41.23-.42.23-.42.22-.42.22-.42.21-.42.21-.43.2-.43.2-.43.2-.43.19-.43.19-.44.18-.44.18-.44.17-.44.17-.44.17-.45.16-.45.16-.45.15-.45.15-.45.14-.45.14-.45.13-.46.13-.46.12-.46.12-.46.12-.46.11-.46.11-.46.1-.46.1-.47.09-.47.09-.47.08-.47.08-.47.07-.47.07-.47.06-.47.06-.47.06-.47.05-.47.05-.47.04-.47.04-.47.03-.47.03-.47.02-.47.02-.47v-.47s-37.98-.8-37.98-.8v.02s0,.1,0,.1v.09s0,.09,0,.09v.09s-.01.09-.01.09v.09s-.02.09-.02.09v.09s-.02.09-.02.09v.09s-.02.09-.02.09v.09s-.03.09-.03.09v.09s-.03.09-.03.09l-.02.09-.02.09-.02.09-.02.09-.02.09-.02.09-.02.09-.02.09-.02.09-.03.09-.03.09-.03.09-.03.09-.03.09-.03.09-.03.09-.03.09-.03.09-.03.09-.03.09-.04.09-.04.09-.04.09-.04.09-.04.09-.04.09-.04.09-.04.09-.04.09-.04.08-.04.08-.04.08-.05.08-.05.08-.05.08-.05.08-.05.08-.05.08-.05.08-.05.08-.05.08-.05.08-.05.08-.05.08-.06.08-.06.08-.06.08-.06.08-.06.08-.06.07-.06.07-.06.07-.06.07-.06.07-.06.07-.06.07-.06.07-.06.07-.07.07-.07.07-.07.07-.07.07-.07.07-.07.07-.07.06-.07.06-.07.06-.07.06-.07.06-.07.06-.07.06-.07.06-.07.06-.07.06-.08.06-.08.06-.08.06-.08.06-.08.05-.08.05-.08.05-.08.05-.08.05-.08.05-.08.05-.08.05-.08.05-.08.05-.08.05-.08.05-.08.04-.08.04-.08.04-.08.04-.09.04-.09.04-.09.04-.09.04-.09.04-.09.04-.09.04-.09.04-.09.03-.09.03-.09.03-.09.03-.09.03-.09.03-.09.03-.09.03-.09.03-.09.03-.09.03-.09.02-.09.02-.09.02-.09.02-.09.02-.09.02-.09.02-.09.02-.09.02-.09.02-.09.02h-.09s-.09.03-.09.03h-.09s-.09.02-.09.02h-.09s-.09.02-.09.02h-.09s-.09.02-.09.02h-.09s-.09.01-.09.01h-.09s-.09,0-.09,0h-.09s-.09,0-.09,0h-.1s-.1,0-.1,0h-.09s-.1,0-.1,0h-.09s-.1,0-.1,0h-.09s-.09-.01-.09-.01h-.09s-.09-.01-.09-.01h-.09s-.09-.02-.09-.02h-.09s-.09-.02-.09-.02h-.09s-.09-.03-.09-.03h-.09s-.09-.03-.09-.03l-.09-.02-.09-.02-.09-.02-.09-.02-.09-.02-.09-.02-.09-.02-.09-.02-.09-.02-.09-.02-.09-.03-.09-.03-.09-.03-.09-.03-.09-.03-.09-.03-.09-.03-.09-.03-.09-.03-.09-.03-.09-.03-.09-.03-.09-.04-.09-.04-.09-.04-.09-.04-.09-.04-.09-.04-.09-.04-.09-.04-.08-.04-.08-.04-.08-.04-.08-.05-.08-.05-.08-.05-.08-.05-.08-.05-.08-.05-.08-.05-.08-.05-.08-.05-.08-.05-.08-.05-.08-.05-.08-.06-.08-.06-.08-.06-.08-.06-.08-.06-.07-.06-.07-.06-.07-.06-.07-.06-.07-.06-.07-.06-.07-.06-.07-.06-.07-.06-.07-.07-.07-.07-.07-.07-.07-.07-.07-.07-.07-.07-.06-.07-.06-.07-.06-.07-.06-.07-.06-.07-.06-.07-.06-.07-.06-.07-.06-.07-.06-.07-.06-.08-.06-.08-.06-.08-.06-.08-.05-.08-.05-.08-.05-.08-.05-.08-.05-.08-.05-.08-.05-.08-.05-.08-.05-.08-.05-.08-.05-.08-.05-.08-.05-.08-.04-.08-.04-.08-.04-.08-.04-.09-.04-.09-.04-.09-.04-.09-.04-.09-.04-.09-.04-.09-.04-.09-.03-.09-.03-.09-.03-.09-.03-.09-.03-.09-.03-.09-.03-.09-.03-.09-.03-.09-.03-.09-.03-.09-.02-.09-.02-.09-.02-.09-.02-.09-.02-.09-.02-.09-.02-.09-.02-.09-.02-.09-.02-.09-.02-.09v-.09s-.03-.09-.03-.09v-.09s-.02-.09-.02-.09v-.09s-.02-.09-.02-.09v-.09s-.02-.09-.02-.09v-.09s-.01-.09-.01-.09v-.09s0-.09,0-.09v-.1s0-.09,0-.09v-.1s0-.09,0-.09v-.1s0-.1,0-.1v-.09s0-.09,0-.09v-.09s0-.09,0-.09v-.09s.01-.09.01-.09v-.09s.02-.09.02-.09v-.09s.02-.09.02-.09v-.09s.03-.09.03-.09v-.09s.03-.09.03-.09l.02-.09.02-.09.02-.09.02-.09.02-.09.02-.09.02-.09.02-.09.02-.09.02-.09.03-.09.03-.09.03-.09.03-.09.03-.09.03-.09.03-.09.03-.09.03-.09.03-.09.03-.09.03-.09.04-.09.04-.09.04-.09.04-.09.04-.09.04-.09.04-.09.04-.09.04-.08.04-.08.04-.08.05-.08.05-.08.05-.08.05-.08.05-.08.05-.08.05-.08.05-.08.05-.08.05-.08.05-.08.05-.08.06-.08.06-.08.06-.08.06-.08.06-.08.06-.07.06-.07.06-.07.06-.07.06-.07.06-.07.06-.07.06-.07.06-.07.07-.07.07-.07.07-.07.07-.07.07-.07.07-.07.07-.06.07-.06.07-.06.07-.06.07-.06.07-.06.07-.06.07-.06.07-.06.07-.06.08-.06.08-.06.08-.06.08-.06.08-.05.08-.05.08-.05.08-.05.08-.05.08-.05.08-.05.08-.05.08-.05.08-.05.08-.05.08-.05.08-.05.08-.04.08-.04.08-.04.09-.04.09-.04.09-.04.09-.04.09-.04.09-.04.09-.04.09-.04.09-.03.09-.03.09-.03.09-.03.09-.03.09-.03.09-.03.09-.03.09-.03.09-.03.09-.03.09-.02.09-.02.09-.02.09-.02.09-.02.09-.02.09-.02.09-.02.09-.02.09-.02.09-.02h.09s.09-.03.09-.03h.09s.09-.02.09-.02h.09s.09-.02.09-.02h.09s.09-.02.09-.02h.09s.09-.01.09-.01h.09s.09,0,.09,0h.09s.1,0,.1,0h.1s.09,0,.09,0h.1s.1,0,.1,0h.09s.1,0,.1,0h.09s.09,0,.09,0h.09s.09.01.09.01h.09s.09.02.09.02h.09s.09.02.09.02h.09s.09.02.09.02h.09s.09.03.09.03l.09.02.09.02.09.02.09.02.09.02.09.02.09.02.09.02.09.02.09.02.09.02.09.03.09.03.09.03.09.03.09.03.09.03.09.03.09.03.09.03.09.03.09.03.09.04.09.04.09.04.09.04.09.04.09.04.09.04.09.04.08.04.08.04.08.04.08.05.08.05.08.05.08.05.08.05.08.05.08.05.08.05.08.05.08.05.08.05.08.05.08.05.08.06.08.06.08.06.08.06.07.06.07.06.07.06.07.06.07.06.07.06.07.06.07.06.07.06.07.07.07.07.07.07.07.07.07.07.07.07.07.07.06.07.06.07.06.07.06.07.06.07.06.07.06.07.06.07.06.07.06.08.06.08.06.08.06.08.05.08.05.08.05.08.05.08.05.08.05.08.05.08.05.08.05.08.05.08.05.08.05.08.05.08.04.08.04.08.04.08.04.09.04.09.04.09.04.09.04.09.04.09.04.09.04.09.03.09.03.09.03.09.03.09.03.09.03.09.03.09.03.09.03.09.03.09.03.09.02.09.02.09.02.09.02.09.02.09.02.09.02.09.02.09.02.09.02.09.02.09v.09s.03.09.03.09v.09s.02.09.02.09v.09s.02.09.02.09v.09s.02.09.02.09v.09s.01.09.01.09v.09s0,.09,0,.09v.09s0,.1,0,.1v.09s0,.1,0,.1h38v-.11s0-.48,0-.48v-.47s-.02-.47-.02-.47l-.02-.47-.02-.47-.03-.47-.03-.47-.04-.47-.04-.47-.05-.47-.05-.47-.06-.47-.06-.47-.06-.47-.07-.47-.07-.47-.08-.47-.08-.47-.09-.47-.09-.47-.1-.46-.1-.46-.11-.46-.11-.46-.12-.46-.12-.46-.13-.46-.13-.46-.13-.46-.14-.45-.14-.45-.15-.45-.15-.45-.16-.45-.16-.45-.17-.44-.17-.44-.17-.44-.18-.44-.18-.44-.19-.44-.19-.43-.2-.43-.2-.43-.21-.43-.21-.43-.21-.42-.22-.42-.22-.42-.23-.42-.23-.42-.23-.41-.24-.41-.24-.41-.25-.41-.25-.4-.26-.4-.26-.4-.26-.4-.27-.39-.27-.39-.27-.39-.28-.38-.28-.38-.29-.38-.29-.38-.29-.37-.3-.37-.3-.37-.31-.36-.31-.36-.31-.36-.32-.35-.32-.35-.32-.35-.33-.35-.33-.34-.33-.34-.34-.34-.34-.33-.34-.33-.35-.33-.35-.32-.35-.32-.36-.31-.36-.31-.36-.31-.37-.3-.37-.3-.37-.3-.37-.29-.38-.29-.38-.28-.38-.28-.39-.28-.39-.27-.39-.27-.39-.27-.4-.26-.4-.26-.4-.25-.4-.25-.41-.25-.41-.24-.41-.24-.41-.23-.42-.23-.42-.23-.42-.22-.42-.22-.42-.21-.43-.21-.43-.2-.43-.2-.43-.2-.43-.19-.44-.19-.44-.18-.44-.18-.44-.17-.44-.17-.45-.16-.45-.16-.45-.16-.45-.15-.45-.15-.45-.14-.45-.14-.46-.13-.46-.13-.46-.12-.46-.12-.46-.11-.46-.11-.46-.11-.46-.1-.47-.1-.47-.09-.47-.09-.47-.08-.47-.08-.47-.07-.47-.07-.47-.06-.47-.06-.47-.05-.47-.05-.47-.04-.47-.04-.47-.03-.47-.03-.47-.03-.47-.02-.47-.02h-.47s-.47-.02-.47-.02h-.47s-.47,0-.47,0h-.48s-.47.02-.47.02l-.47.02-.47.02-.47.03-.47.03-.47.04-.47.04-.47.05-.47.05-.47.06-.47.06-.47.06-.47.07-.47.07-.47.08-.47.08-.47.09-.47.09-.46.1-.46.1-.46.11-.46.11-.46.12-.46.12-.46.12-.46.13-.46.13-.45.14-.45.14-.45.15-.45.15-.45.16-.45.16-.45.17-.44.17-.44.17-.44.18-.44.18-.44.19-.43.19-.43.2-.43.2-.43.21-.43.21-.42.21-.42.22-.42.22-.42.23-.42.23-.41.23-.41.24-.41.24-.41.25-.4.25-.4.25-.4.26-.4.26-.39.27-.39.27-.39.27-.38.28-.38.28-.38.29-.38.29-.37.29-.37.3-.37.3-.36.3-.36.31-.36.31-.36.32-.35.32-.35.32-.35.33-.34.33-.34.33-.34.34-.33.34-.33.34-.33.35-.32.35-.32.35-.31.36-.31.36-.31.36-.3.37-.3.37-.3.37-.29.37-.29.38-.29.38-.28.38-.28.39-.27.39-.27.39-.27.39-.26.4-.26.4-.25.4-.25.4-.25.41-.24.41-.24.41-.23.41-.23.42-.23.42-.22.42-.22.42-.21.42-.21.43-.2.43-.2.43-.2.43-.19.43-.19.44-.18.44-.18.44-.17.44-.17.44-.16.45-.16.45-.16.45-.15.45-.15.45-.14.45-.14.45-.13.46-.13.46-.12.46-.12.46-.11.46-.11.46-.11.46-.1.46-.1.47-.09.47-.09.47-.08.47-.08.47-.07.47-.07.47-.06.47-.06.47-.05.47-.05.47-.04.47-.04.47-.04.47-.03.47-.03.47-.02.47-.02.47v.47s-.02.47-.02.47v.47s0,.47,0,.47v.47s.02.47.02.47l.02.47.02.47.03.47.03.47.04.47.04.47.05.47.05.47.05.47.06.47.06.47.07.47.07.47.08.47.08.47.09.47.09.47.1.46.1.46.11.46.11.46.12.46.12.46.12.46.13.46.13.46.14.45.14.45.15.45.15.45.16.45.16.45.17.45.17.44.17.44.18.44.18.44.19.44.19.43.2.43.2.43.2.43.21.43.21.42.22.42.22.42.23.42.23.42.23.41.24.41.24.41.25.41.25.4.25.4.26.4.26.4.27.39.27.39Z" style="fill: #0072bd;"/>
  <path d="M58.33,48.83v-.1s0-.09,0-.09v-.1s0-.09,0-.09v-.09s0-.09,0-.09v-.09s-.01-.09-.01-.09v-.09s-.02-.09-.02-.09v-.09s-.02-.09-.02-.09v-.09s-.02-.09-.02-.09v-.09s-.03-.09-.03-.09l-.02-.09-.02-.09-.02-.09-.02-.09-.02-.09-.02-.09-.02-.09-.02-.09-.02-.09-.02-.09-.02-.09-.03-.09-.03-.09-.03-.09-.03-.09-.03-.09-.03-.09-.03-.09-.03-.09-.03-.09-.03-.09-.03-.09-.04-.09-.04-.09-.04-.09-.04-.09-.04-.09-.04-.09-.04-.09-.04-.09-.04-.08-.04-.08-.04-.08-.05-.08-.05-.08-.05-.08-.05-.08-.05-.08-.05-.08-.05-.08-.05-.08-.05-.08-.05-.08-.05-.08-.05-.08-.05-.08-.06-.08-.06-.08-.06-.08-.06-.08-.06-.07-.06-.07-.06-.07-.06-.07-.06-.07-.06-.07-.06-.07-.06-.07-.06-.07-.07-.07-.07-.07-.07-.07-.07-.07-.07-.07-.07-.07-.07-.07-.07-.06-.07-.06-.07-.06-.07-.06-.07-.06-.07-.06-.07-.06-.07-.06-.07-.06-.08-.06-.08-.06-.08-.06-.08-.06-.08-.05-.08-.05-.08-.05-.08-.05-.08-.05-.08-.05-.08-.05-.08-.05-.08-.05-.08-.05-.08-.05-.08-.05-.08-.05-.08-.04-.08-.04-.08-.04-.09-.04-.09-.04-.09-.04-.09-.04-.09-.04-.09-.04-.09-.04-.09-.04-.09-.03-.09-.03-.09-.03-.09-.03-.09-.03-.09-.03-.09-.03-.09-.03-.09-.03-.09-.03-.09-.03-.09-.02-.09-.02-.09-.02-.09-.02-.09-.02-.09-.02-.09-.02-.09-.02-.09-.02-.09-.02-.09-.02h-.09s-.09-.03-.09-.03h-.09s-.09-.02-.09-.02h-.09s-.09-.02-.09-.02h-.09s-.09-.02-.09-.02h-.09s-.09-.01-.09-.01h-.09s-.09,0-.09,0h-.1s-.09,0-.09,0h-.1s-.1,0-.1,0h-.09s-.1,0-.1,0h-.1s-.09,0-.09,0h-.09s-.09,0-.09,0h-.09s-.09.01-.09.01h-.09s-.09.02-.09.02h-.09s-.09.02-.09.02h-.09s-.09.02-.09.02h-.09s-.09.03-.09.03l-.09.02-.09.02-.09.02-.09.02-.09.02-.09.02-.09.02-.09.02-.09.02-.09.02-.09.02-.09.03-.09.03-.09.03-.09.03-.09.03-.09.03-.09.03-.09.03-.09.03-.09.03-.09.03-.09.04-.09.04-.09.04-.09.04-.09.04-.09.04-.09.04-.09.04-.08.04-.08.04-.08.04-.08.05-.08.05-.08.05-.08.05-.08.05-.08.05-.08.05-.08.05-.08.05-.08.05-.08.05-.08.05-.08.05-.08.06-.08.06-.08.06-.08.06-.07.06-.07.06-.07.06-.07.06-.07.06-.07.06-.07.06-.07.06-.07.06-.07.06-.07.07-.07.07-.07.07-.07.07-.07.07-.07.07-.06.07-.06.07-.06.07-.06.07-.06.07-.06.07-.06.07-.06.07-.06.07-.06.08-.06.08-.06.08-.06.08-.06.08-.05.08-.05.08-.05.08-.05.08-.05.08-.05.08-.05.08-.05.08-.05.08-.05.08-.05.08-.05.08-.04.08-.04.08-.04.08-.04.09-.04.09-.04.09-.04.09-.04.09-.04.09-.04.09-.04.09-.03.09-.03.09-.03.09-.03.09-.03.09-.03.09-.03.09-.03.09-.03.09-.03.09-.03.09-.03.09-.02.09-.02.09-.02.09-.02.09-.02.09-.02.09-.02.09-.02.09-.02.09-.02.09v.09s-.03.09-.03.09v.09s-.03.09-.03.09v.09s-.02.09-.02.09v.09s-.02.09-.02.09v.09s-.01.09-.01.09v.09s0,.09,0,.09v.09s0,.09,0,.09v.1s0,.1,0,.1v.09s0,.1,0,.1v.09s0,.1,0,.1v.09s0,.09,0,.09v.09s.01.09.01.09v.09s.02.09.02.09v.09s.02.09.02.09v.09s.02.09.02.09v.09s.03.09.03.09l.02.09.02.09.02.09.02.09.02.09.02.09.02.09.02.09.02.09.02.09.02.09.03.09.03.09.03.09.03.09.03.09.03.09.03.09.03.09.03.09.03.09.03.09.04.09.04.09.04.09.04.09.04.09.04.09.04.09.04.09.04.08.04.08.04.08.05.08.05.08.05.08.05.08.05.08.05.08.05.08.05.08.05.08.05.08.05.08.05.08.05.08.06.08.06.08.06.08.06.08.06.07.06.07.06.07.06.07.06.07.06.07.06.07.06.07.06.07.06.07.07.07.07.07.07.07.07.07.07.07.07.07.07.06.07.06.07.06.07.06.07.06.07.06.07.06.07.06.07.06.08.06.08.06.08.06.08.06.08.06.08.05.08.05.08.05.08.05.08.05.08.05.08.05.08.05.08.05.08.05.08.05.08.05.08.04.08.04.08.04.09.04.09.04.09.04.09.04.09.04.09.04.09.04.09.04.09.03.09.03.09.03.09.03.09.03.09.03.09.03.09.03.09.03.09.03.09.03.09.03.09.02.09.02.09.02.09.02.09.02.09.02.09.02.09.02.09.02.09.02h.09s.09.03.09.03h.09s.09.03.09.03h.09s.09.02.09.02h.09s.09.02.09.02h.09s.09.01.09.01h.09s.09.01.09.01h.1s.09,0,.09,0h.1s.09,0,.09,0h.1s.1,0,.1,0h.09s.09,0,.09,0h.09s.09,0,.09,0h.09s.09-.01.09-.01h.09s.09-.02.09-.02h.09s.09-.02.09-.02h.09s.09-.02.09-.02h.09s.09-.03.09-.03l.09-.02.09-.02.09-.02.09-.02.09-.02.09-.02.09-.02.09-.02.09-.02.09-.02.09-.02.09-.03.09-.03.09-.03.09-.03.09-.03.09-.03.09-.03.09-.03.09-.03.09-.03.09-.03.09-.04.09-.04.09-.04.09-.04.09-.04.09-.04.09-.04.09-.04.08-.04.08-.04.08-.04.08-.04.08-.05.08-.05.08-.05.08-.05.08-.05.08-.05.08-.05.08-.05.08-.05.08-.05.08-.05.08-.05.08-.06.08-.06.08-.06.08-.06.07-.06.07-.06.07-.06.07-.06.07-.06.07-.06.07-.06.07-.06.07-.06.07-.06.07-.07.07-.07.07-.07.07-.07.07-.07.07-.07.06-.07.06-.07.06-.07.06-.07.06-.07.06-.07.06-.07.06-.07.06-.07.06-.08.06-.08.06-.08.06-.08.06-.08.05-.08.05-.08.05-.08.05-.08.05-.08.05-.08.05-.08.05-.08.05-.08.05-.08.05-.08.05-.08.04-.08.04-.08.04-.08.04-.09.04-.09.04-.09.04-.09.04-.09.04-.09.04-.09.04-.09.04-.09.03-.09.03-.09.03-.09.03-.09.03-.09.03-.09.03-.09.03-.09.03-.09.03-.09.03-.09.02-.09.02-.09.02-.09.02-.09.02-.09.02-.09.02-.09.02-.09.02-.09.02-.09v-.09s.03-.09.03-.09v-.09s.03-.09.03-.09v-.09s.02-.09.02-.09v-.09s.02-.09.02-.09v-.09s.01-.09.01-.09v-.09s.01-.09.01-.09v-.09s0-.1,0-.1v-.02s37.99.8,37.99.8v.47s-.03.47-.03.47l-.02.47-.03.47-.03.47-.04.47-.04.47-.05.47-.05.47-.06.47-.06.47-.06.47-.07.47-.07.47-.08.47-.08.47-.09.47-.09.47-.1.47-.1.46-.11.46-.11.46-.12.46-.12.46-.12.46-.13.46-.13.46-.14.45-.14.45-.15.45-.15.45-.16.45-.16.45-.17.45-.17.44-.17.44-.18.44-.18.44-.19.44-.19.43-.2.43-.2.43-.2.43-.21.43-.21.42-.22.42-.22.42-.23.42-.23.42-.23.41-.24.41-.24.41-.25.41-.25.4-.25.4-.26.4-.26.4-.27.39-.27.39-.27.39-.28.38-.28.38-.29.38-.29.38-.29.37-.3.37-.3.37-.3.36-.31.36-.31.36-.32.36-.32.35-.32.35-.33.35-.33.34-.33.34-.34.34-.34.33-.34.33-.35.33-.35.32-.35.32-.36.31-.36.31-.36.31-.36.3-.37.3-.37.3-.37.29-.38.29-.38.29-.38.28-.39.28-.39.27-.39.27-.39.27-.4.26-.4.26-.4.25-.4.25-.41.25-.41.24-.41.24-.41.23-.42.23-.42.23-.42.22-.42.22-.42.21-.43.21-.43.2-.43.2-.43.2-.43.19-.44.19-.44.18-.44.18-.44.17-.44.17-.45.16-.45.16-.45.16-.45.15-.45.15-.45.14-.45.14-.46.13-.46.13-.46.12-.46.12-.46.12-.46.11-.46.11-.46.1-.47.1-.47.09-.47.09-.47.08-.47.08-.47.07-.47.07-.47.06-.47.06-.47.05-.47.05-.47.05-.47.04-.47.04-.47.03-.47.03-.47.02-.47.02h-.47s-.47.02-.47.02h-.47s-.47,0-.47,0h-.47s-.47-.02-.47-.02l-.47-.02-.47-.02-.47-.03-.47-.03-.47-.04-.47-.04-.47-.05-.47-.05-.47-.05-.47-.06-.47-.06-.47-.07-.47-.07-.47-.08-.47-.08-.47-.09-.47-.09-.47-.1-.46-.1-.46-.11-.46-.11-.46-.12-.46-.12-.46-.12-.46-.13-.46-.13-.45-.14-.45-.14-.45-.15-.45-.15-.45-.16-.45-.16-.45-.17-.44-.17-.44-.17-.44-.18-.44-.18-.44-.19-.43-.19-.43-.2-.43-.2-.43-.2-.43-.21-.42-.21-.42-.22-.42-.22-.42-.23-.42-.23-.41-.23-.41-.24-.41-.24-.41-.25-.4-.25-.4-.25-.4-.26-.4-.26-.39-.27-.39-.27-.39-.27-.39-.28-.38-.28-.38-.29-.38-.29-.37-.29-.37-.3-.37-.3-.36-.3-.36-.31-.36-.31-.36-.32-.35-.32-.35-.32-.35-.33-.34-.33-.34-.33-.34-.34-.33-.34-.33-.34-.33-.35-.32-.35-.32-.35-.32-.36-.31-.36-.31-.36-.3-.36-.3-.37-.3-.37-.29-.37-.29-.38-.29-.38-.28-.38-.28-.39-.27-.39-.27-.39-.27-.39-.26-.4-.26-.4-.25-.4-.25-.4-.25-.41-.24-.41-.24-.41-.23-.41-.23-.42-.23-.42-.22-.42-.22-.42-.21-.42-.21-.43-.2-.43-.2-.43-.2-.43-.19-.43-.19-.44-.18-.44-.18-.44-.17-.44-.17-.44-.17-.45-.16-.45-.16-.45-.15-.45-.15-.45-.14-.45-.14-.45-.13-.46-.13-.46-.12-.46-.12-.46-.12-.46-.11-.46-.11-.46-.1-.46-.1-.46-.09-.47-.09-.47-.08-.47-.08-.47-.07-.47-.07-.47-.06-.47-.06-.47-.05-.47-.05-.47-.05-.47-.04-.47-.04-.47-.03-.47-.03-.47-.02-.47-.02-.47v-.47s-.02-.47-.02-.47v-.47s0-.47,0-.47v-.47s.02-.47.02-.47l.02-.47.02-.47.03-.47.03-.47.04-.47.04-.47.04-.47.05-.47.05-.47.06-.47.06-.47.07-.47.07-.47.08-.47.08-.47.09-.47.09-.47.1-.47.1-.46.11-.46.11-.46.11-.46.12-.46.12-.46.13-.46.13-.46.14-.45.14-.45.15-.45.15-.45.16-.45.16-.45.16-.45.17-.44.17-.44.18-.44.18-.44.19-.44.19-.43.2-.43.2-.43.2-.43.21-.43.21-.42.22-.42.22-.42.23-.42.23-.42.23-.41.24-.41.24-.41.25-.41.25-.4.25-.4.26-.4.26-.4.27-.39.27-.39.27-.39.28-.39.28-.38.29-.38.29-.38.29-.37.3-.37.3-.37.3-.37.31-.36.31-.36.31-.36.32-.35.32-.35.33-.35.33-.34.33-.34.34-.34.34-.33.34-.33.35-.33.35-.32.35-.32.36-.32.36-.31.36-.31.36-.3.37-.3.37-.3.37-.29.38-.29.38-.29.38-.28.38-.28.39-.27.39-.27.39-.27.4-.26.4-.26.4-.25.4-.25.41-.25.41-.24.41-.24.41-.23.42-.23.42-.23.42-.22.42-.22.42-.21.43-.21.43-.21.43-.2.43-.2.43-.19.44-.19.44-.18.44-.18.44-.17.44-.17.45-.17.45-.16.45-.16.45-.15.45-.15.45-.14.45-.14.46-.13.46-.13.46-.12.46-.12.46-.12.46-.11.46-.11.46-.1.46-.1.47-.09.47-.09.47-.08.47-.08.47-.07.47-.07.47-.06.47-.06.47-.06.47-.05.47-.05.47-.04.47-.04.47-.03.47-.03.47-.02.47-.02h.47s.48-.02.48-.02h.47s.47,0,.47,0h.47s.47.02.47.02l.47.02.47.02.47.03.47.03.47.03.47.04.47.04.47.05.47.05.47.06.47.06.47.07.47.07.47.08.47.08.47.09.47.09.47.1.46.1.46.11.46.11.46.11.46.12.46.12.46.13.46.13.45.14.45.14.45.15.45.15.45.16.45.16.45.16.44.17.44.17.44.18.44.18.44.19.43.19.43.2.43.2.43.2.43.21.42.21.42.22.42.22.42.23.42.23.41.23.41.24.41.24.41.25.4.25.4.25.4.26.4.26.39.27.39.27.39.27.39.28.38.28.38.28.38.29.37.29.37.3.37.3.37.3.36.31.36.31.36.31.35.32.35.32.35.33.34.33.34.33.34.34.33.34.33.34.33.35.32.35.32.35.32.35.31.36.31.36.31.36.3.37.3.37.29.37.29.38.29.38.28.38.28.38.27.39.27.39.27.39.26.4.26.4.26.4.25.4.25.41.24.41.24.41.23.41.23.42.23.42.22.42.22.42.21.42.21.43.21.43.2.43.2.43.19.43.19.44.18.44.18.44.17.44.17.44.17.44.16.45.16.45.15.45.15.45.14.45.14.45.13.46.13.46.13.46.12.46.12.46.11.46.11.46.1.46.1.46.09.47.09.47.08.47.08.47.07.47.07.47.06.47.06.47.06.47.05.47.05.47.04.47.04.47.03.47.03.47.02.47.02.47v.47s.02.47.02.47v.48s0,.11,0,.11h-38" style="fill: none; stroke: #000; stroke-linecap: square; stroke-miterlimit: 10; stroke-width: 2.67px;"/>
  <path d="M96.33,49.31v-.47s-38,0-38,0h0s0,.1,0,.1v.1s37.99.8,37.99.8v-.04s0-.47,0-.47Z" style="fill: #d95319;"/>
  <path d="M58.33,49.03v-.1s0-.1,0-.1h0s38,0,38,0v.47s0,.47,0,.47v.04s-37.99-.8-37.99-.8" style="fill: none; stroke: #000; stroke-linecap: square; stroke-miterlimit: 10; stroke-width: 2.67px;"/>
  <text transform="translate(1.33 54.03)" style="fill: #fff; font-family: Arial-BoldMT, Arial; font-size: 13.33px; font-weight: 700; isolation: isolate;"><tspan x="0" y="0">99.7%</tspan></text>
  <text transform="translate(61.83 54.63)" style="fill: #fff; font-family: Arial-BoldMT, Arial; font-size: 13.33px; font-weight: 700; isolation: isolate;"><tspan x="0" y="0">0.3%</tspan></text>
  <text transform="translate(115.33 63.53)" style="font-family: Arial-BoldMT, Arial; font-size: 13.33px; font-weight: 700; isolation: isolate;"><tspan x="0" y="0">Label 2</tspan></text>
  <path d="M156.74,55.16l-.06-.07-.06-.07-.06-.07-.06-.07-.06-.07-.06-.07-.06-.07-.06-.08-.06-.08-.06-.08-.06-.08-.05-.08-.05-.08-.05-.08-.05-.08-.05-.08-.05-.08-.05-.08-.05-.08-.05-.08-.05-.08-.05-.08-.05-.08-.04-.08-.04-.08-.04-.08-.04-.08-.04-.09-.04-.09-.04-.09-.04-.09-.04-.09-.04-.09-.04-.09-.04-.09-.03-.09-.03-.09-.03-.09-.03-.09-.03-.09-.03-.09-.03-.09-.03-.09-.03-.09-.03-.09-.03-.09-.02-.09-.02-.09-.02-.09-.02-.09-.02-.09-.02-.09-.02-.09-.02-.09-.02-.09-.02-.09-.02-.09v-.09s-.03-.09-.03-.09v-.09s-.02-.09-.02-.09v-.09s-.02-.09-.02-.09v-.09s-.02-.09-.02-.09v-.09s-.01-.09-.01-.09v-.09s0-.09,0-.09v-.1s0-.09,0-.09v-.1s0-.09,0-.09v-.1s0-.1,0-.1v-.09s0-.09,0-.09v-.09s0-.09,0-.09v-.09s.01-.09.01-.09v-.09s.02-.09.02-.09v-.09s.02-.09.02-.09v-.09s.02-.09.02-.09v-.09s.03-.09.03-.09l.02-.09.02-.09.02-.09.02-.09.02-.09.02-.09.02-.09.02-.09.02-.09.02-.09.03-.09.03-.09.03-.09.03-.09.03-.09.03-.09.03-.09.03-.09.03-.09.03-.09.03-.09.03-.09.04-.09.04-.09.04-.09.04-.09.04-.09.04-.09.04-.09.04-.09.04-.08.04-.08.04-.08.05-.08.05-.08.05-.08.05-.08.05-.08.05-.08.05-.08.05-.08.05-.08.05-.08.05-.08.05-.08.05-.08.06-.08.06-.08.06-.08.06-.08.06-.07.06-.07.06-.07.06-.07.06-.07.06-.07.06-.07.06-.07.06-.07.07-.07.07-.07.07-.07.07-.07.07-.07.07-.07.07-.06.07-.06.07-.06.07-.06.07-.06.07-.06.07-.06.07-.06.07-.06.07-.06.08-.06.08-.06.08-.06.08-.06.08-.05.08-.05.08-.05.08-.05.08-.05.08-.05.08-.05.08-.05.08-.05.08-.05.08-.05.08-.05.08-.05.08-.04.08-.04.09-.04.09-.04.09-.04.09-.04.09-.04.09-.04.09-.04.09-.04.09-.04.09-.03.09-.03.09-.03.09-.03.09-.03.09-.03.09-.03.09-.03.09-.03.09-.03.09-.03.09-.02.09-.02.09-.02.09-.02.09-.02.09-.02.09-.02.09-.02.09-.02.09-.02.09-.02h.09s.09-.03.09-.03h.09s.09-.02.09-.02h.09s.09-.02.09-.02h.09s.09-.02.09-.02h.09s.09-.01.09-.01h.09s.09,0,.09,0h.09s.1,0,.1,0h.1s.1,0,.1,0h.1s.1,0,.1,0h.09s.1,0,.1,0h.09s.09,0,.09,0h.09s.09.01.09.01h.09s.09.02.09.02h.09s.09.02.09.02h.09s.09.02.09.02h.09s.09.03.09.03l.09.02.09.02.09.02.09.02.09.02.09.02.09.02.09.02.09.02.09.02.09.02.09.03.09.03.09.03.09.03.09.03.09.03.09.03.09.03.09.03.09.03.09.03.09.04.09.04.09.04.09.04.09.04.09.04.09.04.09.04.08.04.08.04.08.04.08.05.08.05.08.05.08.05.08.05.08.05.08.05.08.05.08.05.08.05.08.05.08.05.08.05.08.06.08.06.08.06.08.06.07.06.07.06.07.06.07.06.07.06.07.06.07.06.07.06.07.06.07.07.07.07.07.07.07.07.07.07.07.07.07.07.06.07.06.07.06.07.06.07.06.07.06.07.06.07.06.07.06.07.06.08.06.08.06.08.06.08.05.08.05.08.05.08.05.08.05.08.05.08.05.08.05.08.05.08.05.08.05.08.05.08.05.08.04.08.04.08.04.08.04.09.04.09.04.09.04.09.04.09.04.09.04.09.04.09.03.09.03.09.03.09.03.09.03.09.03.09.03.09.03.09.03.09.03.09.03.09.02.09.02.09.02.09.02.09.02.09.02.09.02.09.02.09.02.09.02.09.02.09v.09s.03.09.03.09v.09s.02.09.02.09v.09s.02.09.02.09v.09s.02.09.02.09v.09s.01.09.01.09v.09s0,.09,0,.09v.09s0,.1,0,.1v.09s0,.1,0,.1h38v-.44s0-.47,0-.47v-.47s-.03-.47-.03-.47l-.02-.47-.03-.47-.03-.47-.04-.47-.04-.47-.04-.47-.05-.47-.05-.47-.06-.47-.06-.47-.07-.47-.07-.47-.08-.47-.08-.47-.09-.47-.09-.47-.1-.47-.1-.46-.11-.46-.11-.46-.11-.46-.12-.46-.12-.46-.13-.46-.13-.46-.14-.45-.14-.45-.15-.45-.15-.45-.16-.45-.16-.45-.16-.45-.17-.44-.17-.44-.18-.44-.18-.44-.19-.44-.19-.43-.2-.43-.2-.43-.2-.43-.21-.43-.21-.42-.22-.42-.22-.42-.23-.42-.23-.42-.23-.41-.24-.41-.24-.41-.25-.41-.25-.4-.25-.4-.26-.4-.26-.4-.27-.39-.27-.39-.27-.39-.28-.39-.28-.38-.29-.38-.29-.38-.29-.37-.3-.37-.3-.37-.3-.36-.31-.36-.31-.36-.31-.36-.32-.35-.32-.35-.33-.35-.33-.34-.33-.34-.34-.34-.34-.33-.34-.33-.35-.33-.35-.32-.35-.32-.35-.32-.36-.31-.36-.31-.36-.3-.37-.3-.37-.3-.37-.29-.38-.29-.38-.29-.38-.28-.38-.28-.39-.27-.39-.27-.39-.27-.4-.26-.4-.26-.4-.25-.4-.25-.41-.25-.41-.24-.41-.24-.41-.23-.42-.23-.42-.23-.42-.22-.42-.22-.42-.21-.43-.21-.43-.21-.43-.2-.43-.2-.43-.19-.44-.19-.44-.18-.44-.18-.44-.17-.44-.17-.45-.17-.45-.16-.45-.16-.45-.15-.45-.15-.45-.14-.45-.14-.46-.13-.46-.13-.46-.12-.46-.12-.46-.12-.46-.11-.46-.11-.46-.1-.46-.1-.47-.09-.47-.09-.47-.08-.47-.08-.47-.07-.47-.07-.47-.06-.47-.06-.47-.06-.47-.05-.47-.05-.47-.04-.47-.04-.47-.03-.47-.03-.47-.02-.47-.02h-.47s-.47-.02-.47-.02h-.48s-.47,0-.47,0h-.48s-.47.02-.47.02l-.47.02-.47.02-.47.03-.47.03-.47.03-.47.04-.47.04-.47.05-.47.05-.47.06-.47.06-.47.07-.47.07-.47.08-.47.08-.47.09-.47.09-.47.1-.46.1-.46.11-.46.11-.46.11-.46.12-.46.12-.46.13-.46.13-.45.14-.45.14-.45.15-.45.15-.45.16-.45.16-.45.16-.44.17-.44.17-.44.18-.44.18-.44.19-.43.19-.43.2-.43.2-.43.2-.43.21-.42.21-.42.22-.42.22-.42.23-.42.23-.41.23-.41.24-.41.24-.41.25-.4.25-.4.25-.4.26-.4.26-.39.27-.39.27-.39.27-.39.28-.38.28-.38.28-.38.29-.37.29-.37.3-.37.3-.37.3-.36.31-.36.31-.36.31-.35.32-.35.32-.35.33-.34.33-.34.33-.34.34-.33.34-.33.34-.33.35-.32.35-.32.35-.32.35-.31.36-.31.36-.3.36-.3.37-.3.37-.29.37-.29.38-.29.38-.28.38-.28.38-.27.39-.27.39-.27.39-.26.4-.26.4-.26.4-.25.4-.25.41-.24.41-.24.41-.23.41-.23.42-.23.42-.22.42-.22.42-.21.42-.21.43-.21.43-.2.43-.2.43-.19.43-.19.44-.18.44-.18.44-.17.44-.17.44-.17.44-.16.45-.16.45-.15.45-.15.45-.14.45-.14.45-.13.46-.13.46-.13.46-.12.46-.12.46-.11.46-.11.46-.1.46-.1.46-.09.47-.09.47-.08.47-.08.47-.07.47-.07.47-.06.47-.06.47-.06.47-.05.47-.05.47-.04.47-.04.47-.03.47-.03.47-.02.47-.02.47v.47s-.02.47-.02.47v.48s0,.47,0,.47v.47s.02.47.02.47l.02.47.02.47.03.47.03.47.03.47.04.47.04.47.05.47.05.47.06.47.06.47.07.47.07.47.08.47.08.47.09.47.09.47.1.47.1.46.11.46.11.46.11.46.12.46.12.46.13.46.13.46.14.45.14.45.15.45.15.45.16.45.16.45.16.45.17.44.17.44.18.44.18.44.19.44.19.44.19.43.2.43.2.43.21.43.21.42.22.42.22.42.22.42.23.42.23.41.24.41.24.41.25.41.25.4.25.4.26.4.26.4.27.39.27.39.27.39.28.39.28.38.28.38.29.38.29.37.3.37.3.37.3.37.31.36.31.36.31.36.32.35.32.35.32.35.33.34.33.34.34.34.34.33.34.33.34.33.35.32.35.32,25.43-28.24-.07-.06-.07-.06-.07-.07-.07-.07-.07-.07-.07-.07-.07-.07-.07-.07-.06-.07-.06-.07-.06-.07Z" style="fill: #0072bd;"/>
  <path d="M173.33,48.83v-.1s0-.09,0-.09v-.1s0-.09,0-.09v-.09s0-.09,0-.09v-.09s-.01-.09-.01-.09v-.09s-.02-.09-.02-.09v-.09s-.02-.09-.02-.09v-.09s-.02-.09-.02-.09v-.09s-.03-.09-.03-.09l-.02-.09-.02-.09-.02-.09-.02-.09-.02-.09-.02-.09-.02-.09-.02-.09-.02-.09-.02-.09-.02-.09-.03-.09-.03-.09-.03-.09-.03-.09-.03-.09-.03-.09-.03-.09-.03-.09-.03-.09-.03-.09-.03-.09-.04-.09-.04-.09-.04-.09-.04-.09-.04-.09-.04-.09-.04-.09-.04-.09-.04-.08-.04-.08-.04-.08-.05-.08-.05-.08-.05-.08-.05-.08-.05-.08-.05-.08-.05-.08-.05-.08-.05-.08-.05-.08-.05-.08-.05-.08-.05-.08-.06-.08-.06-.08-.06-.08-.06-.08-.06-.07-.06-.07-.06-.07-.06-.07-.06-.07-.06-.07-.06-.07-.06-.07-.06-.07-.07-.07-.07-.07-.07-.07-.07-.07-.07-.07-.07-.07-.07-.07-.07-.06-.07-.06-.07-.06-.07-.06-.07-.06-.07-.06-.07-.06-.07-.06-.07-.06-.08-.06-.08-.06-.08-.06-.08-.06-.08-.05-.08-.05-.08-.05-.08-.05-.08-.05-.08-.05-.08-.05-.08-.05-.08-.05-.08-.05-.08-.05-.08-.05-.08-.05-.08-.04-.08-.04-.08-.04-.09-.04-.09-.04-.09-.04-.09-.04-.09-.04-.09-.04-.09-.04-.09-.04-.09-.03-.09-.03-.09-.03-.09-.03-.09-.03-.09-.03-.09-.03-.09-.03-.09-.03-.09-.03-.09-.03-.09-.02-.09-.02-.09-.02-.09-.02-.09-.02-.09-.02-.09-.02-.09-.02-.09-.02-.09-.02-.09-.02h-.09s-.09-.03-.09-.03h-.09s-.09-.02-.09-.02h-.09s-.09-.02-.09-.02h-.09s-.09-.02-.09-.02h-.09s-.09-.01-.09-.01h-.09s-.09,0-.09,0h-.1s-.09,0-.09,0h-.1s-.1,0-.1,0h-.1s-.1,0-.1,0h-.1s-.09,0-.09,0h-.09s-.09,0-.09,0h-.09s-.09.01-.09.01h-.09s-.09.02-.09.02h-.09s-.09.02-.09.02h-.09s-.09.02-.09.02h-.09s-.09.03-.09.03l-.09.02-.09.02-.09.02-.09.02-.09.02-.09.02-.09.02-.09.02-.09.02-.09.02-.09.02-.09.03-.09.03-.09.03-.09.03-.09.03-.09.03-.09.03-.09.03-.09.03-.09.03-.09.03-.09.04-.09.04-.09.04-.09.04-.09.04-.09.04-.09.04-.09.04-.09.04-.08.04-.08.04-.08.05-.08.05-.08.05-.08.05-.08.05-.08.05-.08.05-.08.05-.08.05-.08.05-.08.05-.08.05-.08.05-.08.06-.08.06-.08.06-.08.06-.07.06-.07.06-.07.06-.07.06-.07.06-.07.06-.07.06-.07.06-.07.06-.07.06-.07.07-.07.07-.07.07-.07.07-.07.07-.07.07-.06.07-.06.07-.06.07-.06.07-.06.07-.06.07-.06.07-.06.07-.06.07-.06.08-.06.08-.06.08-.06.08-.05.08-.05.08-.05.08-.05.08-.05.08-.05.08-.05.08-.05.08-.05.08-.05.08-.05.08-.05.08-.05.08-.04.08-.04.08-.04.08-.04.09-.04.09-.04.09-.04.09-.04.09-.04.09-.04.09-.04.09-.03.09-.03.09-.03.09-.03.09-.03.09-.03.09-.03.09-.03.09-.03.09-.03.09-.03.09-.03.09-.02.09-.02.09-.02.09-.02.09-.02.09-.02.09-.02.09-.02.09-.02.09-.02.09v.09s-.03.09-.03.09v.09s-.02.09-.02.09v.09s-.02.09-.02.09v.09s-.02.09-.02.09v.09s-.01.09-.01.09v.09s0,.09,0,.09v.09s0,.09,0,.09v.1s0,.1,0,.1v.09s0,.1,0,.1v.09s0,.1,0,.1v.09s0,.09,0,.09v.09s.01.09.01.09v.09s.02.09.02.09v.09s.02.09.02.09v.09s.02.09.02.09v.09s.03.09.03.09l.02.09.02.09.02.09.02.09.02.09.02.09.02.09.02.09.02.09.02.09.02.09.03.09.03.09.03.09.03.09.03.09.03.09.03.09.03.09.03.09.03.09.03.09.04.09.04.09.04.09.04.09.04.09.04.09.04.09.04.09.04.08.04.08.04.08.04.08.05.08.05.08.05.08.05.08.05.08.05.08.05.08.05.08.05.08.05.08.05.08.05.08.06.08.06.08.06.08.06.08.06.07.06.07.06.07.06.07.06.07.06.07.06.07.06.07.06.07.06.07.07.07.07.07.07.07.07.07.07.07.07.07.07.06.07.06-25.43,28.24-.35-.32-.35-.32-.34-.33-.34-.33-.34-.33-.34-.34-.33-.34-.33-.34-.32-.35-.32-.35-.32-.35-.31-.36-.31-.36-.31-.36-.3-.37-.3-.37-.3-.37-.29-.37-.29-.38-.28-.38-.28-.38-.28-.39-.27-.39-.27-.39-.27-.39-.26-.4-.26-.4-.25-.4-.25-.4-.25-.41-.24-.41-.24-.41-.23-.41-.23-.42-.22-.42-.22-.42-.22-.42-.21-.42-.21-.43-.2-.43-.2-.43-.19-.43-.19-.44-.19-.44-.18-.44-.18-.44-.17-.44-.17-.44-.16-.45-.16-.45-.16-.45-.15-.45-.15-.45-.14-.45-.14-.45-.13-.46-.13-.46-.12-.46-.12-.46-.11-.46-.11-.46-.11-.46-.1-.46-.1-.47-.09-.47-.09-.47-.08-.47-.08-.47-.07-.47-.07-.47-.06-.47-.06-.47-.05-.47-.05-.47-.04-.47-.04-.47-.03-.47-.03-.47-.03-.47-.02-.47-.02-.47v-.47s-.02-.47-.02-.47v-.47s0-.48,0-.48v-.47s.02-.47.02-.47l.02-.47.02-.47.03-.47.03-.47.04-.47.04-.47.05-.47.05-.47.06-.47.06-.47.06-.47.07-.47.07-.47.08-.47.08-.47.09-.47.09-.47.1-.46.1-.46.11-.46.11-.46.12-.46.12-.46.13-.46.13-.46.13-.46.14-.45.14-.45.15-.45.15-.45.16-.45.16-.45.17-.44.17-.44.17-.44.18-.44.18-.44.19-.44.19-.43.2-.43.2-.43.21-.43.21-.43.21-.42.22-.42.22-.42.23-.42.23-.42.23-.41.24-.41.24-.41.25-.41.25-.4.26-.4.26-.4.26-.4.27-.39.27-.39.27-.39.28-.38.28-.38.29-.38.29-.38.29-.37.3-.37.3-.37.3-.36.31-.36.31-.36.32-.35.32-.35.32-.35.33-.35.33-.34.33-.34.34-.34.34-.33.34-.33.35-.33.35-.32.35-.32.36-.31.36-.31.36-.31.37-.3.37-.3.37-.3.37-.29.38-.29.38-.28.38-.28.39-.28.39-.27.39-.27.39-.27.4-.26.4-.26.4-.25.4-.25.41-.25.41-.24.41-.24.41-.23.42-.23.42-.23.42-.22.42-.22.42-.21.43-.21.43-.2.43-.2.43-.2.43-.19.44-.19.44-.18.44-.18.44-.17.44-.17.45-.16.45-.16.45-.16.45-.15.45-.15.45-.14.45-.14.46-.13.46-.13.46-.12.46-.12.46-.11.46-.11.46-.11.46-.1.47-.1.47-.09.47-.09.47-.08.47-.08.47-.07.47-.07.47-.06.47-.06.47-.05.47-.05.47-.04.47-.04.47-.03.47-.03.47-.03.47-.02.47-.02h.47s.48-.02.48-.02h.47s.48,0,.48,0h.47s.47.02.47.02l.47.02.47.02.47.03.47.03.47.04.47.04.47.05.47.05.47.06.47.06.47.06.47.07.47.07.47.08.47.08.47.09.47.09.46.1.46.1.46.11.46.11.46.12.46.12.46.12.46.13.46.13.45.14.45.14.45.15.45.15.45.16.45.16.45.17.44.17.44.17.44.18.44.18.44.19.43.19.43.2.43.2.43.21.43.21.42.21.42.22.42.22.42.23.42.23.41.23.41.24.41.24.41.25.4.25.4.25.4.26.4.26.39.27.39.27.39.27.38.28.38.28.38.29.38.29.37.29.37.3.37.3.36.3.36.31.36.31.35.32.35.32.35.32.35.33.34.33.34.33.34.34.33.34.33.34.33.35.32.35.32.35.31.36.31.36.31.36.3.36.3.37.3.37.29.37.29.38.29.38.28.38.28.39.27.39.27.39.27.39.26.4.26.4.25.4.25.4.25.41.24.41.24.41.23.41.23.42.23.42.22.42.22.42.21.42.21.43.2.43.2.43.2.43.19.43.19.44.18.44.18.44.17.44.17.44.16.45.16.45.16.45.15.45.15.45.14.45.14.45.13.46.13.46.12.46.12.46.11.46.11.46.11.46.1.46.1.47.09.47.09.47.08.47.08.47.07.47.07.47.06.47.06.47.05.47.05.47.04.47.04.47.04.47.03.47.03.47.02.47.02.47v.47s.02.47.02.47v.44s-38,0-38,0" style="fill: none; stroke: #000; stroke-linecap: square; stroke-miterlimit: 10; stroke-width: 2.67px;"/>
  <path d="M137.83,88.59l.4.26.4.25.4.25.41.25.41.24.41.24.41.23.42.23.42.23.42.22.42.22.42.21.43.21.43.2.43.2.43.2.43.19.44.19.44.18.44.18.44.17.44.17.45.16.45.16.45.16.45.15.45.15.45.14.45.14.46.13.46.13.46.12.46.12.46.11.46.11.46.11.46.1.47.1.47.09.47.09.47.08.47.08.47.07.47.07.47.06.47.06.47.05.47.05.47.04.47.04.47.04.47.03.47.03.47.02.47.02h.47s.47.02.47.02h.47s.48,0,.48,0h.47s.47-.02.47-.02l.47-.02.47-.02.47-.03.47-.03.47-.04.47-.04.47-.05.47-.05.47-.05.47-.06.47-.06.47-.07.47-.07.47-.08.47-.08.47-.09.47-.09.46-.1.46-.1.46-.11.46-.11.46-.12.46-.12.46-.12.46-.13.46-.13.45-.14.45-.14.45-.15.45-.15.45-.16.45-.16.45-.17.44-.17.44-.17.44-.18.44-.18.44-.19.43-.19.43-.2.43-.2.43-.2.43-.21.42-.21.42-.22.42-.22.42-.23.42-.23.41-.23.41-.24.41-.24.41-.25.4-.25.4-.25.4-.26.4-.26.39-.27.39-.27.39-.27.38-.28.38-.28.38-.29.38-.29.37-.29.37-.3.37-.3.36-.3.36-.31.36-.31.36-.32.35-.32.35-.32.35-.33.34-.33.34-.33.34-.34.33-.34.33-.34.33-.35.32-.35.32-.35.32-.36.31-.36.31-.36.3-.36.3-.37.3-.37.29-.37.29-.38.29-.38.28-.38.28-.39.27-.39.27-.39.27-.39.26-.4.26-.4.25-.4.25-.4.25-.41.24-.41.24-.41.23-.41.23-.42.23-.42.22-.42.22-.42.21-.42.21-.43.2-.43.2-.43.2-.43.19-.43.19-.44.18-.44.18-.44.17-.44.17-.44.17-.45.16-.45.16-.45.15-.45.15-.45.14-.45.14-.45.13-.46.13-.46.12-.46.12-.46.12-.46.11-.46.11-.46.1-.46.1-.47.09-.47.09-.47.08-.47.08-.47.07-.47.07-.47.06-.47.06-.47.05-.47.05-.47.05-.47.04-.47.04-.47.03-.47.03-.47.02-.47.02-.47v-.47s.02-.47.02-.47v-.47s-38,0-38,0v.04s0,.1,0,.1v.09s0,.1,0,.1v.09s0,.09,0,.09v.09s-.01.09-.01.09v.09s-.02.09-.02.09v.09s-.02.09-.02.09v.09s-.02.09-.02.09v.09s-.03.09-.03.09v.09s-.03.09-.03.09l-.02.09-.02.09-.02.09-.02.09-.02.09-.02.09-.02.09-.02.09-.02.09-.03.09-.03.09-.03.09-.03.09-.03.09-.03.09-.03.09-.03.09-.03.09-.03.09-.03.09-.04.09-.04.09-.04.09-.04.09-.04.09-.04.09-.04.09-.04.09-.04.09-.04.08-.04.08-.04.08-.05.08-.05.08-.05.08-.05.08-.05.08-.05.08-.05.08-.05.08-.05.08-.05.08-.05.08-.05.08-.06.08-.06.08-.06.08-.06.08-.06.08-.06.07-.06.07-.06.07-.06.07-.06.07-.06.07-.06.07-.06.07-.06.07-.07.07-.07.07-.07.07-.07.07-.07.07-.07.07-.07.06-.07.06-.07.06-.07.06-.07.06-.07.06-.07.06-.07.06-.07.06-.07.06-.08.06-.08.06-.08.06-.08.06-.08.05-.08.05-.08.05-.08.05-.08.05-.08.05-.08.05-.08.05-.08.05-.08.05-.08.05-.08.05-.08.04-.08.04-.08.04-.09.04-.09.04-.09.04-.09.04-.09.04-.09.04-.09.04-.09.04-.09.04-.09.03-.09.03-.09.03-.09.03-.09.03-.09.03-.09.03-.09.03-.09.03-.09.03-.09.03-.09.02-.09.02-.09.02-.09.02-.09.02-.09.02-.09.02-.09.02-.09.02-.09.02-.09.02h-.09s-.09.03-.09.03h-.09s-.09.02-.09.02h-.09s-.09.02-.09.02h-.09s-.09.02-.09.02h-.09s-.09.01-.09.01h-.09s-.09,0-.09,0h-.1s-.1,0-.1,0h-.1s-.1,0-.1,0h-.1s-.09,0-.09,0h-.1s-.09,0-.09,0h-.09s-.09-.01-.09-.01h-.09s-.09-.01-.09-.01h-.09s-.09-.02-.09-.02h-.09s-.09-.02-.09-.02h-.09s-.09-.03-.09-.03h-.09s-.09-.03-.09-.03l-.09-.02-.09-.02-.09-.02-.09-.02-.09-.02-.09-.02-.09-.02-.09-.02-.09-.02-.09-.02-.09-.03-.09-.03-.09-.03-.09-.03-.09-.03-.09-.03-.09-.03-.09-.03-.09-.03-.09-.03-.09-.03-.09-.04-.09-.04-.09-.04-.09-.04-.09-.04-.09-.04-.09-.04-.09-.04-.09-.04-.08-.04-.08-.04-.08-.04-.08-.05-.08-.05-.08-.05-.08-.05-.08-.05-.08-.05-.08-.05-.08-.05-.08-.05-.08-.05-.08-.05-.08-.05-.08-.06-.08-.06-.08-.06-.08-.06-.08-.06-.07-.06-.07-.06-.07-.06-.07-.06-.07-.06-.07-.06-.07-.06-25.43,28.24.14.12.36.31.36.31.36.31.37.3.37.3.37.3.37.29.38.29.38.29.38.28.39.28.39.27.39.27.39.27.4.26Z" style="fill: #d95319;"/>
  <path d="M157.48,55.89l.07.06.07.06.07.06.07.06.07.06.07.06.07.06.08.06.08.06.08.06.08.06.08.06.08.05.08.05.08.05.08.05.08.05.08.05.08.05.08.05.08.05.08.05.08.05.08.05.08.04.08.04.08.04.09.04.09.04.09.04.09.04.09.04.09.04.09.04.09.04.09.04.09.03.09.03.09.03.09.03.09.03.09.03.09.03.09.03.09.03.09.03.09.03.09.02.09.02.09.02.09.02.09.02.09.02.09.02.09.02.09.02.09.02h.09s.09.03.09.03h.09s.09.03.09.03h.09s.09.02.09.02h.09s.09.02.09.02h.09s.09.01.09.01h.09s.09.01.09.01h.09s.1,0,.1,0h.09s.1,0,.1,0h.1s.1,0,.1,0h.1s.1,0,.1,0h.09s.09,0,.09,0h.09s.09-.01.09-.01h.09s.09-.02.09-.02h.09s.09-.02.09-.02h.09s.09-.02.09-.02h.09s.09-.03.09-.03l.09-.02.09-.02.09-.02.09-.02.09-.02.09-.02.09-.02.09-.02.09-.02.09-.02.09-.02.09-.03.09-.03.09-.03.09-.03.09-.03.09-.03.09-.03.09-.03.09-.03.09-.03.09-.03.09-.04.09-.04.09-.04.09-.04.09-.04.09-.04.09-.04.09-.04.09-.04.08-.04.08-.04.08-.04.08-.05.08-.05.08-.05.08-.05.08-.05.08-.05.08-.05.08-.05.08-.05.08-.05.08-.05.08-.05.08-.06.08-.06.08-.06.08-.06.07-.06.07-.06.07-.06.07-.06.07-.06.07-.06.07-.06.07-.06.07-.06.07-.06.07-.07.07-.07.07-.07.07-.07.07-.07.07-.07.06-.07.06-.07.06-.07.06-.07.06-.07.06-.07.06-.07.06-.07.06-.07.06-.08.06-.08.06-.08.06-.08.06-.08.05-.08.05-.08.05-.08.05-.08.05-.08.05-.08.05-.08.05-.08.05-.08.05-.08.05-.08.05-.08.04-.08.04-.08.04-.08.04-.09.04-.09.04-.09.04-.09.04-.09.04-.09.04-.09.04-.09.04-.09.03-.09.03-.09.03-.09.03-.09.03-.09.03-.09.03-.09.03-.09.03-.09.03-.09.03-.09.02-.09.02-.09.02-.09.02-.09.02-.09.02-.09.02-.09.02-.09.02-.09.02-.09v-.09s.03-.09.03-.09v-.09s.03-.09.03-.09v-.09s.02-.09.02-.09v-.09s.02-.09.02-.09v-.09s.01-.09.01-.09v-.09s.01-.09.01-.09v-.09s0-.1,0-.1v-.09s0-.1,0-.1v-.04h38v.47s0,.47,0,.47v.47s-.03.47-.03.47l-.02.47-.03.47-.03.47-.04.47-.04.47-.05.47-.05.47-.05.47-.06.47-.06.47-.07.47-.07.47-.08.47-.08.47-.09.47-.09.47-.1.47-.1.46-.11.46-.11.46-.12.46-.12.46-.12.46-.13.46-.13.46-.14.45-.14.45-.15.45-.15.45-.16.45-.16.45-.17.45-.17.44-.17.44-.18.44-.18.44-.19.44-.19.43-.2.43-.2.43-.2.43-.21.43-.21.42-.22.42-.22.42-.23.42-.23.42-.23.41-.24.41-.24.41-.25.41-.25.4-.25.4-.26.4-.26.4-.27.39-.27.39-.27.39-.28.39-.28.38-.29.38-.29.38-.29.37-.3.37-.3.37-.3.36-.31.36-.31.36-.32.36-.32.35-.32.35-.33.35-.33.34-.33.34-.34.34-.34.33-.34.33-.35.33-.35.32-.35.32-.36.32-.36.31-.36.31-.36.3-.37.3-.37.3-.37.29-.38.29-.38.29-.38.28-.38.28-.39.27-.39.27-.39.27-.4.26-.4.26-.4.25-.4.25-.41.25-.41.24-.41.24-.41.23-.42.23-.42.23-.42.22-.42.22-.42.21-.43.21-.43.2-.43.2-.43.2-.43.19-.44.19-.44.18-.44.18-.44.17-.44.17-.45.17-.45.16-.45.16-.45.15-.45.15-.45.14-.45.14-.46.13-.46.13-.46.12-.46.12-.46.12-.46.11-.46.11-.46.1-.46.1-.47.09-.47.09-.47.08-.47.08-.47.07-.47.07-.47.06-.47.06-.47.05-.47.05-.47.05-.47.04-.47.04-.47.03-.47.03-.47.02-.47.02h-.47s-.47.02-.47.02h-.48s-.47,0-.47,0h-.47s-.47-.02-.47-.02l-.47-.02-.47-.02-.47-.03-.47-.03-.47-.04-.47-.04-.47-.04-.47-.05-.47-.05-.47-.06-.47-.06-.47-.07-.47-.07-.47-.08-.47-.08-.47-.09-.47-.09-.47-.1-.46-.1-.46-.11-.46-.11-.46-.11-.46-.12-.46-.12-.46-.13-.46-.13-.45-.14-.45-.14-.45-.15-.45-.15-.45-.16-.45-.16-.45-.16-.44-.17-.44-.17-.44-.18-.44-.18-.44-.19-.43-.19-.43-.2-.43-.2-.43-.2-.43-.21-.42-.21-.42-.22-.42-.22-.42-.23-.42-.23-.41-.23-.41-.24-.41-.24-.41-.25-.4-.25-.4-.25-.4-.26-.4-.26-.39-.27-.39-.27-.39-.27-.39-.28-.38-.28-.38-.29-.38-.29-.37-.29-.37-.3-.37-.3-.37-.3-.36-.31-.36-.31-.36-.31-.14-.12,25.43-28.24" style="fill: none; stroke: #000; stroke-linecap: square; stroke-miterlimit: 10; stroke-width: 2.67px;"/>
  <text transform="translate(133.24 28.3)" style="fill: #fff; font-family: Arial-BoldMT, Arial; font-size: 13.33px; font-weight: 700; isolation: isolate;"><tspan x="0" y="0">63.3%</tspan></text>
  <text transform="translate(156.43 80.37)" style="fill: #fff; font-family: Arial-BoldMT, Arial; font-size: 13.33px; font-weight: 700; isolation: isolate;"><tspan x="0" y="0">36.7%</tspan></text>
</svg>