<?xml version="1.0" encoding="UTF-8"?>
<svg xmlns="http://www.w3.org/2000/svg" baseProfile="tiny" version="1.2" viewBox="0 0 402.3 412.6">
  <!-- Generator: Adobe Illustrator 28.6.0, SVG Export Plug-In . SVG Version: 1.2.0 Build 709)  -->
  <g>
    <g id="_图层_1" data-name="图层_1">
      <path d="M5.5,394h184V0H5.5v394Z" fill="#fff"/>
      <line x1="5.5" y1="394" x2="189.5" y2="394" fill="none" stroke="#262626" stroke-linecap="square" stroke-linejoin="round" stroke-width=".7"/>
      <line x1="5.5" y1="394" x2="5.5" y2="390.1" fill="none" stroke="#262626" stroke-linecap="square" stroke-linejoin="round" stroke-width=".7"/>
      <line x1="42.3" y1="394" x2="42.3" y2="390.1" fill="none" stroke="#262626" stroke-linecap="square" stroke-linejoin="round" stroke-width=".7"/>
      <line x1="79.1" y1="394" x2="79.1" y2="390.1" fill="none" stroke="#262626" stroke-linecap="square" stroke-linejoin="round" stroke-width=".7"/>
      <line x1="115.9" y1="394" x2="115.9" y2="390.1" fill="none" stroke="#262626" stroke-linecap="square" stroke-linejoin="round" stroke-width=".7"/>
      <line x1="152.7" y1="394" x2="152.7" y2="390.1" fill="none" stroke="#262626" stroke-linecap="square" stroke-linejoin="round" stroke-width=".7"/>
      <line x1="189.5" y1="394" x2="189.5" y2="390.1" fill="none" stroke="#262626" stroke-linecap="square" stroke-linejoin="round" stroke-width=".7"/>
      <text transform="translate(0 408.9)" fill="#262626" font-family="ArialMT, Arial" font-size="11.3" isolation="isolate"><tspan x="0" y="0">-3</tspan></text>
      <text transform="translate(36.8 408.9)" fill="#262626" font-family="ArialMT, Arial" font-size="11.3" isolation="isolate"><tspan x="0" y="0">-2</tspan></text>
      <text transform="translate(73.6 408.9)" fill="#262626" font-family="ArialMT, Arial" font-size="11.3" isolation="isolate"><tspan x="0" y="0">-1</tspan></text>
      <text transform="translate(112.4 408.9)" fill="#262626" font-family="ArialMT, Arial" font-size="11.3" isolation="isolate"><tspan x="0" y="0">0</tspan></text>
      <text transform="translate(149.2 408.9)" fill="#262626" font-family="ArialMT, Arial" font-size="11.3" isolation="isolate"><tspan x="0" y="0">1</tspan></text>
      <text transform="translate(186 408.9)" fill="#262626" font-family="ArialMT, Arial" font-size="11.3" isolation="isolate"><tspan x="0" y="0">2</tspan></text>
      <path d="M5.5,32.5l4.7-1.2,4.7,4.4,4.7-11.3,4.7-1.5,4.7,9.1,4.7.9,4.7,4.7,4.7-7.5,4.7-5.2,4.7,7.9,4.7-4.8,4.7,3.6,4.7,1h4.7c0,0,4.7-6.8,4.7-6.8l4.7,9.5,4.7-6.3,4.7-1.7,4.7,4.2,4.7,3.9,4.7-7.2,4.7,1,4.7-1.5,4.7-8,4.7,4.6,4.7,6.3,4.7-3.1,4.7-3,4.7.7,4.7-8.5,4.7,7,4.7.6,4.7,6.7,4.7,4.2,4.7.5,4.7-13.2,4.7-.2,4.7,2.8,4.7-5.1" fill="none" stroke="blue" stroke-linejoin="round" stroke-width="1.3"/>
      <path d="M5.5,41.2l4.7-.6,4.7-2.9,4.7,7.8,4.7,19,4.7-9.4,4.7,14,4.7-11.8,4.7,8.3,4.7,4.2,4.7-1.6,4.7,2.4,4.7-.6,4.7,9.1,4.7-1,4.7.4,4.7-1.6,4.7,5.3,4.7-4.6,4.7-5.9,4.7,2.3,4.7,2,4.7,2.3,4.7,2.2,4.7,1,4.7,4.8,4.7-4.2,4.7,1.1,4.7-13.2,4.7,3.1,4.7,6.5,4.7-3.6,4.7,4.1,4.7,2,4.7.8,4.7,2.3,4.7-3.9,4.7,2.4,4.7,1.6,4.7,4.6" fill="none" stroke="red" stroke-linejoin="round" stroke-width="1.3"/>
      <path d="M5.5,322.2l4.7-.4,4.7,1.2,4.7,5.4h4.7c0,.1,4.7,2.8,4.7,2.8l4.7-4.1,4.7,6.6,4.7-8.7,4.7,2.3,4.7,3.6,4.7-2.1,4.7-3.6,4.7,5.2,4.7-6.5,4.7,4.2,4.7,2.5,4.7-3.9,4.7,1.5,4.7,6.9,4.7-5.3,4.7-1.9,4.7,7.1,4.7-4.8,4.7.5,4.7-.7,4.7-15.1,4.7-25,4.7-49,4.7-1.6,4.7-33.5,4.7-41.3,4.7-35.3,4.7-6.7,4.7-32.5,4.7,35.1,4.7,29.7,4.7,2.2,4.7.8,4.7,13.2" fill="none" stroke="#00ae00" stroke-linejoin="round" stroke-width="1.3"/>
      <path d="M115.9,394h7.4V0h-7.4v394Z" fill-opacity=".3"/>
      <path d="M215.5,394h184V0h-184v394Z" fill="#fff"/>
      <line x1="215.5" y1="394" x2="399.5" y2="394" fill="none" stroke="#262626" stroke-linecap="square" stroke-linejoin="round" stroke-width=".7"/>
      <line x1="215.5" y1="394" x2="215.5" y2="390.1" fill="none" stroke="#262626" stroke-linecap="square" stroke-linejoin="round" stroke-width=".7"/>
      <line x1="252.3" y1="394" x2="252.3" y2="390.1" fill="none" stroke="#262626" stroke-linecap="square" stroke-linejoin="round" stroke-width=".7"/>
      <line x1="289.1" y1="394" x2="289.1" y2="390.1" fill="none" stroke="#262626" stroke-linecap="square" stroke-linejoin="round" stroke-width=".7"/>
      <line x1="325.9" y1="394" x2="325.9" y2="390.1" fill="none" stroke="#262626" stroke-linecap="square" stroke-linejoin="round" stroke-width=".7"/>
      <line x1="362.7" y1="394" x2="362.7" y2="390.1" fill="none" stroke="#262626" stroke-linecap="square" stroke-linejoin="round" stroke-width=".7"/>
      <line x1="399.5" y1="394" x2="399.5" y2="390.1" fill="none" stroke="#262626" stroke-linecap="square" stroke-linejoin="round" stroke-width=".7"/>
      <text transform="translate(210 408.9)" fill="#262626" font-family="ArialMT, Arial" font-size="11.3" isolation="isolate"><tspan x="0" y="0">-3</tspan></text>
      <text transform="translate(246.8 408.9)" fill="#262626" font-family="ArialMT, Arial" font-size="11.3" isolation="isolate"><tspan x="0" y="0">-2</tspan></text>
      <text transform="translate(283.6 408.9)" fill="#262626" font-family="ArialMT, Arial" font-size="11.3" isolation="isolate"><tspan x="0" y="0">-1</tspan></text>
      <text transform="translate(322.4 408.9)" fill="#262626" font-family="ArialMT, Arial" font-size="11.3" isolation="isolate"><tspan x="0" y="0">0</tspan></text>
      <text transform="translate(359.2 408.9)" fill="#262626" font-family="ArialMT, Arial" font-size="11.3" isolation="isolate"><tspan x="0" y="0">1</tspan></text>
      <text transform="translate(396 408.9)" fill="#262626" font-family="ArialMT, Arial" font-size="11.3" isolation="isolate"><tspan x="0" y="0">2</tspan></text>
      <path d="M215.5,298.9l4.7,5.9,4.7,2,4.7-1.4,4.7.7,4.7,1.6,4.7,12.8,4.7-4.9,4.7,10,4.7,4.3,4.7,1.6,4.7-3.5,4.7,7.9,4.7-3.3,4.7,3.3,4.7,2.6,4.7,1,4.7,2,4.7,1.4,4.7-2.7,4.7,7.7,4.7.6,4.7.7,4.7-2.3,4.7,4.2,4.7-.8,4.7-3,4.7-13.3,4.7-2.3h4.7c0,0,4.7-10.3,4.7-10.3l4.7-33.8,4.7-23.6,4.7-60.9,4.7-51.7,4.7-72,4.7-51,4.7,9.7,4.7-6,4.7-26.7" fill="none" stroke="#000" stroke-linejoin="round" stroke-width="1.3"/>
      <path d="M325.9,394h7.4V0h-7.4v394Z" fill-opacity=".3"/>
    </g>
  </g>
</svg>