<?xml version="1.0" encoding="UTF-8"?>
<svg id="_图层_1" data-name="图层 1" xmlns="http://www.w3.org/2000/svg" viewBox="0 0 163.58 78.63">
  <g>
    <path d="M42.77,75.08c-.8-.54-1.35-1.34-2.14-2.62-1.81-2.93-3.06-6.19-3.45-9.62-.35-3.09-.91-7.43.03-10.39.9-2.83,2.04-5.98,4.08-8.08.82-.84,1.3-1.92,2.15-2.7,1.68-1.56,3.23-3.12,4.9-4.76,1.93-1.89,3.63-3.96,5.51-5.89,1.33-1.37,2.37-3.09,3.97-4.18.61-.41,1.5-.58,2.05-1.05.66-.57.87-1.5,1.58-2.03.63-.47,1.53-.53,2.23-.96,1.67-1.02,3.12-2.73,4.42-4.09,1.36-1.42,2.9-1.98,4.64-2.82s3.01-2.46,4.71-3.07c.79-.28,1.76-.11,2.53-.49.85-.43,1.49-1.37,2.39-1.83,1.75-.91,3.59-1.42,5.44-1.88,1.91-.47,3.42-1.78,5.31-2.37,1.53-.47,3.19-.43,4.76-.8,2-.48,3.96-1.26,6.01-1.52,2.37-.29,4.51-.29,6.78-1.18,2.44-.95,4.67-1.89,7.28-1.9,4.8,0,9.66-.06,14.41.17,3.77.18,7.15,1.32,10.83,1.86,1.65.24,3.41,0,5.04.32,1.98.4,3.36,1.8,4.89,2.99,1.68,1.3,3.45,2.76,4.93,4.27,1.39,1.42,4.02,3.19,4.51,5.05.46,1.78-.1,4.12-.18,5.9-.08,1.81.02,3.62-.15,5.4-.21,2.11-.98,3.16-1.65,5.06-.62,1.74-.18,3.56-.51,5.35-.73,3.87-3.06,7.43-4.8,10.83-.9,1.77-.37,3.71-.98,5.56-.52,1.58-1.89,2.8-2.52,4.51-1.23,3.34-3.94,5.63-6.23,8.34-2.2,2.58-4.42,5.05-6.86,7.36-1.14,1.07-1.97,1.49-3.46,1.98-1.38.46-2.34,1.23-3.8,1.24-1.4.01-2.65-.14-4.13.02-1.96.22-3.92.05-5.9-.05-15.85-.81-31.78-.33-47.65-.33-3.62,0-7.28-.08-10.79-.75-5.77-1.1-11.79,1.13-17.55.09-1.36-.25-2.33-.68-3.71-.6-1.57.1-3.08.59-4.67.59-1.37,0-2.72.04-4.04.16-2.84.26-5.73.18-8.6.18h-10.06c-2.67,0-6.46.59-8.95-.67-.59-.3-1.19-1.05-1.72-1.48-1.66-1.33-2.44-2.4-2.66-4.62-.15-1.47-.3-3.63.17-4.98,1.11-3.21,3.62-5.98,6.53-7.74,1.64-.99,3.21-2.09,4.86-3.05,1.07-.62,2.22-1.74,3.4-2.05,1.21-.32,1.9-.4,3.04-.97.96-.48,1.94-.66,2.99-.88.68-.14.99-.04,1.6-.33.55-.27.47-.76,1.17-1.01,1.8-.65,5.12-.07,7.05-.17,2.51-.13,4.33.19,6.56,1.18" style="fill: none; stroke: #9fa0a0; stroke-width: 1.6px;"/>
    <path d="M94.74,78.32c-1.15,0-2.06-.92-2.06-2.06s.92-2.06,2.06-2.06,2.06.92,2.06,2.06-.91,2.06-2.06,2.06Z" style="fill: none; stroke: #e4007f; stroke-linecap: round; stroke-linejoin: round; stroke-width: .62px;"/>
    <polygon points="58.06 39.74 65.79 39.74 65.79 47.34 58.06 47.47 58.06 39.74" style="fill: none; stroke: red; stroke-linecap: round; stroke-linejoin: round; stroke-width: .62px;"/>
  </g>
  <g>
    <path d="M42.78,75.41c-.8-.54-1.35-1.34-2.14-2.62-1.81-2.93-3.06-6.19-3.45-9.62-.35-3.09-.91-7.43.03-10.39.9-2.83,2.04-5.98,4.08-8.08.82-.84,1.3-1.92,2.15-2.7,1.68-1.56,3.23-3.12,4.89-4.76,1.93-1.89,3.63-3.96,5.51-5.89,1.33-1.37,2.37-3.09,3.97-4.18.61-.42,1.5-.58,2.05-1.05.66-.57.87-1.5,1.58-2.03.63-.47,1.52-.53,2.23-.96,1.67-1.02,3.12-2.73,4.42-4.09,1.36-1.42,2.9-1.98,4.64-2.82s3.01-2.46,4.71-3.07c.8-.28,1.76-.11,2.53-.49.85-.43,1.49-1.37,2.39-1.83,1.75-.91,3.59-1.42,5.44-1.88,1.91-.47,3.42-1.78,5.31-2.37,1.53-.47,3.19-.43,4.76-.8,2-.48,3.96-1.26,6.01-1.52,2.37-.29,4.51-.29,6.78-1.18,2.44-.95,4.67-1.89,7.28-1.9,4.8,0,9.66-.06,14.41.17,3.77.18,7.15,1.32,10.83,1.86,1.65.24,3.41,0,5.04.32,1.98.4,3.36,1.8,4.89,2.99,1.68,1.3,3.45,2.76,4.93,4.27,1.39,1.42,4.02,3.19,4.51,5.05.46,1.78-.1,4.12-.18,5.9-.08,1.81.02,3.62-.15,5.4-.21,2.11-.98,3.16-1.65,5.06-.61,1.74-.17,3.56-.51,5.35-.73,3.87-3.06,7.43-4.8,10.83-.9,1.77-.37,3.71-.98,5.56-.52,1.58-1.89,2.8-2.52,4.51-1.23,3.34-3.94,5.64-6.24,8.34-2.2,2.58-4.42,5.05-6.86,7.36-1.14,1.07-1.97,1.49-3.46,1.98-1.37.46-2.34,1.23-3.8,1.24-1.4.01-2.65-.14-4.13.02-1.96.22-3.92.05-5.9-.05-15.85-.81-31.78-.33-47.64-.33-3.62,0-7.28-.08-10.79-.75-5.77-1.1-11.79,1.13-17.55.09-1.36-.25-2.33-.68-3.71-.6-1.57.1-3.08.59-4.67.59-1.37,0-2.72.04-4.04.16-2.84.26-5.73.18-8.61.18h-10.06c-2.67,0-6.46.59-8.95-.67-.59-.3-1.19-1.05-1.72-1.48-1.66-1.33-2.44-2.4-2.66-4.62-.14-1.47-.3-3.63.17-4.98,1.11-3.21,3.62-5.98,6.53-7.74,1.64-.99,3.21-2.09,4.86-3.05,1.07-.62,2.22-1.74,3.4-2.05,1.21-.32,1.9-.4,3.04-.97.96-.48,1.94-.66,2.99-.88.68-.14.99-.04,1.6-.33.55-.27.47-.76,1.17-1.01,1.8-.65,5.12-.07,7.05-.17,2.51-.13,4.33.19,6.56,1.18" style="fill: none; stroke: #9fa0a0; stroke-width: 1.6px;"/>
    <polygon points="66.81 20.41 66.81 22.69 75.18 23.29 74.07 47.84 66.81 48.44 65.92 56.22 58.43 56.22 57.83 64.04 37.47 64.61 38.27 47.84 66.81 20.41" style="fill: none; stroke: red; stroke-linecap: round; stroke-linejoin: round; stroke-width: .62px;"/>
  </g>
  <g>
    <path d="M42.78,75.08c-.8-.54-1.35-1.34-2.14-2.62-1.81-2.93-3.06-6.19-3.45-9.62-.35-3.09-.91-7.43.03-10.39.9-2.83,2.04-5.98,4.08-8.08.82-.84,1.3-1.92,2.15-2.7,1.68-1.56,3.23-3.12,4.89-4.76,1.93-1.89,3.63-3.96,5.51-5.89,1.33-1.37,2.37-3.09,3.97-4.18.61-.42,1.5-.58,2.05-1.05.66-.57.87-1.5,1.58-2.03.63-.47,1.52-.53,2.23-.96,1.67-1.02,3.12-2.73,4.42-4.09,1.36-1.42,2.9-1.98,4.64-2.82s3.01-2.46,4.71-3.07c.8-.28,1.76-.11,2.53-.49.85-.43,1.49-1.37,2.39-1.83,1.75-.91,3.59-1.42,5.44-1.88,1.91-.47,3.42-1.78,5.31-2.37,1.53-.47,3.19-.43,4.76-.8,2-.48,3.96-1.26,6.01-1.52,2.37-.29,4.51-.29,6.78-1.18,2.44-.95,4.67-1.89,7.28-1.9,4.8,0,9.66-.06,14.41.17,3.77.18,7.15,1.32,10.83,1.86,1.65.24,3.41-.01,5.04.32,1.98.4,3.36,1.8,4.89,2.99,1.68,1.3,3.45,2.76,4.93,4.27,1.39,1.42,4.02,3.19,4.51,5.05.46,1.78-.1,4.12-.18,5.9-.08,1.81.02,3.61-.15,5.4-.21,2.11-.98,3.16-1.65,5.06-.61,1.74-.17,3.56-.51,5.34-.73,3.87-3.06,7.43-4.8,10.83-.9,1.77-.37,3.71-.98,5.56-.52,1.58-1.89,2.8-2.52,4.51-1.23,3.34-3.94,5.63-6.24,8.34-2.2,2.58-4.42,5.05-6.86,7.36-1.14,1.07-1.97,1.49-3.46,1.98-1.37.46-2.34,1.23-3.8,1.24-1.4,0-2.65-.14-4.13.03-1.96.22-3.92.05-5.9-.05-15.85-.81-31.78-.33-47.64-.33-3.62,0-7.28-.08-10.79-.75-5.77-1.1-11.79,1.13-17.55.09-1.36-.25-2.33-.68-3.71-.6-1.57.1-3.08.59-4.67.59-1.37,0-2.72.04-4.04.16-2.84.26-5.73.18-8.61.18h-10.06c-2.67,0-6.46.59-8.95-.67-.59-.3-1.19-1.05-1.72-1.48-1.66-1.33-2.44-2.4-2.66-4.62-.14-1.47-.3-3.63.17-4.98,1.11-3.21,3.62-5.98,6.53-7.74,1.64-.99,3.21-2.09,4.86-3.05,1.07-.62,2.22-1.74,3.4-2.05,1.21-.32,1.9-.4,3.04-.97.96-.48,1.94-.66,2.99-.88.68-.14.99-.04,1.6-.33.55-.27.47-.76,1.17-1.01,1.8-.65,5.12-.07,7.05-.17,2.51-.13,4.33.2,6.56,1.18" style="fill: none; stroke: #9fa0a0; stroke-width: 1.6px;"/>
    <polygon points="52.76 32.17 66.12 32.61 66.12 48.65 58.24 48.65 58.24 40.19 49.52 40.41 49.92 35.28 52.76 32.17" style="fill: none; stroke: red; stroke-linecap: round; stroke-linejoin: round; stroke-width: .62px;"/>
  </g>
  <g>
    <path d="M42.78,75.08c-.8-.54-1.35-1.34-2.14-2.62-1.81-2.93-3.06-6.19-3.45-9.62-.35-3.09-.91-7.43.03-10.39.9-2.83,2.04-5.98,4.08-8.08.82-.84,1.3-1.92,2.15-2.7,1.68-1.56,3.23-3.12,4.89-4.76,1.93-1.89,3.63-3.96,5.51-5.89,1.33-1.37,2.37-3.09,3.97-4.18.61-.42,1.5-.58,2.05-1.05.66-.57.87-1.5,1.58-2.03.63-.47,1.52-.53,2.23-.96,1.67-1.02,3.12-2.73,4.42-4.09,1.36-1.42,2.9-1.98,4.64-2.82s3.01-2.46,4.71-3.07c.8-.28,1.76-.11,2.53-.49.85-.43,1.49-1.37,2.39-1.83,1.75-.91,3.59-1.42,5.44-1.88,1.91-.47,3.42-1.78,5.31-2.37,1.53-.47,3.19-.43,4.76-.8,2-.48,3.96-1.26,6.01-1.52,2.37-.29,4.51-.29,6.78-1.18,2.44-.95,4.67-1.89,7.28-1.9,4.8,0,9.66-.06,14.41.17,3.77.18,7.15,1.32,10.83,1.86,1.65.24,3.41-.01,5.04.32,1.98.4,3.36,1.8,4.89,2.99,1.68,1.3,3.45,2.76,4.93,4.27,1.39,1.42,4.02,3.19,4.51,5.05.46,1.78-.1,4.12-.18,5.9-.08,1.81.02,3.61-.15,5.4-.21,2.11-.98,3.16-1.65,5.06-.61,1.74-.17,3.56-.51,5.34-.73,3.87-3.06,7.43-4.8,10.83-.9,1.77-.37,3.71-.98,5.56-.52,1.58-1.89,2.8-2.52,4.51-1.23,3.34-3.94,5.63-6.24,8.34-2.2,2.58-4.42,5.05-6.86,7.36-1.14,1.07-1.97,1.49-3.46,1.98-1.37.46-2.34,1.23-3.8,1.24-1.4,0-2.65-.14-4.13.03-1.96.22-3.92.05-5.9-.05-15.85-.81-31.78-.33-47.64-.33-3.62,0-7.28-.08-10.79-.75-5.77-1.1-11.79,1.13-17.55.09-1.36-.25-2.33-.68-3.71-.6-1.57.1-3.08.59-4.67.59-1.37,0-2.72.04-4.04.16-2.84.26-5.73.18-8.61.18h-10.06c-2.67,0-6.46.59-8.95-.67-.59-.3-1.19-1.05-1.72-1.48-1.66-1.33-2.44-2.4-2.66-4.62-.14-1.47-.3-3.63.17-4.98,1.11-3.21,3.62-5.98,6.53-7.74,1.64-.99,3.21-2.09,4.86-3.05,1.07-.62,2.22-1.74,3.4-2.05,1.21-.32,1.9-.4,3.04-.97.96-.48,1.94-.66,2.99-.88.68-.14.99-.04,1.6-.33.55-.27.47-.76,1.17-1.01,1.8-.65,5.12-.07,7.05-.17,2.51-.13,4.33.2,6.56,1.18" style="fill: none; stroke: #9fa0a0; stroke-width: 1.6px;"/>
    <polygon points="52.76 32.17 66.12 32.61 66.12 48.65 58.24 48.65 58.24 40.19 49.52 40.41 49.92 35.28 52.76 32.17" style="fill: none; stroke: red; stroke-linecap: round; stroke-linejoin: round; stroke-width: .62px;"/>
  </g>
  <g>
    <path d="M42.77,75.09c-.8-.54-1.35-1.34-2.14-2.62-1.81-2.93-3.06-6.19-3.45-9.62-.35-3.09-.91-7.43.03-10.39.9-2.83,2.04-5.98,4.09-8.08.81-.84,1.3-1.92,2.14-2.7,1.68-1.56,3.23-3.12,4.9-4.76,1.93-1.89,3.63-3.96,5.51-5.89,1.33-1.37,2.37-3.09,3.97-4.18.61-.42,1.5-.58,2.05-1.05.66-.57.87-1.5,1.58-2.03.63-.47,1.52-.53,2.23-.96,1.67-1.02,3.11-2.73,4.42-4.09,1.36-1.42,2.9-1.98,4.64-2.82,1.74-.84,3.01-2.46,4.71-3.08.79-.28,1.76-.1,2.53-.49.85-.43,1.49-1.37,2.39-1.83,1.75-.91,3.59-1.42,5.44-1.88,1.91-.47,3.42-1.78,5.31-2.37,1.53-.47,3.19-.43,4.76-.8,2-.47,3.96-1.26,6.01-1.52,2.37-.29,4.5-.29,6.78-1.18,2.44-.95,4.67-1.89,7.28-1.9,4.8,0,9.66-.06,14.41.17,3.77.18,7.15,1.32,10.84,1.86,1.65.24,3.41,0,5.04.32,1.98.4,3.36,1.8,4.89,2.99,1.68,1.3,3.45,2.76,4.93,4.27,1.39,1.42,4.02,3.19,4.51,5.05.46,1.78-.1,4.11-.18,5.9-.08,1.81.02,3.62-.15,5.4-.21,2.11-.98,3.17-1.65,5.06-.62,1.74-.17,3.56-.51,5.35-.73,3.87-3.06,7.43-4.8,10.83-.9,1.77-.37,3.71-.98,5.56-.52,1.58-1.89,2.79-2.52,4.51-1.23,3.34-3.94,5.64-6.23,8.34-2.2,2.58-4.42,5.05-6.86,7.36-1.14,1.08-1.97,1.49-3.46,1.98-1.37.46-2.34,1.23-3.8,1.24-1.39.01-2.65-.14-4.13.02-1.96.22-3.92.05-5.9-.05-15.85-.81-31.78-.33-47.65-.33-3.62,0-7.28-.08-10.79-.75-5.77-1.1-11.79,1.13-17.55.09-1.37-.25-2.33-.68-3.71-.6-1.57.1-3.08.59-4.67.59-1.37,0-2.72.04-4.04.16-2.84.26-5.73.18-8.61.18h-10.06c-2.67,0-6.46.59-8.95-.67-.58-.3-1.19-1.05-1.72-1.48-1.66-1.33-2.44-2.4-2.66-4.62-.15-1.47-.3-3.63.17-4.98,1.11-3.21,3.62-5.98,6.53-7.74,1.64-.99,3.21-2.09,4.86-3.05,1.07-.62,2.22-1.74,3.4-2.05,1.21-.32,1.9-.4,3.04-.97.96-.49,1.94-.66,2.99-.88.68-.14.99-.04,1.6-.34.55-.27.47-.76,1.17-1.01,1.8-.65,5.12-.07,7.05-.17,2.51-.13,4.33.19,6.56,1.18" style="fill: none; stroke: #9fa0a0; stroke-width: 1.6px;"/>
    <polygon points="42.24 43.66 52.81 32.48 58.35 33.29 58.22 48.85 42.8 48.85 42.24 43.66" style="fill: none; stroke: red; stroke-linecap: round; stroke-linejoin: round; stroke-width: .62px;"/>
  </g>
  <g>
    <path d="M42.77,75.09c-.8-.54-1.35-1.34-2.14-2.62-1.81-2.93-3.06-6.19-3.45-9.62-.35-3.09-.91-7.43.03-10.39.9-2.83,2.04-5.98,4.08-8.08.82-.84,1.3-1.92,2.14-2.7,1.68-1.56,3.23-3.12,4.9-4.76,1.93-1.89,3.63-3.96,5.51-5.89,1.33-1.37,2.36-3.09,3.97-4.18.61-.42,1.5-.58,2.05-1.05.66-.57.87-1.5,1.58-2.03.63-.47,1.53-.53,2.23-.96,1.67-1.02,3.12-2.73,4.42-4.09,1.36-1.42,2.9-1.98,4.64-2.82,1.74-.84,3.01-2.46,4.71-3.08.8-.28,1.76-.1,2.53-.49.86-.43,1.49-1.37,2.39-1.83,1.75-.91,3.59-1.42,5.44-1.88,1.91-.47,3.42-1.78,5.31-2.37,1.53-.47,3.19-.43,4.76-.8,2-.48,3.96-1.26,6.01-1.52,2.37-.29,4.51-.29,6.78-1.18,2.44-.95,4.67-1.89,7.28-1.9,4.8,0,9.66-.06,14.41.17,3.77.18,7.15,1.32,10.84,1.86,1.65.24,3.41,0,5.04.32,1.98.4,3.36,1.8,4.89,2.99,1.68,1.3,3.45,2.76,4.93,4.27,1.39,1.42,4.02,3.19,4.51,5.05.46,1.78-.1,4.12-.17,5.9-.08,1.81.02,3.61-.15,5.4-.21,2.11-.98,3.17-1.65,5.06-.62,1.74-.17,3.56-.51,5.35-.73,3.87-3.06,7.43-4.8,10.83-.9,1.77-.37,3.71-.98,5.56-.52,1.58-1.89,2.79-2.52,4.51-1.23,3.34-3.94,5.64-6.23,8.34-2.19,2.58-4.42,5.05-6.86,7.36-1.13,1.08-1.97,1.49-3.46,1.98-1.38.46-2.34,1.23-3.8,1.24-1.4.01-2.65-.14-4.13.02-1.96.22-3.92.05-5.9-.05-15.85-.81-31.78-.33-47.65-.33-3.62,0-7.28-.08-10.79-.75-5.77-1.1-11.79,1.13-17.55.09-1.36-.25-2.33-.68-3.71-.6-1.57.1-3.08.59-4.67.59-1.37,0-2.72.04-4.04.16-2.84.26-5.73.18-8.6.18h-10.06c-2.67,0-6.46.59-8.95-.67-.59-.3-1.19-1.05-1.72-1.48-1.66-1.33-2.44-2.4-2.66-4.62-.14-1.47-.3-3.63.17-4.98,1.11-3.21,3.62-5.98,6.53-7.74,1.64-.99,3.21-2.09,4.86-3.05,1.07-.62,2.22-1.74,3.4-2.05,1.21-.32,1.9-.4,3.04-.97.96-.49,1.94-.66,2.99-.88.68-.14.99-.04,1.6-.34.55-.27.47-.76,1.17-1.01,1.8-.65,5.12-.07,7.05-.17,2.51-.13,4.33.19,6.56,1.18" style="fill: none; stroke: #9fa0a0; stroke-width: 1.6px;"/>
    <polygon points="41.84 44.29 52.88 32.91 58.27 33.75 57.75 40.7 50.05 40.99 50.05 48.95 41.84 48.95 41.84 44.29" style="fill: none; stroke: red; stroke-linecap: round; stroke-linejoin: round; stroke-width: .62px;"/>
  </g>
  <g>
    <path d="M42.75,75.08c-.8-.54-1.35-1.34-2.14-2.62-1.81-2.93-3.06-6.19-3.45-9.62-.35-3.09-.91-7.43.03-10.4.9-2.82,2.04-5.98,4.08-8.08.82-.84,1.3-1.92,2.15-2.7,1.68-1.56,3.23-3.12,4.9-4.76,1.93-1.89,3.63-3.96,5.51-5.89,1.33-1.37,2.37-3.09,3.97-4.18.61-.42,1.5-.58,2.05-1.05.66-.57.87-1.5,1.58-2.03.63-.47,1.53-.53,2.23-.96,1.67-1.02,3.12-2.73,4.42-4.09,1.36-1.42,2.9-1.98,4.64-2.82s3.01-2.46,4.71-3.07c.8-.28,1.76-.1,2.53-.49.86-.43,1.49-1.37,2.39-1.83,1.75-.91,3.59-1.42,5.44-1.88,1.91-.48,3.42-1.78,5.31-2.37,1.53-.47,3.19-.43,4.76-.8,2-.48,3.96-1.26,6.01-1.52,2.37-.29,4.51-.29,6.79-1.18,2.44-.95,4.66-1.89,7.28-1.9,4.8,0,9.66-.06,14.41.17,3.77.18,7.15,1.32,10.84,1.86,1.65.24,3.41-.01,5.04.32,1.98.4,3.36,1.8,4.89,2.99,1.68,1.3,3.45,2.75,4.93,4.27,1.39,1.42,4.02,3.19,4.51,5.05.46,1.78-.1,4.12-.17,5.9-.08,1.81.02,3.62-.15,5.4-.21,2.11-.98,3.16-1.65,5.06-.61,1.74-.17,3.56-.51,5.35-.73,3.87-3.06,7.43-4.8,10.83-.9,1.77-.37,3.71-.98,5.56-.52,1.58-1.89,2.8-2.52,4.51-1.23,3.34-3.94,5.63-6.24,8.34-2.19,2.58-4.42,5.05-6.86,7.36-1.13,1.07-1.97,1.49-3.46,1.98-1.38.46-2.34,1.23-3.8,1.24-1.39.01-2.65-.14-4.13.03-1.96.22-3.92.05-5.9-.05-15.85-.81-31.78-.33-47.65-.33-3.62,0-7.28-.08-10.79-.75-5.77-1.1-11.79,1.13-17.55.09-1.36-.25-2.33-.68-3.71-.6-1.57.1-3.08.59-4.67.59-1.37,0-2.72.04-4.04.16-2.84.26-5.73.18-8.6.18h-10.06c-2.67,0-6.46.59-8.95-.67-.59-.3-1.19-1.05-1.72-1.48-1.66-1.33-2.44-2.4-2.66-4.63-.15-1.47-.3-3.63.17-4.98,1.11-3.21,3.62-5.98,6.53-7.74,1.64-.99,3.21-2.09,4.86-3.05,1.07-.62,2.22-1.74,3.4-2.05,1.21-.32,1.9-.4,3.04-.97.96-.48,1.94-.66,2.99-.88.68-.14.99-.04,1.6-.33.55-.27.47-.76,1.17-1.01,1.8-.65,5.12-.07,7.05-.17,2.51-.13,4.33.2,6.56,1.18" style="fill: none; stroke: #9fa0a0; stroke-width: 1.6px;"/>
    <polygon points="42.1 43.33 53.04 31.85 63.18 32.27 71.93 35.82 71.81 38.61 63.1 43.57 63.18 52.99 50.95 53.13 42.1 43.33" style="fill: none; stroke: red; stroke-linecap: round; stroke-linejoin: round; stroke-width: .62px;"/>
  </g>
  <g>
    <path d="M42.75,75.08c-.79-.54-1.35-1.34-2.14-2.62-1.81-2.93-3.06-6.19-3.44-9.62-.35-3.09-.91-7.43.03-10.4.89-2.83,2.04-5.97,4.08-8.08.81-.84,1.31-1.92,2.15-2.7,1.68-1.56,3.23-3.13,4.9-4.76,1.92-1.89,3.63-3.96,5.52-5.89,1.32-1.37,2.37-3.09,3.96-4.18.61-.41,1.5-.57,2.05-1.05.66-.57.87-1.5,1.58-2.03.63-.47,1.53-.53,2.23-.96,1.68-1.01,3.12-2.73,4.43-4.09,1.36-1.42,2.9-1.98,4.64-2.83,1.74-.84,3-2.46,4.71-3.07.79-.28,1.77-.1,2.53-.5.85-.43,1.49-1.37,2.38-1.83,1.75-.91,3.59-1.42,5.45-1.88,1.9-.47,3.42-1.78,5.31-2.37,1.53-.47,3.19-.42,4.76-.8,2-.48,3.96-1.27,6.02-1.51,2.37-.29,4.5-.29,6.78-1.17,2.44-.95,4.66-1.9,7.28-1.9,4.81,0,9.67-.06,14.41.17,3.77.18,7.14,1.32,10.83,1.86,1.65.24,3.41,0,5.04.32,1.98.4,3.36,1.8,4.89,2.99,1.69,1.31,3.45,2.75,4.94,4.27,1.39,1.42,4.02,3.19,4.5,5.04.46,1.78-.1,4.11-.18,5.9-.08,1.81.02,3.62-.15,5.4-.21,2.11-.98,3.17-1.65,5.06-.62,1.74-.18,3.56-.51,5.35-.73,3.87-3.06,7.43-4.8,10.83-.9,1.77-.36,3.71-.97,5.56-.52,1.58-1.88,2.8-2.52,4.51-1.23,3.34-3.94,5.64-6.23,8.34-2.2,2.58-4.42,5.05-6.86,7.37-1.14,1.07-1.97,1.49-3.46,1.98-1.37.46-2.34,1.23-3.8,1.24-1.39,0-2.65-.13-4.13.03-1.96.22-3.92.05-5.9-.05-15.85-.81-31.79-.33-47.65-.33-3.62,0-7.28-.08-10.8-.75-5.77-1.1-11.8,1.14-17.55.08-1.36-.24-2.33-.68-3.71-.59-1.57.09-3.08.58-4.67.58-1.37,0-2.72.04-4.04.16-2.84.26-5.73.18-8.61.18h-10.06c-2.67,0-6.47.59-8.95-.67-.59-.3-1.19-1.05-1.72-1.47-1.66-1.32-2.44-2.41-2.66-4.63-.15-1.47-.3-3.63.17-4.99,1.11-3.21,3.62-5.97,6.54-7.74,1.64-1,3.21-2.09,4.86-3.05,1.07-.62,2.22-1.74,3.4-2.06,1.21-.32,1.9-.39,3.04-.98.96-.49,1.94-.66,2.99-.87.68-.14.99-.04,1.6-.34.55-.26.47-.76,1.17-1.01,1.81-.65,5.12-.08,7.05-.17,2.51-.12,4.33.2,6.57,1.18" style="fill: none; stroke: #9fa0a0; stroke-width: 1.67px;"/>
    <polygon points="80.76 46.53 92.6 46.53 98.82 55.23 89.79 68.83 79.08 59.44 80.76 46.53" style="fill: none; stroke: blue;"/>
  </g>
  <g>
    <path d="M42.75,75.08c-.79-.54-1.35-1.34-2.14-2.61-1.81-2.92-3.06-6.16-3.44-9.58-.35-3.08-.91-7.4.03-10.35.89-2.81,2.04-5.95,4.08-8.04.81-.83,1.31-1.91,2.15-2.68,1.68-1.55,3.23-3.1,4.9-4.74,1.92-1.88,3.63-3.95,5.52-5.86,1.33-1.37,2.37-3.08,3.96-4.16.61-.41,1.5-.57,2.05-1.05.66-.57.87-1.5,1.58-2.02.63-.47,1.52-.52,2.23-.95,1.68-1.01,3.11-2.72,4.43-4.07,1.36-1.41,2.9-1.97,4.64-2.81,1.74-.83,3-2.45,4.71-3.06.79-.28,1.77-.1,2.53-.5.85-.43,1.49-1.37,2.38-1.82,1.75-.91,3.59-1.41,5.45-1.87,1.9-.47,3.42-1.77,5.31-2.36,1.53-.48,3.19-.42,4.76-.79,2-.48,3.96-1.26,6.02-1.51,2.37-.29,4.5-.29,6.78-1.17,2.44-.94,4.66-1.89,7.28-1.89,4.81,0,9.67-.06,14.42.17,3.77.18,7.14,1.32,10.83,1.85,1.65.24,3.41,0,5.04.32,1.98.4,3.36,1.8,4.89,2.97,1.69,1.3,3.45,2.74,4.93,4.26,1.39,1.41,4.02,3.18,4.5,5.02.46,1.78-.1,4.1-.18,5.87-.08,1.8.02,3.6-.15,5.38-.21,2.1-.98,3.15-1.65,5.04-.62,1.73-.18,3.54-.51,5.32-.73,3.85-3.06,7.4-4.8,10.78-.9,1.76-.36,3.69-.97,5.54-.52,1.57-1.88,2.79-2.52,4.49-1.23,3.32-3.94,5.61-6.23,8.3-2.2,2.57-4.42,5.03-6.86,7.33-1.14,1.07-1.97,1.49-3.46,1.97-1.37.46-2.34,1.23-3.8,1.23-1.39,0-2.65-.13-4.13.03-1.96.22-3.92.05-5.9-.05-15.85-.8-31.79-.33-47.65-.33-3.62,0-7.28-.08-10.8-.75-5.77-1.09-11.8,1.13-17.55.08-1.36-.24-2.33-.67-3.71-.59-1.57.09-3.08.58-4.67.58-1.37,0-2.72.04-4.04.16-2.84.26-5.73.18-8.61.18h-10.06c-2.67,0-6.46.59-8.95-.66-.59-.3-1.19-1.05-1.72-1.47-1.66-1.32-2.44-2.39-2.66-4.61-.15-1.47-.3-3.61.17-4.97,1.11-3.2,3.62-5.95,6.54-7.71,1.64-.99,3.21-2.08,4.86-3.04,1.07-.62,2.22-1.73,3.4-2.05,1.21-.32,1.9-.39,3.04-.97.96-.49,1.94-.65,2.99-.87.68-.14.99-.04,1.6-.34.55-.26.47-.76,1.17-1.01,1.81-.65,5.12-.07,7.05-.17,2.51-.12,4.33.2,6.57,1.18" style="fill: none; stroke: #9fa0a0; stroke-width: 1.67px;"/>
    <polygon points="80.66 44.61 94.29 44.49 94.74 50.87 99.66 57.06 99.09 65.32 87.43 65.32 85.57 59.31 80.3 57.06 80.66 44.61" style="fill: none; stroke: blue;"/>
  </g>
  <g>
    <path d="M42.75,75.09c-.79-.54-1.35-1.34-2.14-2.61-1.81-2.92-3.06-6.16-3.44-9.58-.35-3.08-.91-7.4.03-10.35.89-2.81,2.04-5.95,4.08-8.04.81-.83,1.31-1.91,2.14-2.68,1.68-1.55,3.23-3.11,4.9-4.74,1.92-1.88,3.63-3.94,5.52-5.86,1.33-1.37,2.37-3.08,3.96-4.16.61-.41,1.5-.57,2.05-1.05.66-.57.87-1.5,1.58-2.02.63-.47,1.52-.52,2.23-.95,1.68-1.01,3.11-2.72,4.43-4.07,1.36-1.41,2.9-1.97,4.64-2.81,1.74-.83,3-2.45,4.71-3.06.79-.28,1.77-.1,2.53-.5.85-.43,1.49-1.37,2.38-1.82,1.75-.91,3.59-1.42,5.45-1.88,1.9-.47,3.42-1.77,5.31-2.36,1.53-.48,3.19-.43,4.76-.79,2-.48,3.96-1.26,6.02-1.51,2.37-.29,4.5-.29,6.78-1.17,2.44-.94,4.67-1.89,7.28-1.89,4.81,0,9.67-.06,14.42.17,3.77.18,7.14,1.32,10.83,1.85,1.65.24,3.41,0,5.04.32,1.98.4,3.36,1.8,4.89,2.97,1.69,1.3,3.45,2.74,4.94,4.26,1.39,1.41,4.02,3.18,4.5,5.02.46,1.78-.1,4.1-.18,5.87-.08,1.8.02,3.6-.15,5.38-.21,2.1-.98,3.15-1.65,5.04-.62,1.73-.18,3.54-.51,5.32-.73,3.85-3.06,7.4-4.8,10.78-.9,1.76-.36,3.69-.97,5.54-.52,1.57-1.88,2.79-2.52,4.49-1.23,3.32-3.94,5.61-6.23,8.3-2.2,2.57-4.42,5.03-6.86,7.33-1.14,1.07-1.97,1.49-3.46,1.97-1.37.46-2.34,1.23-3.8,1.23-1.39,0-2.65-.13-4.13.03-1.96.22-3.92.05-5.9-.05-15.85-.8-31.79-.33-47.65-.33-3.62,0-7.28-.08-10.8-.75-5.77-1.09-11.8,1.13-17.55.08-1.36-.24-2.33-.67-3.71-.59-1.57.09-3.08.58-4.67.58-1.37,0-2.72.04-4.04.16-2.84.26-5.73.18-8.61.18h-10.06c-2.67,0-6.46.59-8.95-.66-.59-.3-1.19-1.05-1.72-1.47-1.66-1.32-2.44-2.39-2.66-4.61-.15-1.47-.3-3.61.17-4.97,1.11-3.2,3.62-5.95,6.54-7.71,1.64-.99,3.21-2.08,4.86-3.04,1.07-.62,2.22-1.73,3.4-2.05,1.21-.32,1.9-.39,3.04-.97.96-.49,1.94-.65,2.99-.87.68-.14.99-.04,1.6-.34.55-.26.47-.76,1.17-1.01,1.81-.65,5.12-.07,7.05-.17,2.51-.12,4.33.2,6.57,1.18" style="fill: none; stroke: #9fa0a0; stroke-width: 1.67px;"/>
    <polygon points="85.99 44.03 91.16 44.21 93.19 50.04 97.77 55.14 97.42 64.37 83.94 64.61 81.64 57.63 78.54 53.28 78.54 47.69 83.91 45.82 85.99 44.03" style="fill: none; stroke: blue;"/>
  </g>
  <g>
    <path d="M42.74,75.08c-.8-.54-1.35-1.34-2.14-2.61-1.81-2.92-3.06-6.16-3.45-9.58-.35-3.08-.91-7.4.03-10.35.89-2.81,2.04-5.95,4.08-8.04.81-.83,1.31-1.91,2.15-2.68,1.68-1.55,3.23-3.1,4.9-4.74,1.92-1.88,3.63-3.94,5.52-5.86,1.33-1.37,2.37-3.08,3.97-4.16.61-.41,1.5-.57,2.05-1.05.66-.57.87-1.5,1.58-2.02.63-.47,1.52-.52,2.23-.95,1.68-1.01,3.11-2.72,4.43-4.07,1.36-1.41,2.9-1.97,4.64-2.81,1.74-.83,3-2.45,4.71-3.06.8-.28,1.77-.1,2.53-.5.85-.43,1.49-1.37,2.39-1.82,1.75-.91,3.59-1.41,5.45-1.87,1.9-.47,3.42-1.77,5.31-2.36,1.53-.48,3.19-.42,4.76-.79,2-.48,3.96-1.26,6.02-1.51,2.38-.29,4.51-.29,6.78-1.17,2.44-.94,4.66-1.89,7.28-1.89,4.81,0,9.67-.06,14.42.17,3.77.18,7.15,1.32,10.84,1.85,1.65.24,3.41,0,5.04.32,1.98.4,3.36,1.8,4.89,2.97,1.69,1.3,3.45,2.74,4.93,4.26,1.39,1.41,4.02,3.18,4.51,5.02.46,1.78-.1,4.1-.18,5.87-.08,1.8.02,3.6-.15,5.38-.21,2.1-.98,3.15-1.65,5.04-.62,1.73-.18,3.54-.51,5.32-.73,3.85-3.06,7.4-4.8,10.78-.9,1.76-.36,3.69-.97,5.54-.52,1.57-1.88,2.79-2.52,4.49-1.23,3.32-3.94,5.61-6.23,8.3-2.2,2.57-4.42,5.03-6.86,7.33-1.14,1.07-1.97,1.49-3.46,1.97-1.37.46-2.34,1.23-3.8,1.23-1.39,0-2.65-.13-4.13.03-1.96.22-3.92.05-5.9-.05-15.85-.8-31.79-.33-47.65-.33-3.62,0-7.28-.08-10.8-.75-5.77-1.09-11.8,1.13-17.55.08-1.36-.24-2.33-.67-3.71-.59-1.57.09-3.08.58-4.67.58-1.37,0-2.72.04-4.04.16-2.84.26-5.73.18-8.61.18h-10.06c-2.67,0-6.46.59-8.95-.66-.59-.3-1.19-1.05-1.72-1.47-1.66-1.32-2.44-2.39-2.66-4.61-.15-1.47-.3-3.61.17-4.97,1.11-3.2,3.62-5.95,6.54-7.71,1.64-.99,3.21-2.08,4.86-3.04,1.07-.62,2.22-1.73,3.4-2.05,1.21-.32,1.9-.39,3.04-.97.96-.49,1.94-.65,2.99-.87.68-.14.99-.04,1.6-.34.55-.26.47-.76,1.17-1.01,1.81-.65,5.12-.07,7.05-.17,2.51-.12,4.33.2,6.57,1.18" style="fill: none; stroke: #9fa0a0; stroke-width: 1.67px;"/>
    <polygon points="81.17 46.86 88.98 43.43 96.87 47.09 99.68 54.53 99.42 60.91 95.5 61.34 94.08 64.34 85.98 63.99 81.05 56.04 81.17 46.86" style="fill: none; stroke: blue;"/>
  </g>
  <g>
    <path d="M42.75,75.41c-.79-.55-1.35-1.35-2.14-2.63-1.81-2.94-3.06-6.22-3.44-9.66-.35-3.1-.91-7.46.03-10.44.89-2.84,2.04-6,4.08-8.11.81-.84,1.31-1.92,2.14-2.71,1.68-1.57,3.23-3.13,4.9-4.78,1.92-1.9,3.63-3.98,5.52-5.92,1.33-1.38,2.36-3.1,3.96-4.2.61-.42,1.5-.58,2.05-1.06.66-.58.87-1.51,1.58-2.04.63-.47,1.52-.53,2.23-.96,1.68-1.02,3.11-2.75,4.43-4.1,1.36-1.42,2.89-1.99,4.64-2.84,1.74-.84,3-2.47,4.71-3.09.79-.28,1.77-.1,2.53-.5.85-.43,1.49-1.38,2.38-1.84,1.75-.92,3.59-1.42,5.45-1.9,1.9-.47,3.41-1.78,5.31-2.38,1.53-.48,3.19-.42,4.76-.8,2-.48,3.95-1.27,6.02-1.52,2.37-.29,4.5-.29,6.78-1.18,2.44-.95,4.67-1.91,7.28-1.91,4.81,0,9.67-.06,14.42.17,3.77.18,7.14,1.33,10.83,1.87,1.65.25,3.41,0,5.04.32,1.98.41,3.36,1.81,4.89,3,1.69,1.31,3.45,2.76,4.94,4.28,1.39,1.42,4.02,3.21,4.5,5.07.46,1.79-.1,4.13-.18,5.93-.08,1.82.02,3.63-.15,5.42-.21,2.12-.98,3.18-1.65,5.09-.62,1.75-.18,3.58-.51,5.37-.73,3.89-3.06,7.46-4.8,10.88-.9,1.77-.36,3.73-.97,5.59-.52,1.59-1.88,2.8-2.52,4.53-1.23,3.35-3.94,5.66-6.23,8.38-2.2,2.59-4.42,5.08-6.86,7.4-1.14,1.08-1.97,1.5-3.46,1.99-1.37.46-2.34,1.24-3.8,1.25-1.39,0-2.65-.13-4.13.03-1.96.22-3.92.05-5.9-.05-15.85-.81-31.78-.33-47.64-.33-3.62,0-7.28-.08-10.79-.75-5.77-1.1-11.8,1.14-17.55.08-1.36-.25-2.33-.68-3.71-.59-1.57.09-3.08.59-4.67.59-1.37,0-2.72.04-4.04.16-2.84.26-5.73.18-8.61.18h-10.06c-2.67,0-6.46.59-8.95-.67-.59-.3-1.19-1.06-1.72-1.48-1.66-1.33-2.44-2.42-2.66-4.65-.15-1.48-.3-3.64.17-5.01,1.11-3.23,3.62-6,6.54-7.77,1.64-1,3.21-2.09,4.86-3.07,1.07-.62,2.22-1.75,3.4-2.07,1.21-.32,1.9-.4,3.04-.98.96-.49,1.94-.66,2.99-.88.68-.14.99-.04,1.6-.34.55-.26.47-.76,1.17-1.02,1.81-.65,5.12-.08,7.05-.17,2.51-.12,4.33.2,6.57,1.19" style="fill: none; stroke: #9fa0a0; stroke-width: 1.67px;"/>
    <polygon points="88.45 68.83 76.29 50.19 82.37 43.72 89.73 44.19 92.9 47.51 111.36 47.29 111.55 51.51 105.44 60.46 96.77 68.83 88.45 68.83" style="fill: none; stroke: blue;"/>
  </g>
  <g>
    <path d="M42.98,75.15c-.79-.54-1.35-1.34-2.14-2.61-1.8-2.92-3.06-6.17-3.44-9.59-.35-3.08-.91-7.4.03-10.36.89-2.82,2.04-5.95,4.07-8.05.81-.83,1.3-1.91,2.14-2.69,1.67-1.55,3.22-3.12,4.89-4.75,1.92-1.88,3.62-3.94,5.5-5.87,1.33-1.37,2.36-3.08,3.96-4.17.61-.41,1.5-.57,2.05-1.05.66-.57.87-1.5,1.58-2.02.63-.47,1.52-.52,2.22-.95,1.67-1.01,3.1-2.72,4.42-4.07,1.36-1.41,2.89-1.98,4.63-2.82,1.73-.83,3-2.45,4.7-3.06.79-.28,1.76-.1,2.53-.5.85-.43,1.49-1.37,2.38-1.83,1.74-.91,3.58-1.41,5.44-1.87,1.9-.47,3.41-1.77,5.3-2.36,1.53-.47,3.18-.42,4.75-.8,2-.48,3.96-1.26,6-1.51,2.37-.29,4.5-.29,6.77-1.17,2.44-.95,4.65-1.89,7.27-1.89,4.8,0,9.65-.06,14.39.17,3.76.18,7.13,1.32,10.81,1.85,1.65.24,3.4,0,5.03.32,1.98.4,3.35,1.8,4.88,2.98,1.68,1.3,3.45,2.74,4.93,4.25,1.39,1.41,4.02,3.18,4.5,5.03.46,1.78-.1,4.1-.18,5.88-.08,1.81.02,3.6-.15,5.38-.21,2.11-.98,3.15-1.65,5.05-.62,1.73-.18,3.55-.51,5.33-.72,3.86-3.06,7.4-4.79,10.79-.9,1.76-.36,3.7-.97,5.54-.52,1.57-1.88,2.79-2.52,4.49-1.22,3.32-3.93,5.62-6.22,8.31-2.19,2.57-4.41,5.04-6.85,7.34-1.14,1.07-1.97,1.49-3.45,1.98-1.37.46-2.33,1.23-3.79,1.24-1.39,0-2.64-.13-4.12.03-1.96.22-3.91.05-5.89-.05-15.82-.81-31.72-.33-47.55-.33-3.61,0-7.27-.08-10.77-.75-5.76-1.1-11.77,1.13-17.51.08-1.36-.24-2.32-.67-3.7-.59-1.57.09-3.08.58-4.66.58-1.37,0-2.71.04-4.04.16-2.83.26-5.72.18-8.59.18h-10.04c-2.66,0-6.44.59-8.93-.66-.59-.3-1.19-1.05-1.71-1.47-1.66-1.32-2.44-2.4-2.65-4.61-.15-1.47-.3-3.61.17-4.97,1.11-3.2,3.61-5.95,6.52-7.71,1.64-.99,3.2-2.08,4.85-3.04,1.07-.62,2.21-1.73,3.39-2.05,1.2-.32,1.9-.39,3.04-.97.96-.49,1.94-.66,2.99-.87.68-.14.99-.04,1.6-.34.55-.26.47-.76,1.17-1.01,1.8-.65,5.11-.07,7.03-.17,2.51-.12,4.32.2,6.55,1.18" style="fill: none; stroke: #9fa0a0; stroke-width: 1.67px;"/>
    <polygon points="74.59 41.06 106.84 41.06 112.02 47.95 111.54 51.07 96.69 68.56 94.8 68.56 84.55 61.17 74.14 50.7 74.59 41.06" style="fill: none; stroke: blue;"/>
  </g>
  <line x1="37.47" y1="7.62" x2="37.47" y2="24.54" style="fill: none; stroke: #231815; stroke-linecap: round; stroke-linejoin: round; stroke-width: 1.6px;"/>
  <path d="M27.91,19.17v-2.15c0-.38.04-.67.11-.87.08-.2.2-.35.37-.46.17-.1.35-.16.55-.16.26,0,.45.08.56.23.11.16.17.39.17.7v2.7h.7v-2.41c0-.43.1-.74.29-.93s.43-.29.73-.29c.16,0,.3.04.42.11.12.08.2.18.25.3s.07.33.07.61v2.61h.7v-2.85c0-.47-.11-.82-.33-1.05-.22-.23-.54-.34-.95-.34-.53,0-.95.24-1.28.73-.08-.23-.22-.41-.42-.54s-.45-.19-.76-.19c-.28,0-.52.06-.74.19-.22.12-.39.29-.52.49v-.58h-.63v4.15h.71ZM21.25,19.17v-2.15c0-.38.04-.67.11-.87.08-.2.2-.35.37-.46.17-.1.35-.16.55-.16.26,0,.45.08.56.23.11.16.17.39.17.7v2.7h.7v-2.41c0-.43.1-.74.29-.93s.43-.29.73-.29c.16,0,.3.04.42.11.12.08.2.18.25.3s.07.33.07.61v2.61h.7v-2.85c0-.47-.11-.82-.33-1.05-.22-.23-.54-.34-.95-.34-.53,0-.95.24-1.28.73-.08-.23-.22-.41-.42-.54s-.45-.19-.76-.19c-.28,0-.52.06-.74.19-.22.12-.39.29-.52.49v-.58h-.63v4.15h.71ZM16.33,13.42h-.45c-.12.25-.33.5-.62.77-.29.26-.64.49-1.03.67v.68c.22-.08.47-.2.74-.36.27-.16.5-.32.67-.48v4.48h.7v-5.75h-.01Z" style="fill: #231815; stroke-width: 0px;"/>
  <g>
    <line x1="74.59" y1="54.79" x2="74.59" y2="46.33" style="fill: none; stroke: #00ae00; stroke-linecap: round; stroke-linejoin: round; stroke-width: .62px;"/>
    <line x1="74.59" y1="46.33" x2="74.59" y2="46.33" style="fill: none; stroke: #00ae00; stroke-linecap: round; stroke-linejoin: round; stroke-width: .62px;"/>
    <line x1="70.35" y1="50.54" x2="78.81" y2="50.54" style="fill: none; stroke: #00ae00; stroke-linecap: round; stroke-linejoin: round; stroke-width: .62px;"/>
    <line x1="78.81" y1="50.54" x2="78.81" y2="50.54" style="fill: none; stroke: #00ae00; stroke-linecap: round; stroke-linejoin: round; stroke-width: .62px;"/>
    <line x1="72.47" y1="52.67" x2="76.71" y2="48.45" style="fill: none; stroke: #00ae00; stroke-linecap: round; stroke-linejoin: round; stroke-width: .62px;"/>
    <line x1="76.71" y1="48.45" x2="76.71" y2="48.45" style="fill: none; stroke: #00ae00; stroke-linecap: round; stroke-linejoin: round; stroke-width: .62px;"/>
    <line x1="72.47" y1="48.45" x2="76.71" y2="52.67" style="fill: none; stroke: #00ae00; stroke-linecap: round; stroke-linejoin: round; stroke-width: .62px;"/>
    <line x1="76.71" y1="52.67" x2="76.71" y2="52.67" style="fill: none; stroke: #00ae00; stroke-linecap: round; stroke-linejoin: round; stroke-width: .62px;"/>
  </g>
  <circle cx="74.59" cy="50.56" r="8.46" style="fill: none; stroke: #00ae00; stroke-linecap: round; stroke-linejoin: round; stroke-width: 1.6px;"/>
</svg>