<?xml version="1.0" encoding="UTF-8" standalone="no"?>
<svg width="148.167mm" height="89.6056mm"
 viewBox="0 0 420 254"
 xmlns="http://www.w3.org/2000/svg" xmlns:xlink="http://www.w3.org/1999/xlink"  version="1.2" baseProfile="tiny">
<title>Qt SVG Document</title>
<desc>MATLAB, The MathWorks, Inc. Version 25.1.0.2973910 R2025a Update 1</desc>
<defs>
</defs>
<g fill="none" stroke="black" stroke-width="1" fill-rule="evenodd" stroke-linecap="square" stroke-linejoin="bevel" >

<g fill="#ffffff" fill-opacity="1" stroke="none" transform="matrix(0.75,0,0,0.75,0,0)"
font-family="SimSun" font-size="9" font-weight="400" font-style="normal" 
>
<path vector-effect="none" fill-rule="evenodd" d="M0,0 L561,0 L561,339 L0,339 L0,0"/>
</g>

<g fill="#ffffff" fill-opacity="1" stroke="none" transform="matrix(7.5e-05,0,0,7.5e-05,0,0)"
font-family="SimSun" font-size="9" font-weight="400" font-style="normal" 
>
<path vector-effect="none" fill-rule="evenodd" d="M730000,250000 L730000,3e+06 L5.07e+06,3e+06 L5.07e+06,250000 L730000,250000"/>
</g>

<g fill="#212121" fill-opacity="1" stroke="#212121" stroke-opacity="1" stroke-width="0.666667" stroke-linecap="square" stroke-linejoin="round" transform="matrix(0.75,0,0,0.75,0,0)"
font-family="SimSun" font-size="9" font-weight="400" font-style="normal" 
>
<polyline fill="none" vector-effect="none" points="73,300 507,300 " />
<polyline fill="none" vector-effect="none" points="73,25 507,25 " />
<polyline fill="none" vector-effect="none" points="73,300 73,295.66 " />
<polyline fill="none" vector-effect="none" points="73,29.34 73,25 " />
<polyline fill="none" vector-effect="none" points="159.8,300 159.8,295.66 " />
<polyline fill="none" vector-effect="none" points="159.8,29.34 159.8,25 " />
<polyline fill="none" vector-effect="none" points="246.6,300 246.6,295.66 " />
<polyline fill="none" vector-effect="none" points="246.6,29.34 246.6,25 " />
<polyline fill="none" vector-effect="none" points="333.4,300 333.4,295.66 " />
<polyline fill="none" vector-effect="none" points="333.4,29.34 333.4,25 " />
<polyline fill="none" vector-effect="none" points="420.2,300 420.2,295.66 " />
<polyline fill="none" vector-effect="none" points="420.2,29.34 420.2,25 " />
<polyline fill="none" vector-effect="none" points="507,300 507,295.66 " />
<polyline fill="none" vector-effect="none" points="507,29.34 507,25 " />
</g>

<g fill="#212121" fill-opacity="1" stroke="#212121" stroke-opacity="1" stroke-width="1" stroke-linecap="square" stroke-linejoin="bevel" transform="matrix(0.75,0,0,0.75,52.125,238)"
font-family="Helvetica" font-size="13" font-weight="400" font-style="normal" 
>
<text fill="#212121" fill-opacity="1" stroke="none" xml:space="preserve" x="0" y="0" font-family="Helvetica" font-size="13" font-weight="400" font-style="normal" 
 >0</text>
</g>

<g fill="#212121" fill-opacity="1" stroke="#212121" stroke-opacity="1" stroke-width="1" stroke-linecap="square" stroke-linejoin="bevel" transform="matrix(0.75,0,0,0.75,114.6,238)"
font-family="Helvetica" font-size="13" font-weight="400" font-style="normal" 
>
<text fill="#212121" fill-opacity="1" stroke="none" xml:space="preserve" x="0" y="0" font-family="Helvetica" font-size="13" font-weight="400" font-style="normal" 
 >10</text>
</g>

<g fill="#212121" fill-opacity="1" stroke="#212121" stroke-opacity="1" stroke-width="1" stroke-linecap="square" stroke-linejoin="bevel" transform="matrix(0.75,0,0,0.75,179.7,238)"
font-family="Helvetica" font-size="13" font-weight="400" font-style="normal" 
>
<text fill="#212121" fill-opacity="1" stroke="none" xml:space="preserve" x="0" y="0" font-family="Helvetica" font-size="13" font-weight="400" font-style="normal" 
 >20</text>
</g>

<g fill="#212121" fill-opacity="1" stroke="#212121" stroke-opacity="1" stroke-width="1" stroke-linecap="square" stroke-linejoin="bevel" transform="matrix(0.75,0,0,0.75,244.8,238)"
font-family="Helvetica" font-size="13" font-weight="400" font-style="normal" 
>
<text fill="#212121" fill-opacity="1" stroke="none" xml:space="preserve" x="0" y="0" font-family="Helvetica" font-size="13" font-weight="400" font-style="normal" 
 >30</text>
</g>

<g fill="#212121" fill-opacity="1" stroke="#212121" stroke-opacity="1" stroke-width="1" stroke-linecap="square" stroke-linejoin="bevel" transform="matrix(0.75,0,0,0.75,309.9,238)"
font-family="Helvetica" font-size="13" font-weight="400" font-style="normal" 
>
<text fill="#212121" fill-opacity="1" stroke="none" xml:space="preserve" x="0" y="0" font-family="Helvetica" font-size="13" font-weight="400" font-style="normal" 
 >40</text>
</g>

<g fill="#212121" fill-opacity="1" stroke="#212121" stroke-opacity="1" stroke-width="1" stroke-linecap="square" stroke-linejoin="bevel" transform="matrix(0.75,0,0,0.75,375,238)"
font-family="Helvetica" font-size="13" font-weight="400" font-style="normal" 
>
<text fill="#212121" fill-opacity="1" stroke="none" xml:space="preserve" x="0" y="0" font-family="Helvetica" font-size="13" font-weight="400" font-style="normal" 
 >50</text>
</g>

<g fill="#212121" fill-opacity="1" stroke="#212121" stroke-opacity="1" stroke-width="0.666667" stroke-linecap="square" stroke-linejoin="round" transform="matrix(0.75,0,0,0.75,0,0)"
font-family="Helvetica" font-size="13" font-weight="400" font-style="normal" 
>
<polyline fill="none" vector-effect="none" points="73,300 73,25 " />
<polyline fill="none" vector-effect="none" points="507,300 507,25 " />
<polyline fill="none" vector-effect="none" points="73,300 77.34,300 " />
<polyline fill="none" vector-effect="none" points="502.66,300 507,300 " />
<polyline fill="none" vector-effect="none" points="73,245 77.34,245 " />
<polyline fill="none" vector-effect="none" points="502.66,245 507,245 " />
<polyline fill="none" vector-effect="none" points="73,190 77.34,190 " />
<polyline fill="none" vector-effect="none" points="502.66,190 507,190 " />
<polyline fill="none" vector-effect="none" points="73,135 77.34,135 " />
<polyline fill="none" vector-effect="none" points="502.66,135 507,135 " />
<polyline fill="none" vector-effect="none" points="73,80 77.34,80 " />
<polyline fill="none" vector-effect="none" points="502.66,80 507,80 " />
<polyline fill="none" vector-effect="none" points="73,25 77.34,25 " />
<polyline fill="none" vector-effect="none" points="502.66,25 507,25 " />
</g>

<g fill="#212121" fill-opacity="1" stroke="#212121" stroke-opacity="1" stroke-width="1" stroke-linecap="square" stroke-linejoin="bevel" transform="matrix(0.75,0,0,0.75,34.25,228.375)"
font-family="Helvetica" font-size="13" font-weight="400" font-style="normal" 
>
<text fill="#212121" fill-opacity="1" stroke="none" xml:space="preserve" x="0" y="0" font-family="Helvetica" font-size="13" font-weight="400" font-style="normal" 
 >-0.5</text>
</g>

<g fill="#212121" fill-opacity="1" stroke="#212121" stroke-opacity="1" stroke-width="1" stroke-linecap="square" stroke-linejoin="bevel" transform="matrix(0.75,0,0,0.75,45.5,187.125)"
font-family="Helvetica" font-size="13" font-weight="400" font-style="normal" 
>
<text fill="#212121" fill-opacity="1" stroke="none" xml:space="preserve" x="0" y="0" font-family="Helvetica" font-size="13" font-weight="400" font-style="normal" 
 >0</text>
</g>

<g fill="#212121" fill-opacity="1" stroke="#212121" stroke-opacity="1" stroke-width="1" stroke-linecap="square" stroke-linejoin="bevel" transform="matrix(0.75,0,0,0.75,37.25,145.875)"
font-family="Helvetica" font-size="13" font-weight="400" font-style="normal" 
>
<text fill="#212121" fill-opacity="1" stroke="none" xml:space="preserve" x="0" y="0" font-family="Helvetica" font-size="13" font-weight="400" font-style="normal" 
 >0.5</text>
</g>

<g fill="#212121" fill-opacity="1" stroke="#212121" stroke-opacity="1" stroke-width="1" stroke-linecap="square" stroke-linejoin="bevel" transform="matrix(0.75,0,0,0.75,45.5,104.625)"
font-family="Helvetica" font-size="13" font-weight="400" font-style="normal" 
>
<text fill="#212121" fill-opacity="1" stroke="none" xml:space="preserve" x="0" y="0" font-family="Helvetica" font-size="13" font-weight="400" font-style="normal" 
 >1</text>
</g>

<g fill="#212121" fill-opacity="1" stroke="#212121" stroke-opacity="1" stroke-width="1" stroke-linecap="square" stroke-linejoin="bevel" transform="matrix(0.75,0,0,0.75,37.25,63.375)"
font-family="Helvetica" font-size="13" font-weight="400" font-style="normal" 
>
<text fill="#212121" fill-opacity="1" stroke="none" xml:space="preserve" x="0" y="0" font-family="Helvetica" font-size="13" font-weight="400" font-style="normal" 
 >1.5</text>
</g>

<g fill="#212121" fill-opacity="1" stroke="#212121" stroke-opacity="1" stroke-width="1" stroke-linecap="square" stroke-linejoin="bevel" transform="matrix(0.75,0,0,0.75,45.5,22.125)"
font-family="Helvetica" font-size="13" font-weight="400" font-style="normal" 
>
<text fill="#212121" fill-opacity="1" stroke="none" xml:space="preserve" x="0" y="0" font-family="Helvetica" font-size="13" font-weight="400" font-style="normal" 
 >2</text>
</g>

<g fill="none" stroke="#1171be" stroke-opacity="1" stroke-width="0.666667" stroke-linecap="butt" stroke-linejoin="round" transform="matrix(0.75,0,0,0.75,0,0)"
font-family="Helvetica" font-size="13" font-weight="400" font-style="normal" 
>
<polyline fill="none" vector-effect="none" points="81.68,240.022 90.36,237.447 99.04,241.112 107.72,240.782 116.4,239.46 125.08,242.857 133.76,247.499 142.44,246.343 151.12,245.384 159.8,246.998 168.48,248.005 177.16,255.906 185.84,248.674 194.52,251.331 203.2,257.725 211.88,255.634 220.56,253.482 229.24,253.493 237.92,257.181 246.6,257.453 255.28,268.449 263.96,261.737 272.64,255.179 281.32,254.338 290,254.782 298.68,252.113 307.36,249.23 316.04,240.088 324.72,201.723 333.4,167.139 342.08,140.929 350.76,117.047 359.44,116.757 368.12,106.169 376.8,69.7338 385.48,35.5266 394.16,30.266 402.84,29.3349 411.52,32.0146 420.2,45.0215 428.88,65.2253 437.56,81.2821 446.24,80.3862 454.92,95.4689 463.6,105.318 472.28,110.701 480.96,130.544 489.64,140.86 " />
</g>

<g fill="none" stroke="#dd5400" stroke-opacity="1" stroke-width="0.666667" stroke-linecap="butt" stroke-linejoin="round" transform="matrix(0.75,0,0,0.75,0,0)"
font-family="Helvetica" font-size="13" font-weight="400" font-style="normal" 
>
<polyline fill="none" vector-effect="none" points="81.68,240.869 90.36,233.415 99.04,240.171 107.72,255.423 116.4,250.815 125.08,249.102 133.76,248.926 142.44,243.594 151.12,252.272 159.8,255.247 168.48,250.542 177.16,247.917 185.84,252.368 194.52,247.406 203.2,254.468 211.88,246.035 220.56,241.963 229.24,244.521 237.92,245.089 246.6,250.983 255.28,251.346 263.96,247.311 272.64,251.402 281.32,247.099 290,235.691 298.68,229.339 307.36,220.396 316.04,213.097 324.72,203.136 333.4,190.717 342.08,169.851 350.76,165.972 359.44,172.104 368.12,179.419 376.8,151.273 385.48,150.615 394.16,148.82 402.84,155.142 411.52,163.019 420.2,161.862 428.88,149.161 437.56,167.739 446.24,175.094 454.92,167.705 463.6,173.539 472.28,173.905 480.96,172.693 489.64,180.883 " />
</g>

<g fill="none" stroke="#edb120" stroke-opacity="1" stroke-width="0.666667" stroke-linecap="butt" stroke-linejoin="round" transform="matrix(0.75,0,0,0.75,0,0)"
font-family="Helvetica" font-size="13" font-weight="400" font-style="normal" 
>
<polyline fill="none" vector-effect="none" points="81.68,245.542 90.36,246.219 99.04,240.251 107.72,246.029 116.4,241.575 125.08,245.924 133.76,244.299 142.44,250.639 151.12,249.307 159.8,243.718 168.48,251.488 177.16,254.387 185.84,249.236 194.52,248.766 203.2,246.708 211.88,246.006 220.56,251.646 229.24,251.959 237.92,255.422 246.6,254.398 255.28,255.89 263.96,258.606 272.64,258.141 281.32,251.598 290,240.881 298.68,237.413 307.36,234.239 316.04,215.907 324.72,198.787 333.4,183.192 342.08,170.705 350.76,158.586 359.44,157.102 368.12,161.062 376.8,165.907 385.48,147.485 394.16,147.774 402.84,152.695 411.52,161.115 420.2,160.835 428.88,157.597 437.56,165.793 446.24,154.16 454.92,149.963 463.6,148.375 472.28,151.29 480.96,140.078 489.64,133.003 " />
</g>

<g fill="none" stroke="#8516d1" stroke-opacity="1" stroke-width="0.666667" stroke-linecap="butt" stroke-linejoin="round" transform="matrix(0.75,0,0,0.75,0,0)"
font-family="Helvetica" font-size="13" font-weight="400" font-style="normal" 
>
<polyline fill="none" vector-effect="none" points="81.68,248.716 90.36,250.044 99.04,243.167 107.72,247.015 116.4,250.035 125.08,247.498 133.76,248.585 142.44,250.689 151.12,246.684 159.8,248.374 168.48,248.736 177.16,248.112 185.84,246.84 194.52,248.266 203.2,249.447 211.88,247.667 220.56,248.959 229.24,247.342 237.92,244.868 246.6,242.126 255.28,241.5 263.96,244.713 272.64,240.879 281.32,242.604 290,234.836 298.68,230.735 307.36,231.216 316.04,216.357 324.72,198.792 333.4,184.454 342.08,177.005 350.76,175.486 359.44,184.056 368.12,185.756 376.8,171.722 385.48,174.81 394.16,182.536 402.84,185.78 411.52,184.119 420.2,188.3 428.88,196.082 437.56,199.589 446.24,201.265 454.92,201.23 463.6,203.917 472.28,209.091 480.96,216.869 489.64,217.893 " />
</g>

<g fill="#ffffff" fill-opacity="1" stroke="none" transform="matrix(7.5e-05,0,0,7.5e-05,0,0)"
font-family="Helvetica" font-size="13" font-weight="400" font-style="normal" 
>
<path vector-effect="none" fill-rule="evenodd" d="M840000,360000 L840000,970000 L2.04e+06,970000 L2.04e+06,360000 L840000,360000"/>
</g>

<g fill="#1171be" fill-opacity="1" stroke="#1171be" stroke-opacity="1" stroke-width="0.666667" stroke-linecap="butt" stroke-linejoin="round" transform="matrix(0.75,0,0,0.75,0,0)"
font-family="Helvetica" font-size="13" font-weight="400" font-style="normal" 
>
<polyline fill="none" vector-effect="none" points="88,44.9268 128,44.9268 " />
</g>

<g fill="#dd5400" fill-opacity="1" stroke="#dd5400" stroke-opacity="1" stroke-width="0.666667" stroke-linecap="butt" stroke-linejoin="round" transform="matrix(0.75,0,0,0.75,0,0)"
font-family="Helvetica" font-size="13" font-weight="400" font-style="normal" 
>
<polyline fill="none" vector-effect="none" points="88,59.3089 128,59.3089 " />
</g>

<g fill="#edb120" fill-opacity="1" stroke="#edb120" stroke-opacity="1" stroke-width="0.666667" stroke-linecap="butt" stroke-linejoin="round" transform="matrix(0.75,0,0,0.75,0,0)"
font-family="Helvetica" font-size="13" font-weight="400" font-style="normal" 
>
<polyline fill="none" vector-effect="none" points="88,73.6911 128,73.6911 " />
</g>

<g fill="#8516d1" fill-opacity="1" stroke="#8516d1" stroke-opacity="1" stroke-width="0.666667" stroke-linecap="butt" stroke-linejoin="round" transform="matrix(0.75,0,0,0.75,0,0)"
font-family="Helvetica" font-size="13" font-weight="400" font-style="normal" 
>
<polyline fill="none" vector-effect="none" points="88,88.0732 128,88.0732 " />
</g>

<g fill="#212121" fill-opacity="1" stroke="#212121" stroke-opacity="1" stroke-width="1" stroke-linecap="square" stroke-linejoin="bevel" transform="matrix(0.75,0,0,0.75,98.25,36.6951)"
font-family="Helvetica" font-size="12" font-weight="400" font-style="normal" 
>
<text fill="#212121" fill-opacity="1" stroke="none" xml:space="preserve" x="0" y="0" font-family="Helvetica" font-size="12" font-weight="400" font-style="normal" 
 >MOp2/3true</text>
</g>

<g fill="#212121" fill-opacity="1" stroke="#212121" stroke-opacity="1" stroke-width="1" stroke-linecap="square" stroke-linejoin="bevel" transform="matrix(0.75,0,0,0.75,98.25,47.4817)"
font-family="Helvetica" font-size="12" font-weight="400" font-style="normal" 
>
<text fill="#212121" fill-opacity="1" stroke="none" xml:space="preserve" x="0" y="0" font-family="Helvetica" font-size="12" font-weight="400" font-style="normal" 
 >MOp5true</text>
</g>

<g fill="#212121" fill-opacity="1" stroke="#212121" stroke-opacity="1" stroke-width="1" stroke-linecap="square" stroke-linejoin="bevel" transform="matrix(0.75,0,0,0.75,98.25,58.2683)"
font-family="Helvetica" font-size="12" font-weight="400" font-style="normal" 
>
<text fill="#212121" fill-opacity="1" stroke="none" xml:space="preserve" x="0" y="0" font-family="Helvetica" font-size="12" font-weight="400" font-style="normal" 
 >MOp2/3false</text>
</g>

<g fill="#212121" fill-opacity="1" stroke="#212121" stroke-opacity="1" stroke-width="1" stroke-linecap="square" stroke-linejoin="bevel" transform="matrix(0.75,0,0,0.75,98.25,69.0549)"
font-family="Helvetica" font-size="12" font-weight="400" font-style="normal" 
>
<text fill="#212121" fill-opacity="1" stroke="none" xml:space="preserve" x="0" y="0" font-family="Helvetica" font-size="12" font-weight="400" font-style="normal" 
 >MOp5false</text>
</g>

<g fill="none" stroke="#212121" stroke-opacity="1" stroke-width="0.666667" stroke-linecap="butt" stroke-linejoin="miter" stroke-miterlimit="2" transform="matrix(0.75,0,0,0.75,0,0)"
font-family="Helvetica" font-size="12" font-weight="400" font-style="normal" 
>
<path vector-effect="none" fill-rule="evenodd" d="M84,97 L84,36 L204,36 L204,97 L84,97"/>
</g>
</g>
</svg>
